<svg width="600" height="272" viewBox="0 0 600 272" fill="none" xmlns="http://www.w3.org/2000/svg">
<g filter="url(#filter0_b_75_444)">
<path d="M622.169 9.71326L604.213 19.0754C588.363 27.3399 584.486 45.3085 595.555 59.2093V59.2093L613.51 49.8471C629.361 41.5826 633.238 23.6141 622.169 9.71326V9.71326Z" fill="#D9D9D9"/>
<path d="M593.362 53.8606L575.972 63.4283C560.228 72.0908 556.779 90.199 568.269 103.874V103.874L585.658 94.3063C601.403 85.6438 604.852 67.5356 593.362 53.8606V53.8606Z" fill="#D9D9D9"/>
<path d="M569.369 98.7823L551.729 108.262C535.936 116.749 532.298 134.796 543.603 148.571V148.571L561.243 139.092C577.036 130.605 580.674 112.558 569.369 98.7823V98.7823Z" fill="#D9D9D9"/>
<path d="M546.881 145.266L525.893 153.037C509.61 159.065 503.303 176.142 511.806 191.18V191.18L532.794 183.409C549.076 177.38 555.383 160.303 546.881 145.266V145.266Z" fill="#D9D9D9"/>
<path d="M513.027 187.186L487.572 188.311C471.024 189.042 458.511 203.02 459.625 219.532V219.532L485.08 218.407C501.629 217.676 514.141 203.698 513.027 187.186V187.186Z" fill="#D9D9D9"/>
<path d="M461.67 219.262L456.523 209.619C447.212 192.173 424.455 183.346 405.695 189.903V189.903L410.842 199.546C420.153 216.992 442.91 225.819 461.67 219.262V219.262Z" fill="#D9D9D9"/>
<path d="M416.204 190.941L410.569 181.137C400.753 164.061 377.775 155.872 359.246 162.847V162.847L364.882 172.65C374.698 189.726 397.676 197.915 416.204 190.941V190.941Z" fill="#D9D9D9"/>
<path d="M364.556 163.097L340.276 158.452C323.855 155.311 306.732 165.811 302.031 181.903V181.903L326.311 186.548C342.732 189.689 359.855 179.19 364.556 163.097V163.097Z" fill="#D9D9D9"/>
<path d="M307.625 179.609L282.163 180.685C265.614 181.383 253.062 195.337 254.127 211.851V211.851L279.59 210.776C296.138 210.077 308.69 196.123 307.625 179.609V179.609Z" fill="#D9D9D9"/>
<path d="M258.051 208.265L232.577 209.265C216.029 209.915 203.417 223.832 204.408 240.349V240.349L229.881 239.348C246.43 238.698 259.041 224.782 258.051 208.265V208.265Z" fill="#D9D9D9"/>
<path d="M209.491 236.337L184.669 232.741C168.205 230.355 151.938 241.617 148.337 257.895V257.895L173.159 261.491C189.623 263.877 205.889 252.615 209.491 236.337V236.337Z" fill="#D9D9D9"/>
<path d="M152.906 257.788L150.566 249.232C145.236 229.739 124.74 216.833 104.787 220.406V220.406L107.127 228.962C112.458 248.455 132.954 261.361 152.906 257.788V257.788Z" fill="#D9D9D9"/>
<path d="M109.583 221.163L110.302 213.215C112.141 192.866 97.11 175.392 76.7292 174.186V174.186L76.0109 182.133C74.1717 202.483 89.2026 219.957 109.583 221.163V221.163Z" fill="#D9D9D9"/>
<path d="M81.3999 178.282L77.5108 169.102C69.7186 150.707 47.731 140.143 28.4001 145.506V145.506L32.2892 154.686C40.0814 173.08 62.069 183.644 81.3999 178.282V178.282Z" fill="#D9D9D9"/>
<path d="M34.4202 146.113L17.9335 135.959C2.64664 126.545 -19.7784 129.58 -32.1542 142.739V142.739L-15.6676 152.893C-0.38069 162.307 22.0443 159.272 34.4202 146.113V146.113Z" fill="#D9D9D9"/>
</g>
<defs>
<filter id="filter0_b_75_444" x="-234.616" y="-83.2867" width="956.093" height="438.097" filterUnits="userSpaceOnUse" color-interpolation-filters="sRGB">
<feFlood flood-opacity="0" result="BackgroundImageFix"/>
<feGaussianBlur in="BackgroundImageFix" stdDeviation="46.5"/>
<feComposite in2="SourceAlpha" operator="in" result="effect1_backgroundBlur_75_444"/>
<feBlend mode="normal" in="SourceGraphic" in2="effect1_backgroundBlur_75_444" result="shape"/>
</filter>
</defs>
</svg>
