<svg width="600" height="1233" viewBox="0 0 600 1233" fill="none" xmlns="http://www.w3.org/2000/svg">
<path d="M-407 820C-409.152 821.298 -409.095 821.337 -407.137 820.293L-435.626 881.462L791.5 866.657L632.5 436L602 500L584 521L545.5 600.5L512.5 641.5L461 670L414 646L363.5 618L323 623.5L276 651L215 687.5L150.5 708.5L114 681.5L78.4999 629.5L33.4999 600.5L6.99989 599L-46.3743 616.538C-46.3743 616.538 -382.103 806.948 -407.137 820.293L-407 820Z" fill="black"/>
<rect x="-2.62573" y="867.962" width="29" height="48" fill="black"/>
<rect x="36.3743" y="867.962" width="29" height="48" fill="black"/>
<rect x="75.3743" y="867.962" width="29" height="48" fill="black"/>
<rect x="114.374" y="867.962" width="29" height="48" fill="black"/>
<rect x="153.374" y="867.962" width="29" height="48" fill="black"/>
<rect x="192.374" y="867.962" width="29" height="48" fill="black"/>
<rect x="231.374" y="867.962" width="29" height="48" fill="black"/>
<rect x="270.374" y="867.962" width="29" height="48" fill="black"/>
<rect x="309.374" y="867.962" width="29" height="48" fill="black"/>
<rect x="348.374" y="867.962" width="29" height="48" fill="black"/>
<rect x="387.374" y="867.962" width="29" height="48" fill="black"/>
<rect x="426.374" y="867.962" width="29" height="48" fill="black"/>
<rect x="465.374" y="867.962" width="29" height="48" fill="black"/>
<rect x="504.374" y="867.962" width="29" height="48" fill="black"/>
<rect x="543.374" y="867.962" width="29" height="48" fill="black"/>
<rect x="582.374" y="867.962" width="29" height="48" fill="black"/>
<path fill-rule="evenodd" clip-rule="evenodd" d="M1134.65 1293.92L-447.349 1293.92L-441.348 794.839L1134.65 794.839L1134.65 1293.92Z" fill="#121212" fill-opacity="0.5"/>
<path fill-rule="evenodd" clip-rule="evenodd" d="M695 1248.5L-179.5 1248.5L-156 638.5L-6.50025 599L30.9998 599L54.4998 609.5L79.4997 632L89.9998 657.5L151.5 709.5L220 687.5L270.5 652.5L307.5 631.5L365 619L421 648L461.5 671L520.5 637L563.5 572L574 537L595 501L614.5 433L695 672L695 1248.5Z" fill="#121212" fill-opacity="0.5"/>
<g filter="url(#filter0_b_75_638)">
<path d="M7.99976 589L-72.5001 570.5L-165.5 1385.99H680.932V694.38L647 387L586.5 524.5L555.5 586L513.5 640L459 669L364 617.5L318 626L286.5 649L216.5 684L193 698L152.5 709.5L117.5 688.5L85.9998 636.5L41.4998 607L7.99976 589Z" fill="#121212" fill-opacity="0.76"/>
</g>
<defs>
<filter id="filter0_b_75_638" x="-174.5" y="378" width="864.432" height="1016.99" filterUnits="userSpaceOnUse" color-interpolation-filters="sRGB">
<feFlood flood-opacity="0" result="BackgroundImageFix"/>
<feGaussianBlur in="BackgroundImageFix" stdDeviation="4.5"/>
<feComposite in2="SourceAlpha" operator="in" result="effect1_backgroundBlur_75_638"/>
<feBlend mode="normal" in="SourceGraphic" in2="effect1_backgroundBlur_75_638" result="shape"/>
</filter>
</defs>
</svg>
