<svg id="visual" viewBox="0 0 900 600" width="900" height="600" xmlns="http://www.w3.org/2000/svg" xmlns:xlink="http://www.w3.org/1999/xlink" version="1.1"><rect x="0" y="0" width="900" height="600" fill="#002233"></rect><path d="M0 412L21.5 422.8C43 433.7 86 455.3 128.8 472.8C171.7 490.3 214.3 503.7 257.2 508.2C300 512.7 343 508.3 385.8 490.2C428.7 472 471.3 440 514.2 438.2C557 436.3 600 464.7 642.8 479.2C685.7 493.7 728.3 494.3 771.2 480.5C814 466.7 857 438.3 878.5 424.2L900 410L900 601L878.5 601C857 601 814 601 771.2 601C728.3 601 685.7 601 642.8 601C600 601 557 601 514.2 601C471.3 601 428.7 601 385.8 601C343 601 300 601 257.2 601C214.3 601 171.7 601 128.8 601C86 601 43 601 21.5 601L0 601Z" fill="#0066FF" stroke-linecap="round" stroke-linejoin="miter"></path></svg>