<svg width="772" height="28" viewBox="0 0 772 28" fill="none" xmlns="http://www.w3.org/2000/svg">
<path fill-rule="evenodd" clip-rule="evenodd" d="M79.3504 0L21.3155 24.7902C16.4838 26.8697 12.4121 27.9094 9.15481 27.9094C5.46316 27.9094 2.803 26.5961 1.12005 23.9693C-0.997221 20.5764 -0.0743088 15.1587 3.56305 9.4126C5.73461 6.07441 8.50334 3.00984 11.2178 0.0547244C10.5663 1.09449 4.97456 10.5071 11.1092 14.9398C12.3036 15.8154 14.0408 16.2531 16.1581 16.2531C17.841 16.2531 19.7954 15.9795 21.967 15.4323L79.3504 0Z" fill="#DFDFDF" fill-opacity="0.5"/>
<path d="M102.352 18.5734C101.388 17.0485 100.785 14.9616 100.785 12.9551C100.785 10.9886 101.307 9.10248 102.232 7.49723L102.352 7.29657C103.277 5.45053 105.326 4.20647 107.335 4.20647C108.661 4.20647 110.028 4.60778 111.113 5.16962C113.082 6.37355 114.649 8.21959 115.533 10.3867V7.09591C115.533 6.37355 114.408 5.5308 114.408 5.5308C112.479 4.1262 110.108 3.28345 107.536 3.28345C106.491 3.28345 105.045 3.56437 105.045 3.56437C100.665 4.52752 97.4095 8.38011 97.4095 12.9551C97.4095 17.8511 101.107 21.9043 105.889 22.426C105.889 22.426 106.853 22.5866 107.536 22.5464C110.309 22.5464 112.881 21.5833 114.89 19.9379L115.171 19.657C115.412 19.3359 115.573 18.9346 115.573 18.5333V15.8044C115.573 15.0018 115.975 14.2794 116.578 13.838H111.394C111.997 14.2794 112.398 15.0018 112.398 15.8044L112.439 18.3728C112.439 18.8945 112.238 19.3359 111.916 19.6971C111.514 20.1787 109.907 20.9813 109.907 20.9813C109.144 21.3826 108.259 21.6234 107.295 21.6234C105.125 21.5432 103.277 20.3392 102.352 18.5734Z" fill="#DFDFDF" fill-opacity="0.5"/>
<path d="M154.512 12.9149C154.512 17.4899 157.767 21.2622 162.067 22.1853C162.067 22.1853 163.514 22.4662 164.558 22.4662C167.13 22.4662 169.461 21.6636 171.39 20.259C171.39 20.259 172.555 19.5366 172.555 18.8142L172.997 15.3228C171.671 18.6136 169.421 19.8576 168.135 20.58C167.05 21.1418 165.643 21.5432 164.357 21.5432C162.348 21.5432 160.299 20.4195 159.375 18.5734L159.254 18.3728C158.33 16.7675 157.807 14.9215 157.807 12.9149C157.807 10.9485 158.33 9.06234 159.254 7.4571L159.375 7.25644C160.299 5.4104 162.348 4.16633 164.357 4.16633C165.684 4.16633 167.05 4.56765 168.135 5.12948C170.104 6.33342 171.671 8.17946 172.555 10.3465V7.05578C172.555 6.33342 171.43 5.49067 171.43 5.49067C169.501 4.08607 167.13 3.28345 164.558 3.28345C163.514 3.28345 162.067 3.56437 162.067 3.56437C157.727 4.44725 154.512 8.29985 154.512 12.9149Z" fill="#DFDFDF" fill-opacity="0.5"/>
<path d="M184.289 12.9149C184.289 17.4899 187.544 21.2622 191.844 22.1853C191.844 22.1853 193.29 22.4662 194.335 22.4662C196.907 22.4662 199.238 21.6636 201.167 20.259C201.167 20.259 202.332 19.5366 202.332 18.7741L202.774 15.2827C201.448 18.5734 199.198 19.8175 197.912 20.5399C196.827 21.1017 195.42 21.503 194.134 21.503C192.125 21.503 190.076 20.3392 189.151 18.5333L189.031 18.3327C188.107 16.7274 187.584 14.8814 187.584 12.8748C187.584 10.9084 188.107 9.02221 189.031 7.41696L189.151 7.21631C190.076 5.37027 192.125 4.1262 194.134 4.1262C195.46 4.1262 196.827 4.52752 197.912 5.08935C199.881 6.29329 201.448 8.13933 202.332 10.3064V7.09591C202.332 6.37355 201.207 5.5308 201.207 5.5308C199.318 4.1262 196.947 3.28345 194.375 3.28345C193.331 3.28345 191.884 3.56437 191.884 3.56437C187.544 4.48738 184.289 8.33998 184.289 12.9149Z" fill="#DFDFDF" fill-opacity="0.5"/>
<path d="M217.803 4.12616H212.82C213.423 4.5676 213.825 5.24983 213.825 6.05246V20.5398C213.825 21.3023 213.463 22.0247 212.86 22.426H217.723C217.16 21.9846 216.758 21.3023 216.758 20.5398V6.05246C216.799 5.24983 217.16 4.52747 217.803 4.12616Z" fill="#DFDFDF" fill-opacity="0.5"/>
<path d="M131.727 4.12616H126.744C127.347 4.5676 127.749 5.28997 127.749 6.09259V16.928C127.91 18.8945 129.156 20.58 130.883 21.3826C132.29 22.0648 133.857 22.4661 135.545 22.4661C137.233 22.4661 138.88 22.105 140.287 21.3826H140.327C142.055 20.58 143.301 18.8945 143.461 16.928V6.01233C143.461 5.2097 143.863 4.52747 144.466 4.12616H141.573C142.175 4.5676 142.577 5.2097 142.577 6.01233V16.928V16.9682C142.457 18.1721 141.854 19.2155 141.01 19.9379L140.97 19.978C140.005 20.7405 138.277 21.3023 136.63 21.3023C135.625 21.3023 134.661 21.1017 133.737 20.7405L133.656 20.7004C132.049 20.1385 130.883 18.6537 130.683 16.8879V16.8478V6.09259C130.683 5.24983 131.125 4.52747 131.727 4.12616Z" fill="#DFDFDF" fill-opacity="0.5"/>
<path d="M295.751 15.1061C295.751 12.9026 298.341 11.1228 301.548 11.1228C304.756 11.1228 307.346 12.9026 307.346 15.1061C307.346 17.3096 304.756 19.0894 301.548 19.0894C298.341 19.0894 295.751 17.352 295.751 15.1061ZM319.435 15.1061C319.435 12.9026 322.025 11.1228 325.232 11.1228C328.44 11.1228 331.03 12.9026 331.03 15.1061C331.03 17.3096 328.44 19.0894 325.232 19.0894C322.025 19.1317 319.435 17.352 319.435 15.1061ZM264.48 15.1061C264.48 12.9026 267.071 11.1228 270.278 11.1228C273.485 11.1228 276.076 12.9026 276.076 15.1061C276.076 17.3096 273.485 19.0894 270.278 19.0894C267.071 19.1317 264.48 17.352 264.48 15.1061ZM240.796 15.1061C240.796 12.9026 243.387 11.1228 246.594 11.1228C249.801 11.1228 252.392 12.9026 252.392 15.1061C252.392 17.3096 249.801 19.0894 246.594 19.0894C243.387 19.1317 240.796 17.352 240.796 15.1061ZM288.719 8.02946H283.662V22.0132H288.719V8.02946ZM252.392 22.0556H257.449V8.07183H252.392V9.21596C250.665 8.41083 248.629 7.94471 246.347 7.94471C240.55 7.90233 235.862 11.1228 235.862 15.1061C235.862 19.1317 240.55 22.3522 246.409 22.3522C248.629 22.3522 250.726 21.8861 252.453 21.081V22.0556H252.392ZM331.03 22.0556H336.087V8.07183H331.03V9.21596C329.303 8.41083 327.268 7.94471 324.986 7.94471C319.188 7.94471 314.439 11.1652 314.439 15.1909C314.439 19.2165 319.126 22.437 324.986 22.437C327.206 22.437 329.303 21.9709 331.03 21.1657V22.0556ZM337.938 17.5215C338.123 20.3606 341.577 22.3522 347.498 22.3522C352.309 22.3522 356.256 20.9115 356.256 17.7757C356.256 15.5722 354.467 14.301 350.335 13.7501L347.128 13.3263C345.031 13.0721 343.612 12.7755 343.612 11.928C343.612 10.9957 345.031 10.572 346.758 10.572C349.286 10.572 350.335 11.4618 350.397 12.4788H355.516C355.207 9.72446 352.062 7.90233 346.881 7.90233C341.577 7.90233 338.431 9.89396 338.431 12.5212C338.431 15.6994 342.194 16.2079 345.401 16.6316L348.053 16.9706C349.965 17.2249 350.828 17.6062 350.828 18.369C350.828 19.047 349.841 19.725 347.621 19.725C344.291 19.725 343.242 18.5385 343.18 17.5215H337.938ZM276.076 3.28345V9.17359C274.349 8.36846 272.313 7.90233 270.031 7.90233C264.234 7.90233 259.485 11.1228 259.485 15.1485C259.546 19.1317 264.234 22.3522 270.093 22.3522C272.313 22.3522 274.41 21.8861 276.137 21.081V22.0556H281.195V3.28345H276.076ZM307.346 3.28345V9.17359C305.619 8.36846 303.584 7.90233 301.302 7.90233C295.504 7.90233 290.755 11.1228 290.755 15.1485C290.755 19.1741 295.442 22.3946 301.302 22.3946C303.522 22.3946 305.619 21.9285 307.346 21.1234V22.098H312.403V3.28345H307.346ZM283.662 3.28345V6.75821H288.719V3.28345" fill="#DFDFDF" fill-opacity="0.5"/>
<path fill-rule="evenodd" clip-rule="evenodd" d="M462.95 21.5279L458.324 15.0162C458.294 14.9867 458.294 14.9572 458.294 14.9278C458.294 14.8983 458.294 14.8688 458.294 14.8099C458.294 14.7805 458.324 14.751 458.353 14.7215C458.383 14.6921 458.413 14.6921 458.442 14.6626C459.48 14.3385 460.37 13.6903 461.022 12.8063C461.675 11.9224 462.001 10.8911 462.001 9.83038C462.001 9.83038 462.327 4.37941 455.714 4.37941C453.787 4.34994 451.859 4.76245 450.11 5.55799V5.85264C450.406 5.94104 450.673 6.14729 450.851 6.38301C451.029 6.61872 451.148 6.94284 451.148 7.23748V21.4984C451.177 21.7931 451.118 22.0582 450.97 22.3234C450.821 22.5886 450.643 22.7949 450.377 22.9127V23.2663H454.38V22.9127C454.38 22.9127 453.787 22.5591 453.787 21.5279V15.3403C453.787 15.2519 453.816 15.1635 453.876 15.1046C453.935 15.0456 454.024 15.0162 454.113 15.0162H454.943C455.032 15.0162 455.121 15.0456 455.21 15.0751C455.299 15.1046 455.358 15.193 455.418 15.2519L461.052 23.1484C461.082 23.1779 461.141 23.2368 461.171 23.2663C461.23 23.2958 461.259 23.2958 461.319 23.2958H464.492V22.9422C463.899 22.5886 463.365 22.0877 462.95 21.5279ZM455.18 13.5724H454.143C454.054 13.5724 453.965 13.5429 453.905 13.484C453.846 13.4251 453.787 13.3367 453.787 13.2483V6.70712C453.787 6.55979 453.846 6.44194 453.935 6.32408C454.024 6.20622 454.143 6.14729 454.291 6.14729C454.676 6.08836 455.062 6.05889 455.447 6.05889C457.701 6.05889 459.124 7.44374 459.124 9.80091C459.095 12.4822 457.553 13.5724 455.18 13.5724ZM412.983 15.0162L417.639 21.5279C418.025 22.1172 418.558 22.5886 419.181 22.9127V23.2663H416.008C415.949 23.2663 415.889 23.2663 415.86 23.2368C415.83 23.2074 415.771 23.1779 415.741 23.119L410.107 15.2224C410.048 15.134 409.988 15.0751 409.899 15.0456C409.81 15.0162 409.721 14.9867 409.633 14.9867H408.832C408.743 14.9867 408.654 15.0162 408.595 15.0751C408.535 15.134 408.476 15.2224 408.476 15.3108V21.4984C408.476 22.5297 409.069 22.8833 409.069 22.8833V23.2368H405.066V22.8833C405.303 22.7359 405.511 22.5297 405.659 22.294C405.807 22.0288 405.867 21.7636 405.837 21.4689V7.23748C405.837 6.94284 405.718 6.61872 405.54 6.38301C405.362 6.14729 405.096 5.94104 404.799 5.85264V5.55799C406.549 4.76245 408.446 4.34994 410.404 4.37941C417.016 4.37941 416.69 9.83038 416.69 9.83038C416.69 10.8911 416.364 11.9518 415.712 12.8063C415.059 13.6608 414.17 14.3385 413.132 14.6626C413.102 14.6626 413.072 14.6921 413.043 14.7215C413.013 14.751 412.983 14.7805 412.983 14.8099C412.983 14.8394 412.954 14.8688 412.983 14.9278C412.954 14.9572 412.983 14.9867 412.983 15.0162ZM408.832 13.5724H409.87C412.242 13.5724 413.814 12.4822 413.814 9.83038C413.814 7.44374 412.39 6.08836 410.137 6.08836C409.751 6.08836 409.366 6.11782 408.98 6.17675C408.832 6.20622 408.713 6.26515 408.624 6.35354C408.535 6.4714 408.476 6.58926 408.476 6.73658V13.2188C408.476 13.3072 408.506 13.3956 408.595 13.4545C408.654 13.5429 408.743 13.5724 408.832 13.5724ZM384.13 13.1894C384.16 13.2188 384.19 13.2483 384.219 13.2483V13.2778C386.028 14.0438 387.274 15.7528 387.274 18.051C387.274 21.3511 384.812 23.2663 381.817 23.2663H374.582V22.9422C374.819 22.7949 375.027 22.5886 375.175 22.3234C375.323 22.0877 375.383 21.7931 375.353 21.4984V7.35534C375.353 7.06069 375.234 6.73658 375.056 6.50086C374.878 6.26515 374.612 6.05889 374.315 5.9705V5.67585C375.531 4.9687 377.518 4.37941 379.86 4.37941C385.939 4.37941 385.613 9.38841 385.613 9.38841C385.643 10.0366 385.494 10.6849 385.257 11.3036C384.99 11.9224 384.635 12.4527 384.13 12.9242C384.101 12.9242 384.101 12.9536 384.071 12.9831C384.071 13.0126 384.071 13.042 384.071 13.101C384.071 13.1304 384.101 13.1599 384.13 13.1894ZM378.17 6.26515C378.081 6.38301 378.022 6.50086 378.022 6.64819V12.4527C378.022 12.5411 378.051 12.6295 378.14 12.6885C378.2 12.7474 378.289 12.7768 378.378 12.7768H379.653C381.758 12.7768 383.181 11.6572 383.181 9.44734C383.181 7.23748 381.847 5.9705 379.742 5.9705C379.327 5.9705 378.941 5.99996 378.526 6.05889C378.378 6.08836 378.259 6.14729 378.17 6.26515ZM378.496 21.852H380.572C382.855 21.852 384.368 20.4082 384.368 18.051C384.368 15.6349 382.855 14.2501 380.572 14.2501H378.407C378.318 14.2501 378.229 14.2796 378.17 14.3385C378.111 14.3974 378.051 14.4858 378.051 14.5742V21.41C378.051 21.5279 378.111 21.6457 378.2 21.7341C378.259 21.7931 378.378 21.852 378.496 21.852ZM430.598 13.2778C430.568 13.2483 430.538 13.2483 430.509 13.2188C430.479 13.1894 430.479 13.1599 430.449 13.1304C430.449 13.101 430.449 13.0715 430.449 13.0126C430.449 12.9831 430.479 12.9536 430.509 12.9242C430.983 12.4822 431.369 11.9224 431.636 11.3036C431.902 10.6849 432.021 10.0366 431.991 9.38841C431.991 9.38841 432.288 4.37941 426.239 4.37941C423.896 4.37941 421.909 4.9687 420.693 5.67585V5.9705C420.99 6.05889 421.257 6.26515 421.435 6.50086C421.613 6.73658 421.731 7.06069 421.731 7.35534V21.4984C421.761 21.7931 421.702 22.0582 421.553 22.3234C421.405 22.5591 421.227 22.7949 420.96 22.9127V23.2663H428.166C431.191 23.2663 433.622 21.3511 433.622 18.051C433.652 15.7528 432.407 14.0733 430.598 13.2778ZM424.43 6.61872C424.43 6.4714 424.489 6.35354 424.578 6.23568C424.667 6.11782 424.786 6.05889 424.934 6.05889C425.349 5.99996 425.764 5.9705 426.179 5.9705C428.285 5.9705 429.589 7.23748 429.589 9.44734C429.589 11.6572 428.166 12.7768 426.061 12.7768H424.786C424.697 12.7768 424.608 12.7474 424.548 12.6885C424.489 12.6295 424.43 12.5411 424.43 12.4527V6.61872ZM426.95 21.852H424.874C424.815 21.852 424.756 21.852 424.697 21.8225C424.637 21.7931 424.578 21.7636 424.548 21.7341C424.519 21.7047 424.459 21.6457 424.459 21.5868C424.43 21.5279 424.43 21.4689 424.43 21.41V14.5742C424.43 14.4858 424.459 14.3974 424.548 14.3385C424.608 14.2796 424.697 14.2501 424.786 14.2501H426.95C429.234 14.2501 430.746 15.6349 430.746 18.051C430.746 20.4082 429.234 21.852 426.95 21.852ZM399.343 4.99816V4.67405H402.516V5.02763C402.278 5.17495 402.071 5.38121 401.923 5.61692C401.804 5.85264 401.745 6.14729 401.745 6.41247V18.0805C401.745 21.5573 399.817 23.5315 396.081 23.5315C392.344 23.5315 389.972 21.5868 389.972 18.11V6.44194C390.002 6.14729 389.943 5.88211 389.794 5.61692C389.646 5.38121 389.468 5.14549 389.201 5.02763V4.67405H393.204V5.02763C393.204 5.02763 392.611 5.38121 392.611 6.41247V17.6385C392.611 20.585 393.709 21.852 396.259 21.852C398.779 21.852 399.965 20.6439 399.965 17.9626V6.41247C399.936 5.35174 399.343 4.99816 399.343 4.99816ZM474.307 15.0162L478.933 21.5279C479.319 22.1172 479.852 22.5886 480.475 22.9127V23.2663H477.332C477.272 23.2663 477.213 23.2663 477.183 23.2368C477.124 23.2074 477.095 23.1779 477.065 23.119L471.431 15.2224C471.371 15.134 471.312 15.0751 471.223 15.0456C471.134 15.0162 471.045 14.9867 470.956 14.9867H470.126C470.037 14.9867 469.948 15.0162 469.889 15.0751C469.829 15.134 469.8 15.2224 469.8 15.3108V21.4984C469.8 22.5297 470.393 22.8833 470.393 22.8833V23.2368H466.39V22.8833C466.627 22.7359 466.834 22.5297 466.983 22.294C467.131 22.0288 467.19 21.7636 467.161 21.4689V7.23748C467.161 6.94284 467.042 6.61872 466.864 6.38301C466.686 6.14729 466.419 5.94104 466.123 5.85264V5.55799C467.872 4.76245 469.8 4.34994 471.727 4.37941C478.34 4.37941 478.014 9.83038 478.014 9.83038C478.014 10.8911 477.688 11.9518 477.035 12.8063C476.383 13.6903 475.493 14.3385 474.455 14.6626C474.426 14.6626 474.396 14.6921 474.366 14.7215C474.337 14.751 474.307 14.7805 474.307 14.8099C474.307 14.8394 474.307 14.8688 474.307 14.9278C474.307 14.9867 474.277 14.9867 474.307 15.0162ZM470.126 13.5724H471.164C473.536 13.5724 475.108 12.4822 475.108 9.83038C475.108 7.44374 473.684 6.08836 471.431 6.08836C471.045 6.08836 470.66 6.11782 470.274 6.17675C470.126 6.20622 470.007 6.26515 469.918 6.35354C469.829 6.4714 469.77 6.58926 469.77 6.73658V13.2188C469.77 13.3072 469.8 13.3956 469.889 13.4545C469.948 13.5429 470.037 13.5724 470.126 13.5724ZM491.18 4.64459V4.99816C491.18 4.99816 491.921 5.23388 491.299 6.38301L487.711 12.7474C487.681 12.7769 487.651 12.8063 487.622 12.8358C487.592 12.8652 487.533 12.8652 487.503 12.8652C487.473 12.8652 487.414 12.8652 487.384 12.8358C487.355 12.8063 487.325 12.7769 487.295 12.7474L483.678 6.38301C483.025 5.23388 483.796 4.99816 483.796 4.99816V4.64459H479.111V4.99816C479.763 5.29281 480.327 5.76425 480.653 6.38301L485.486 14.9278C485.575 15.0751 485.605 15.2519 485.605 15.4287V21.4984C485.635 21.7931 485.575 22.0582 485.427 22.3234C485.279 22.5886 485.101 22.7949 484.834 22.9127V23.2663H488.986V22.9127C488.748 22.7654 488.541 22.5591 488.393 22.3234C488.244 22.0582 488.185 21.7931 488.215 21.4984V15.4581C488.215 15.2814 488.274 15.1046 488.333 14.9572L493.167 6.41247C493.523 5.79371 494.056 5.29281 494.709 5.02763V4.67405L491.18 4.64459ZM440.235 21.852H445.958C446.255 21.8814 446.522 21.8225 446.789 21.6752C447.055 21.5573 447.263 21.3511 447.411 21.0859H447.767V23.2663H436.38V22.9422C436.617 22.7949 436.825 22.5886 436.973 22.3234C437.121 22.0877 437.181 21.7931 437.151 21.4984V6.41247C437.181 6.11782 437.121 5.85264 436.973 5.58746C436.825 5.35174 436.647 5.11602 436.38 4.99816V4.67405H446.966V6.82498H446.611C446.462 6.58926 446.255 6.38301 445.988 6.26515C445.721 6.14729 445.454 6.08836 445.158 6.08836H440.235C440.116 6.08836 439.998 6.14729 439.909 6.23568C439.82 6.32408 439.761 6.44194 439.761 6.55979V12.5411C439.761 12.6295 439.79 12.7179 439.879 12.7768C439.939 12.8358 440.027 12.8652 440.116 12.8652H443.23C444.298 12.8652 444.653 12.2759 444.653 12.2759H445.009V14.8983H444.653C444.653 14.8983 444.298 14.309 443.23 14.309H440.116C440.027 14.309 439.939 14.3385 439.879 14.3974C439.82 14.4563 439.761 14.5447 439.761 14.6331V21.41C439.761 21.5279 439.82 21.6457 439.909 21.7341C439.998 21.8225 440.116 21.852 440.235 21.852Z" fill="#DFDFDF" fill-opacity="0.5"/>
<path d="M540.082 5.09529C539.793 4.33351 539.244 4.00514 538.239 3.98996C538.147 3.98717 533.497 3.99436 533.497 3.99436L526.613 22.6146C526.613 22.6146 529.961 22.6146 529.964 22.6146C530.252 22.6354 530.521 22.5903 530.762 22.4824C531.414 22.1872 531.734 21.4362 531.827 21.1802C531.827 21.1865 532.763 18.586 532.828 18.4159C533.307 18.4159 539.385 18.4135 539.754 18.4135C539.898 18.8521 541.161 22.6062 541.161 22.6062H545.696L542.819 13.5444L540.082 5.09529ZM538.685 14.5918C537.998 14.5918 534.29 14.5926 534.019 14.5926C534.522 13.2236 535.775 9.76024 536.311 8.35812C536.773 9.77223 538.673 14.5458 538.685 14.5918Z" fill="#DFDFDF" fill-opacity="0.5"/>
<path d="M572.716 3.8454H572.713C567.349 3.85259 563.458 7.85283 563.458 13.3527C563.458 18.7415 567.435 22.8068 572.716 22.8068C577.994 22.8068 582.133 18.6568 582.133 13.3527C582.133 8.02061 577.994 3.8454 572.716 3.8454ZM572.85 18.6528C570.116 18.6528 567.973 16.3035 567.973 13.3023C567.973 10.3287 570.069 8.08852 572.847 8.08852C575.604 8.08852 577.604 10.2796 577.604 13.3023C577.604 16.3547 575.559 18.6528 572.85 18.6528Z" fill="#DFDFDF" fill-opacity="0.5"/>
<path d="M594.269 11.6821L594.092 11.631C594.097 11.6333 592.348 11.1049 592.344 11.1001L592.082 11.0078C590.654 10.4949 589.639 10.065 589.639 9.23855C589.639 9.21818 589.639 9.19701 589.639 9.17783C589.781 7.80647 592.344 7.79169 592.369 7.79169C593.782 7.79169 594.869 8.0066 596.245 8.55587L596.274 8.56665L596.333 8.58383C596.651 8.64774 596.929 8.65653 597.155 8.607L597.536 8.46359C598.083 8.16479 598.627 6.58171 598.835 5.915L598.903 5.70129L598.735 5.54789C598.669 5.48478 598.268 5.15682 596.81 4.61634C595.327 4.06468 593.226 3.97839 593.226 3.97839L592.19 3.974C586.778 3.974 584.712 7.29156 584.647 9.51978C584.602 11.7396 585.874 12.8821 587.797 13.9199C588.601 14.3625 590.07 14.7695 591.136 15.0656C591.13 15.0608 592.238 15.3867 592.238 15.3867C594.254 16.0159 595.025 16.7145 594.881 17.7983C594.817 18.1566 594.136 18.7494 592.588 18.7494C591.41 18.7494 590.346 18.5697 589.238 18.1858C588.706 17.9757 588.156 17.7044 587.574 17.3617L587.547 17.3441L587.487 17.3185C587.166 17.1995 586.877 17.1496 586.63 17.1703L586.204 17.2614C585.583 17.4923 584.719 19.0594 584.373 19.7221L584.237 19.9838L584.472 20.1687C584.514 20.1967 585.475 20.9561 586.292 21.431C587.254 21.9603 588.334 22.3438 589.609 22.5999C590.123 22.6929 590.939 22.8108 592.218 22.8108C596.411 22.8108 599.458 20.7004 599.808 17.5582C599.961 14.7072 598.2 12.8469 594.269 11.6821Z" fill="#DFDFDF" fill-opacity="0.5"/>
<path d="M603.233 4.01712C603.059 4.01432 602.144 4.0323 601.619 4.51565C601.376 4.73655 601.25 5.03176 601.25 5.36451L601.247 8.31057C601.247 8.31057 606.306 8.30657 606.969 8.30657C606.969 8.99925 606.969 22.6218 606.969 22.6218L611.655 22.6178C611.655 22.6178 611.655 8.99805 611.655 8.30657C612.28 8.30578 615.338 8.30578 615.338 8.30578C615.511 8.30578 616.424 8.2862 616.952 7.80525C617.191 7.57955 617.322 7.29113 617.322 6.95359V4.01712H603.233Z" fill="#DFDFDF" fill-opacity="0.5"/>
<path d="M522.838 18.4078C522.838 18.4078 518.903 18.4078 517.577 18.4078C517.577 17.7212 517.562 5.71564 517.562 5.71564C517.562 5.18874 517.404 4.7705 517.084 4.47809C516.575 4.00273 515.816 4.00513 515.533 4.01112L512.768 4.00513L512.775 22.6146H524.504L524.513 19.6574C524.513 19.2787 524.35 18.4078 522.838 18.4078Z" fill="#DFDFDF" fill-opacity="0.5"/>
<path d="M556.375 7.97303C557.512 7.89793 558.468 7.97303 559.371 8.2183C559.855 8.37889 560.293 8.41084 560.663 8.30698C560.665 8.30618 561.037 8.14201 561.037 8.14201C561.562 7.82084 561.938 6.18503 562.115 5.24229L562.156 5.02138L561.965 4.88477C561.917 4.85001 561.768 4.74655 560.069 4.29116C558.522 3.87692 557.145 3.82618 556.466 3.83098L556.392 3.83178C552.51 3.83178 546.664 6.37717 546.497 13.3858V13.4257C546.664 20.4367 552.51 22.9813 556.394 22.9813L556.466 22.9841C557.145 22.9869 558.52 22.9318 560.069 22.5184C561.768 22.067 561.917 21.9623 561.966 21.9268L562.156 21.7933L562.115 21.5712C561.938 20.6233 561.563 18.9911 561.038 18.6675V18.6651L560.665 18.5021C560.293 18.4015 559.855 18.4342 559.364 18.598C558.466 18.8377 557.51 18.9152 556.361 18.8401C553.421 18.5545 551.655 16.5667 551.522 13.3898C551.655 10.2436 553.421 8.25625 556.375 7.97303Z" fill="#DFDFDF" fill-opacity="0.5"/>
<path d="M631.208 22.6062C631.931 22.5902 633.161 22.1664 633.161 20.7367L633.147 18.4014L624.888 18.405C624.888 18.405 624.902 15.7286 624.902 15.2852C625.579 15.2852 631.72 15.2852 631.72 15.2852L631.708 10.9798C631.708 10.9798 625.588 10.987 624.914 10.987C624.912 10.478 624.914 8.82306 624.914 8.31095C625.589 8.31095 631.173 8.30336 631.173 8.30336C631.344 8.30615 632.279 8.30695 632.785 7.80522C633.139 7.4533 633.155 6.81255 633.155 6.479V4.02069H620.162L620.164 22.621L631.208 22.6062Z" fill="#DFDFDF" fill-opacity="0.5"/>
<path fill-rule="evenodd" clip-rule="evenodd" d="M767 23.4985C766.211 23.4985 765.543 23.1359 765.543 22.7073V5.16913C765.543 4.74056 766.211 4.37793 767 4.37793H770.157C770.946 4.37793 771.614 4.74056 771.614 5.16913V22.7073C771.614 23.1359 770.946 23.4985 770.157 23.4985H767Z" fill="#DFDFDF" fill-opacity="0.5"/>
<path fill-rule="evenodd" clip-rule="evenodd" d="M746.358 20.6304H742.229V7.27898H744.961C751.822 7.27898 755.889 9.8174 755.889 14.0371C755.889 18.5865 750.304 20.6304 746.358 20.6304ZM745.022 4.37793H737.554C736.765 4.37793 736.097 4.74056 736.097 5.16913V22.7073C736.097 23.1359 736.765 23.4985 737.554 23.4985H745.022C758.804 23.4985 761.657 18.3557 761.657 14.0371C761.718 8.16908 755.161 4.37793 745.022 4.37793Z" fill="#DFDFDF" fill-opacity="0.5"/>
<path fill-rule="evenodd" clip-rule="evenodd" d="M712.48 10.6416V22.7073C712.48 23.1359 711.812 23.4985 711.023 23.4985H707.805C707.015 23.4985 706.348 23.1359 706.348 22.7073V5.16913C706.408 4.74056 707.076 4.37793 707.865 4.37793H711.023C712.055 4.37793 712.601 4.47683 713.026 4.87243L725.351 17.0371V5.16913C725.351 4.74056 726.019 4.37793 726.808 4.37793H729.965C730.754 4.37793 731.422 4.74056 731.422 5.16913V22.7073C731.422 23.1359 730.754 23.4985 729.965 23.4985H726.929C725.897 23.4985 725.351 23.3996 724.926 23.004L712.48 10.6416Z" fill="#DFDFDF" fill-opacity="0.5"/>
<path fill-rule="evenodd" clip-rule="evenodd" d="M702.341 6.45482C702.341 6.88338 701.673 7.24602 700.884 7.24602H684.612V12.224H698.576C699.366 12.224 700.034 12.5866 700.034 13.0152V14.3009C700.034 14.7294 699.366 15.092 698.576 15.092H684.673V20.5645H700.823C701.612 20.5645 702.28 20.9271 702.28 21.3557V22.7073C702.28 23.1359 701.612 23.4985 700.823 23.4985H679.755C678.966 23.4985 678.298 23.1359 678.298 22.7073V5.16913C678.298 4.74056 678.966 4.37793 679.755 4.37793H700.884C701.673 4.37793 702.341 4.74056 702.341 5.16913V6.45482Z" fill="#DFDFDF" fill-opacity="0.5"/>
<path fill-rule="evenodd" clip-rule="evenodd" d="M651.22 5.16913C651.22 4.74056 651.888 4.37793 652.678 4.37793H673.684C674.474 4.37793 675.141 4.74056 675.141 5.16913V6.45482C675.141 6.88338 674.474 7.24602 673.684 7.24602H657.231V12.191H668.342C669.131 12.191 669.799 12.5536 669.799 12.9822V14.3668C669.799 14.7953 669.131 15.158 668.342 15.158H657.231V22.7403C657.231 23.1688 656.563 23.5315 655.774 23.5315H652.678C651.888 23.4985 651.22 23.1359 651.22 22.7073V5.16913Z" fill="#DFDFDF" fill-opacity="0.5"/>
</svg>
