<svg width="1410" height="51" viewBox="0 0 1410 51" fill="none" xmlns="http://www.w3.org/2000/svg">
<path fill-rule="evenodd" clip-rule="evenodd" d="M145 0L38.9507 45.3C30.1215 49.1 22.6812 51 16.7289 51C9.98304 51 5.12204 48.6 2.04671 43.8C-1.82226 37.6 -0.135787 27.7 6.5109 17.2C10.4791 11.1 15.5385 5.5 20.4987 0.1C19.3082 2 9.09021 19.2 20.3003 27.3C22.4828 28.9 25.6573 29.7 29.5263 29.7C32.6016 29.7 36.173 29.2 40.1411 28.2L145 0Z" fill="#DFDFDF" fill-opacity="0.5"/>
<path d="M187.032 33.94C185.27 31.1533 184.168 27.34 184.168 23.6733C184.168 20.08 185.123 16.6333 186.812 13.7L187.032 13.3333C188.721 9.96 192.466 7.68667 196.138 7.68667C198.561 7.68667 201.057 8.42 203.04 9.44667C206.638 11.6467 209.502 15.02 211.117 18.98V12.9667C211.117 11.6467 209.061 10.1067 209.061 10.1067C205.537 7.54 201.204 6 196.505 6C194.595 6 191.952 6.51333 191.952 6.51333C183.948 8.27333 178 15.3133 178 23.6733C178 32.62 184.756 40.0267 193.494 40.98C193.494 40.98 195.256 41.2733 196.505 41.2C201.571 41.2 206.271 39.44 209.943 36.4333L210.457 35.92C210.897 35.3333 211.191 34.6 211.191 33.8667V28.88C211.191 27.4133 211.925 26.0933 213.027 25.2867H203.554C204.656 26.0933 205.39 27.4133 205.39 28.88L205.463 33.5733C205.463 34.5267 205.096 35.3333 204.509 35.9933C203.774 36.8733 200.837 38.34 200.837 38.34C199.442 39.0733 197.826 39.5133 196.064 39.5133C192.099 39.3667 188.721 37.1667 187.032 33.94Z" fill="#DFDFDF" fill-opacity="0.5"/>
<path d="M282.346 23.6C282.346 31.96 288.294 38.8533 296.151 40.54C296.151 40.54 298.794 41.0533 300.704 41.0533C305.403 41.0533 309.662 39.5867 313.187 37.02C313.187 37.02 315.316 35.7 315.316 34.38L316.124 28C313.701 34.0133 309.589 36.2867 307.239 37.6067C305.256 38.6333 302.686 39.3667 300.337 39.3667C296.665 39.3667 292.92 37.3133 291.231 33.94L291.011 33.5733C289.322 30.64 288.367 27.2667 288.367 23.6C288.367 20.0067 289.322 16.56 291.011 13.6267L291.231 13.26C292.92 9.88667 296.665 7.61333 300.337 7.61333C302.76 7.61333 305.256 8.34667 307.239 9.37333C310.837 11.5733 313.701 14.9467 315.316 18.9067V12.8933C315.316 11.5733 313.26 10.0333 313.26 10.0333C309.736 7.46667 305.403 6 300.704 6C298.794 6 296.151 6.51333 296.151 6.51333C288.22 8.12667 282.346 15.1667 282.346 23.6Z" fill="#DFDFDF" fill-opacity="0.5"/>
<path d="M336.758 23.6C336.758 31.96 342.706 38.8533 350.563 40.54C350.563 40.54 353.207 41.0533 355.116 41.0533C359.816 41.0533 364.075 39.5867 367.6 37.02C367.6 37.02 369.729 35.7 369.729 34.3067L370.537 27.9267C368.114 33.94 364.001 36.2133 361.652 37.5333C359.669 38.56 357.099 39.2933 354.749 39.2933C351.078 39.2933 347.333 37.1667 345.644 33.8667L345.423 33.5C343.734 30.5667 342.78 27.1933 342.78 23.5267C342.78 19.9333 343.734 16.4867 345.423 13.5533L345.644 13.1867C347.333 9.81333 351.078 7.54 354.749 7.54C357.172 7.54 359.669 8.27333 361.652 9.3C365.25 11.5 368.114 14.8733 369.729 18.8333V12.9667C369.729 11.6467 367.673 10.1067 367.673 10.1067C364.222 7.54 359.889 6 355.19 6C353.28 6 350.637 6.51333 350.637 6.51333C342.706 8.2 336.758 15.24 336.758 23.6Z" fill="#DFDFDF" fill-opacity="0.5"/>
<path d="M398 7.54001H388.895C389.996 8.34668 390.73 9.59334 390.73 11.06V37.5333C390.73 38.9267 390.069 40.2467 388.968 40.98H397.853C396.825 40.1733 396.091 38.9267 396.091 37.5333V11.06C396.164 9.59334 396.825 8.27334 398 7.54001Z" fill="#DFDFDF" fill-opacity="0.5"/>
<path d="M240.71 7.54001H231.605C232.706 8.34668 233.441 9.66668 233.441 11.1333V30.9333C233.734 34.5267 236.011 37.6067 239.168 39.0733C241.738 40.32 244.602 41.0533 247.686 41.0533C250.77 41.0533 253.781 40.3933 256.351 39.0733H256.425C259.582 37.6067 261.858 34.5267 262.152 30.9333V10.9867C262.152 9.52001 262.886 8.27334 263.988 7.54001H258.701C259.802 8.34668 260.537 9.52001 260.537 10.9867V30.9333V31.0067C260.316 33.2067 259.215 35.1133 257.673 36.4333L257.599 36.5067C255.837 37.9 252.68 38.9267 249.669 38.9267C247.833 38.9267 246.071 38.56 244.382 37.9L244.235 37.8267C241.298 36.8 239.168 34.0867 238.801 30.86V30.7867V11.1333C238.801 9.59334 239.609 8.27334 240.71 7.54001Z" fill="#DFDFDF" fill-opacity="0.5"/>
<path d="M540.436 27.604C540.436 23.5774 545.17 20.3252 551.031 20.3252C556.891 20.3252 561.625 23.5774 561.625 27.604C561.625 31.6305 556.891 34.8827 551.031 34.8827C545.17 34.8827 540.436 31.708 540.436 27.604ZM583.715 27.604C583.715 23.5774 588.449 20.3252 594.309 20.3252C600.17 20.3252 604.904 23.5774 604.904 27.604C604.904 31.6305 600.17 34.8827 594.309 34.8827C588.449 34.9602 583.715 31.708 583.715 27.604ZM483.295 27.604C483.295 23.5774 488.029 20.3252 493.889 20.3252C499.75 20.3252 504.484 23.5774 504.484 27.604C504.484 31.6305 499.75 34.8827 493.889 34.8827C488.029 34.9602 483.295 31.708 483.295 27.604ZM440.016 27.604C440.016 23.5774 444.75 20.3252 450.611 20.3252C456.471 20.3252 461.205 23.5774 461.205 27.604C461.205 31.6305 456.471 34.8827 450.611 34.8827C444.75 34.9602 440.016 31.708 440.016 27.604ZM527.588 14.6726H518.346V40.2257H527.588V14.6726ZM461.205 40.3031H470.447V14.75H461.205V16.8407C458.049 15.3695 454.33 14.5177 450.16 14.5177C439.566 14.4403 431 20.3252 431 27.604C431 34.9602 439.566 40.8451 450.273 40.8451C454.33 40.8451 458.162 39.9934 461.318 38.5221V40.3031H461.205ZM604.904 40.3031H614.145V14.75H604.904V16.8407C601.748 15.3695 598.029 14.5177 593.859 14.5177C583.264 14.5177 574.586 20.4027 574.586 27.7589C574.586 35.115 583.152 41 593.859 41C597.916 41 601.748 40.1482 604.904 38.677V40.3031ZM617.527 32.0177C617.865 37.2058 624.176 40.8451 634.996 40.8451C643.787 40.8451 651 38.2124 651 32.4823C651 28.4558 647.732 26.1327 640.18 25.1261L634.32 24.3518C630.488 23.8872 627.895 23.3451 627.895 21.7965C627.895 20.0929 630.488 19.3186 633.643 19.3186C638.264 19.3186 640.18 20.9447 640.293 22.8031H649.648C649.084 17.7699 643.336 14.4403 633.869 14.4403C624.176 14.4403 618.428 18.0796 618.428 22.8805C618.428 28.6881 625.303 29.6173 631.164 30.3916L636.01 31.0111C639.504 31.4757 641.082 32.1726 641.082 33.5664C641.082 34.8053 639.279 36.0442 635.221 36.0442C629.135 36.0442 627.219 33.8761 627.107 32.0177H617.527ZM504.484 6V16.7633C501.328 15.292 497.609 14.4403 493.439 14.4403C482.844 14.4403 474.166 20.3252 474.166 27.6814C474.279 34.9602 482.844 40.8451 493.551 40.8451C497.609 40.8451 501.441 39.9934 504.596 38.5221V40.3031H513.838V6H504.484ZM561.625 6V16.7633C558.469 15.292 554.75 14.4403 550.58 14.4403C539.986 14.4403 531.307 20.3252 531.307 27.6814C531.307 35.0376 539.873 40.9226 550.58 40.9226C554.637 40.9226 558.469 40.0708 561.625 38.5996V40.3805H570.867V6H561.625ZM518.346 6V12.3496H527.588V6" fill="#DFDFDF" fill-opacity="0.5"/>
<path fill-rule="evenodd" clip-rule="evenodd" d="M845.966 39.3387L837.512 27.4397C837.458 27.3858 837.458 27.332 837.458 27.2781C837.458 27.2243 837.458 27.1705 837.458 27.0628C837.458 27.0089 837.512 26.9551 837.566 26.9012C837.621 26.8474 837.675 26.8474 837.729 26.7936C839.626 26.2013 841.251 25.0168 842.443 23.4015C843.635 21.7862 844.232 19.9018 844.232 17.9635C844.232 17.9635 844.828 8.0027 832.744 8.0027C829.222 7.94885 825.7 8.70264 822.502 10.1564V10.6948C823.044 10.8563 823.532 11.2332 823.857 11.664C824.182 12.0947 824.399 12.687 824.399 13.2254V39.2849C824.453 39.8233 824.345 40.3079 824.074 40.7925C823.803 41.2771 823.478 41.654 822.99 41.8693V42.5154H830.305V41.8693C830.305 41.8693 829.222 41.2232 829.222 39.3387V28.0319C829.222 27.8704 829.276 27.7089 829.384 27.6012C829.493 27.4935 829.655 27.4397 829.818 27.4397H831.335C831.498 27.4397 831.66 27.4935 831.823 27.5473C831.985 27.6012 832.094 27.7627 832.202 27.8704L842.498 42.3001C842.552 42.3539 842.66 42.4616 842.714 42.5154C842.823 42.5693 842.877 42.5693 842.985 42.5693H848.783V41.9232C847.7 41.2771 846.724 40.3617 845.966 39.3387ZM831.768 24.8014H829.872C829.709 24.8014 829.547 24.7476 829.438 24.6399C829.33 24.5322 829.222 24.3707 829.222 24.2091V12.2562C829.222 11.987 829.33 11.7716 829.493 11.5563C829.655 11.3409 829.872 11.2332 830.143 11.2332C830.847 11.1255 831.552 11.0717 832.256 11.0717C836.374 11.0717 838.975 13.6023 838.975 17.9096C838.921 22.8092 836.103 24.8014 831.768 24.8014ZM754.66 27.4397L763.167 39.3387C763.872 40.4156 764.847 41.2771 765.985 41.8693V42.5154H760.187C760.079 42.5154 759.97 42.5154 759.916 42.4616C759.862 42.4077 759.754 42.3539 759.7 42.2462L749.404 27.8166C749.296 27.655 749.187 27.5473 749.025 27.4935C748.862 27.4397 748.7 27.3858 748.537 27.3858H747.074C746.911 27.3858 746.749 27.4397 746.64 27.5473C746.532 27.655 746.424 27.8166 746.424 27.9781V39.2849C746.424 41.1694 747.507 41.8155 747.507 41.8155V42.4616H740.192V41.8155C740.626 41.5463 741.005 41.1694 741.276 40.7386C741.547 40.2541 741.655 39.7695 741.601 39.2311V13.2254C741.601 12.687 741.384 12.0947 741.059 11.664C740.734 11.2332 740.246 10.8563 739.704 10.6948V10.1564C742.901 8.70264 746.369 7.94885 749.946 8.0027C762.03 8.0027 761.433 17.9635 761.433 17.9635C761.433 19.9018 760.837 21.8401 759.645 23.4015C758.453 24.9629 756.828 26.2013 754.931 26.7936C754.877 26.7936 754.823 26.8474 754.768 26.9012C754.714 26.9551 754.66 27.0089 754.66 27.0628C754.66 27.1166 754.606 27.1705 754.66 27.2781C754.606 27.332 754.66 27.3858 754.66 27.4397ZM747.074 24.8014H748.97C753.305 24.8014 756.177 22.8092 756.177 17.9635C756.177 13.6023 753.576 11.1255 749.458 11.1255C748.754 11.1255 748.049 11.1794 747.345 11.2871C747.074 11.3409 746.857 11.4486 746.695 11.6101C746.532 11.8255 746.424 12.0408 746.424 12.3101V24.1553C746.424 24.3168 746.478 24.4784 746.64 24.586C746.749 24.7476 746.911 24.8014 747.074 24.8014ZM701.936 24.1015C701.99 24.1553 702.044 24.2091 702.099 24.2091V24.263C705.404 25.6629 707.68 28.7857 707.68 32.9854C707.68 39.0157 703.182 42.5154 697.709 42.5154H684.488V41.9232C684.921 41.654 685.3 41.2771 685.571 40.7925C685.842 40.3617 685.951 39.8233 685.897 39.2849V13.4407C685.897 12.9023 685.68 12.3101 685.355 11.8793C685.03 11.4486 684.542 11.0717 684 10.9102V10.3717C686.222 9.07954 689.852 8.0027 694.133 8.0027C705.241 8.0027 704.645 17.1558 704.645 17.1558C704.7 18.3404 704.429 19.5249 703.995 20.6556C703.507 21.7863 702.857 22.7554 701.936 23.6169C701.882 23.6169 701.882 23.6707 701.828 23.7246C701.828 23.7784 701.828 23.8322 701.828 23.9399C701.828 23.9938 701.882 24.0476 701.936 24.1015ZM691.044 11.4486C690.882 11.664 690.773 11.8793 690.773 12.1485V22.7554C690.773 22.9169 690.828 23.0785 690.99 23.1861C691.099 23.2938 691.261 23.3477 691.424 23.3477H693.754C697.601 23.3477 700.202 21.3017 700.202 17.2635C700.202 13.2254 697.764 10.9102 693.916 10.9102C693.158 10.9102 692.453 10.964 691.695 11.0717C691.424 11.1255 691.207 11.2332 691.044 11.4486ZM691.64 39.931H695.433C699.606 39.931 702.369 37.2928 702.369 32.9854C702.369 28.5703 699.606 26.0398 695.433 26.0398H691.478C691.315 26.0398 691.153 26.0936 691.044 26.2013C690.936 26.309 690.828 26.4705 690.828 26.632V39.1234C690.828 39.3387 690.936 39.5541 691.099 39.7156C691.207 39.8233 691.424 39.931 691.64 39.931ZM786.847 24.263C786.793 24.2091 786.739 24.2091 786.685 24.1553C786.631 24.1015 786.631 24.0476 786.576 23.9938C786.576 23.9399 786.576 23.8861 786.576 23.7784C786.576 23.7246 786.631 23.6707 786.685 23.6169C787.552 22.8092 788.256 21.7863 788.744 20.6556C789.232 19.5249 789.448 18.3404 789.394 17.1558C789.394 17.1558 789.936 8.0027 778.882 8.0027C774.601 8.0027 770.97 9.07954 768.749 10.3717V10.9102C769.291 11.0717 769.778 11.4486 770.103 11.8793C770.429 12.3101 770.645 12.9023 770.645 13.4407V39.2849C770.7 39.8233 770.591 40.3079 770.32 40.7925C770.049 41.2232 769.724 41.654 769.236 41.8693V42.5154H782.404C787.931 42.5154 792.374 39.0157 792.374 32.9854C792.429 28.7857 790.153 25.7167 786.847 24.263ZM775.576 12.0947C775.576 11.8255 775.685 11.6101 775.847 11.3947C776.01 11.1794 776.227 11.0717 776.498 11.0717C777.256 10.964 778.015 10.9102 778.773 10.9102C782.621 10.9102 785.005 13.2254 785.005 17.2635C785.005 21.3017 782.404 23.3477 778.557 23.3477H776.227C776.064 23.3477 775.901 23.2938 775.793 23.1861C775.685 23.0785 775.576 22.9169 775.576 22.7554V12.0947ZM780.182 39.931H776.389C776.281 39.931 776.172 39.931 776.064 39.8772C775.956 39.8233 775.847 39.7695 775.793 39.7156C775.739 39.6618 775.631 39.5541 775.631 39.4464C775.576 39.3387 775.576 39.2311 775.576 39.1234V26.632C775.576 26.4705 775.631 26.309 775.793 26.2013C775.901 26.0936 776.064 26.0398 776.227 26.0398H780.182C784.355 26.0398 787.118 28.5703 787.118 32.9854C787.118 37.2928 784.355 39.931 780.182 39.931ZM729.734 9.13338V8.54112H735.532V9.18722C735.099 9.45643 734.719 9.83332 734.448 10.2641C734.232 10.6948 734.123 11.2332 734.123 11.7178V33.0392C734.123 39.3926 730.601 43 723.773 43C716.946 43 712.611 39.4464 712.611 33.0931V11.7716C712.665 11.2332 712.557 10.7486 712.286 10.2641C712.015 9.83332 711.69 9.40259 711.202 9.18722V8.54112H718.517V9.18722C718.517 9.18722 717.433 9.83332 717.433 11.7178V32.2316C717.433 37.6158 719.438 39.931 724.099 39.931C728.704 39.931 730.872 37.7235 730.872 32.8239V11.7178C730.818 9.77948 729.734 9.13338 729.734 9.13338ZM866.719 27.4397L875.172 39.3387C875.877 40.4156 876.852 41.2771 877.99 41.8693V42.5154H872.246C872.138 42.5154 872.03 42.5154 871.975 42.4616C871.867 42.4077 871.813 42.3539 871.759 42.2462L861.463 27.8166C861.355 27.655 861.246 27.5473 861.084 27.4935C860.921 27.4397 860.759 27.3858 860.596 27.3858H859.079C858.916 27.3858 858.754 27.4397 858.645 27.5473C858.537 27.655 858.483 27.8166 858.483 27.9781V39.2849C858.483 41.1694 859.566 41.8155 859.566 41.8155V42.4616H852.251V41.8155C852.685 41.5463 853.064 41.1694 853.335 40.7386C853.606 40.2541 853.714 39.7695 853.66 39.2311V13.2254C853.66 12.687 853.443 12.0947 853.118 11.664C852.793 11.2332 852.305 10.8563 851.764 10.6948V10.1564C854.961 8.70264 858.483 7.94885 862.005 8.0027C874.089 8.0027 873.493 17.9635 873.493 17.9635C873.493 19.9018 872.897 21.8401 871.704 23.4015C870.512 25.0168 868.887 26.2013 866.99 26.7936C866.936 26.7936 866.882 26.8474 866.828 26.9012C866.773 26.9551 866.719 27.0089 866.719 27.0628C866.719 27.1166 866.719 27.1705 866.719 27.2781C866.719 27.3858 866.665 27.3858 866.719 27.4397ZM859.079 24.8014H860.975C865.31 24.8014 868.182 22.8092 868.182 17.9635C868.182 13.6023 865.581 11.1255 861.463 11.1255C860.759 11.1255 860.054 11.1794 859.35 11.2871C859.079 11.3409 858.862 11.4486 858.699 11.6101C858.537 11.8255 858.429 12.0408 858.429 12.3101V24.1553C858.429 24.3168 858.483 24.4784 858.645 24.586C858.754 24.7476 858.916 24.8014 859.079 24.8014ZM897.552 8.48727V9.13338C897.552 9.13338 898.906 9.56411 897.768 11.664L891.212 23.2938C891.158 23.3477 891.103 23.4015 891.049 23.4554C890.995 23.5092 890.887 23.5092 890.833 23.5092C890.778 23.5092 890.67 23.5092 890.616 23.4554C890.562 23.4015 890.507 23.3477 890.453 23.2938L883.842 11.664C882.65 9.56411 884.059 9.13338 884.059 9.13338V8.48727H875.498V9.13338C876.69 9.6718 877.719 10.5333 878.315 11.664L887.148 27.2781C887.31 27.5473 887.365 27.8704 887.365 28.1934V39.2849C887.419 39.8233 887.31 40.3079 887.039 40.7925C886.768 41.2771 886.443 41.654 885.956 41.8693V42.5154H893.542V41.8693C893.108 41.6001 892.729 41.2232 892.458 40.7925C892.187 40.3079 892.079 39.8233 892.133 39.2849V28.2473C892.133 27.9242 892.241 27.6012 892.35 27.332L901.182 11.7178C901.833 10.5871 902.808 9.6718 904 9.18722V8.54112L897.552 8.48727ZM804.458 39.931H814.916C815.458 39.9848 815.946 39.8772 816.433 39.608C816.921 39.3926 817.3 39.0157 817.571 38.5311H818.222V42.5154H797.414V41.9232C797.847 41.654 798.227 41.2771 798.498 40.7925C798.768 40.3617 798.877 39.8233 798.823 39.2849V11.7178C798.877 11.1794 798.768 10.6948 798.498 10.2102C798.227 9.77948 797.901 9.34875 797.414 9.13338V8.54112H816.759V12.4716H816.108C815.837 12.0408 815.458 11.664 814.97 11.4486C814.483 11.2332 813.995 11.1255 813.453 11.1255H804.458C804.241 11.1255 804.025 11.2332 803.862 11.3947C803.7 11.5563 803.591 11.7716 803.591 11.987V22.9169C803.591 23.0785 803.645 23.24 803.808 23.3477C803.916 23.4554 804.079 23.5092 804.241 23.5092H809.931C811.882 23.5092 812.532 22.4324 812.532 22.4324H813.182V27.2243H812.532C812.532 27.2243 811.882 26.1475 809.931 26.1475H804.241C804.079 26.1475 803.916 26.2013 803.808 26.309C803.7 26.4167 803.591 26.5782 803.591 26.7397V39.1234C803.591 39.3387 803.7 39.5541 803.862 39.7156C804.025 39.8772 804.241 39.931 804.458 39.931Z" fill="#DFDFDF" fill-opacity="0.5"/>
<path d="M986.913 9.31086C986.385 7.91883 985.382 7.3188 983.545 7.29107C983.377 7.28596 974.879 7.2991 974.879 7.2991L962.299 41.3246C962.299 41.3246 968.418 41.3246 968.423 41.3246C968.95 41.3626 969.441 41.2801 969.882 41.083C971.074 40.5436 971.658 39.1713 971.828 38.7034C971.828 38.715 973.539 33.963 973.657 33.652C974.533 33.652 985.638 33.6477 986.312 33.6477C986.577 34.4492 988.883 41.3093 988.883 41.3093H997.17L991.914 24.7502L986.913 9.31086ZM984.361 26.6642C983.104 26.6642 976.328 26.6656 975.833 26.6656C976.753 24.164 979.043 17.8353 980.021 15.2732C980.866 17.8572 984.339 26.5802 984.361 26.6642Z" fill="#DFDFDF" fill-opacity="0.5"/>
<path d="M1046.55 7.02682H1046.54C1036.74 7.03996 1029.63 14.3498 1029.63 24.3998C1029.63 34.247 1036.9 41.6757 1046.55 41.6757C1056.19 41.6757 1063.75 34.0922 1063.75 24.3998C1063.75 14.6563 1056.19 7.02682 1046.55 7.02682ZM1046.79 34.0849C1041.79 34.0849 1037.88 29.792 1037.88 24.3079C1037.88 18.874 1041.71 14.7804 1046.78 14.7804C1051.82 14.7804 1055.48 18.7843 1055.48 24.3079C1055.48 29.8855 1051.74 34.0849 1046.79 34.0849Z" fill="#DFDFDF" fill-opacity="0.5"/>
<path d="M1085.93 21.3471L1085.61 21.2537C1085.62 21.2581 1082.42 20.2923 1082.41 20.2836L1081.93 20.1149C1079.32 19.1777 1077.47 18.3922 1077.47 16.882C1077.47 16.8447 1077.47 16.806 1077.47 16.771C1077.73 14.2651 1082.41 14.2381 1082.46 14.2381C1085.04 14.2381 1087.03 14.6308 1089.54 15.6345L1089.59 15.6542L1089.7 15.6856C1090.28 15.8024 1090.79 15.8184 1091.2 15.7279L1091.9 15.4658C1092.9 14.9198 1093.89 12.027 1094.27 10.8087L1094.4 10.4182L1094.09 10.1379C1093.97 10.0225 1093.24 9.42325 1090.57 8.43561C1087.86 7.42754 1084.02 7.26987 1084.02 7.26987L1082.13 7.26184C1072.24 7.26184 1068.47 13.3241 1068.35 17.3959C1068.27 21.4522 1070.59 23.5399 1074.1 25.4363C1075.57 26.2451 1078.26 26.989 1080.2 27.5299C1080.19 27.5211 1082.22 28.1167 1082.22 28.1167C1085.9 29.2664 1087.31 30.5431 1087.05 32.5235C1086.93 33.1783 1085.69 34.2615 1082.86 34.2615C1080.71 34.2615 1078.76 33.9331 1076.74 33.2316C1075.77 32.8476 1074.76 32.352 1073.7 31.7257L1073.65 31.6935L1073.54 31.6468C1072.95 31.4293 1072.42 31.338 1071.97 31.376L1071.19 31.5424C1070.06 31.9644 1068.48 34.828 1067.85 36.039L1067.6 36.5171L1068.03 36.8551C1068.1 36.9062 1069.86 38.2938 1071.35 39.1617C1073.11 40.1289 1075.08 40.8297 1077.41 41.2976C1078.35 41.4677 1079.85 41.683 1082.18 41.683C1089.85 41.683 1095.41 37.8266 1096.05 32.0848C1096.33 26.8751 1093.11 23.4757 1085.93 21.3471Z" fill="#DFDFDF" fill-opacity="0.5"/>
<path d="M1102.31 7.34069C1101.99 7.33558 1100.32 7.36843 1099.36 8.25168C1098.92 8.65534 1098.69 9.19478 1098.69 9.80284L1098.68 15.1863C1098.68 15.1863 1107.93 15.179 1109.14 15.179C1109.14 16.4447 1109.14 41.3378 1109.14 41.3378L1117.7 41.3305C1117.7 41.3305 1117.7 16.4425 1117.7 15.179C1118.84 15.1775 1124.43 15.1775 1124.43 15.1775C1124.75 15.1775 1126.42 15.1417 1127.38 14.2629C1127.82 13.8505 1128.06 13.3234 1128.06 12.7066V7.34069H1102.31Z" fill="#DFDFDF" fill-opacity="0.5"/>
<path d="M955.403 33.6374C955.403 33.6374 948.211 33.6374 945.788 33.6374C945.788 32.3826 945.761 10.4445 945.761 10.4445C945.761 9.48165 945.472 8.71738 944.888 8.18306C943.956 7.31441 942.57 7.31879 942.053 7.32974L937 7.31879L937.013 41.3246H958.446L958.462 35.9207C958.462 35.2287 958.165 33.6374 955.403 33.6374Z" fill="#DFDFDF" fill-opacity="0.5"/>
<path d="M1016.68 14.5695C1018.76 14.4322 1020.51 14.5695 1022.16 15.0177C1023.04 15.3111 1023.84 15.3695 1024.52 15.1797C1024.52 15.1782 1025.2 14.8782 1025.2 14.8782C1026.16 14.2913 1026.85 11.3022 1027.17 9.57947L1027.25 9.1758L1026.9 8.92616C1026.81 8.86265 1026.54 8.67359 1023.44 7.84144C1020.61 7.08447 1018.09 6.99177 1016.85 7.00053L1016.72 7.00199C1009.62 7.00199 998.941 11.6533 998.634 24.4604V24.5334C998.941 37.3449 1009.62 41.9947 1016.72 41.9947L1016.85 41.9998C1018.09 42.0049 1020.6 41.9042 1023.44 41.1487C1026.54 40.3238 1026.81 40.1326 1026.9 40.0676L1027.25 39.8238L1027.17 39.418C1026.85 37.6858 1026.16 34.7032 1025.21 34.1119V34.1075L1024.52 33.8097C1023.84 33.6257 1023.04 33.6856 1022.15 33.9849C1020.51 34.4229 1018.76 34.5645 1016.66 34.4272C1011.29 33.9053 1008.06 30.2731 1007.82 24.4677C1008.06 18.7185 1011.29 15.087 1016.68 14.5695Z" fill="#DFDFDF" fill-opacity="0.5"/>
<path d="M1153.43 41.3093C1154.75 41.2801 1157 40.5056 1157 37.8931L1156.97 33.6257L1141.88 33.6323C1141.88 33.6323 1141.91 28.7416 1141.91 27.9313C1143.15 27.9313 1154.37 27.9313 1154.37 27.9313L1154.34 20.0639C1154.34 20.0639 1143.16 20.077 1141.93 20.077C1141.93 19.147 1141.93 16.1228 1141.93 15.187C1143.16 15.187 1153.37 15.1731 1153.37 15.1731C1153.68 15.1783 1155.39 15.1797 1156.31 14.2629C1156.96 13.6198 1156.99 12.4489 1156.99 11.8394V7.34726H1133.25L1133.25 41.3363L1153.43 41.3093Z" fill="#DFDFDF" fill-opacity="0.5"/>
<path fill-rule="evenodd" clip-rule="evenodd" d="M1401.57 42.9398C1400.13 42.9398 1398.91 42.2771 1398.91 41.494V9.44578C1398.91 8.66265 1400.13 8 1401.57 8H1407.34C1408.78 8 1410 8.66265 1410 9.44578V41.494C1410 42.2771 1408.78 42.9398 1407.34 42.9398H1401.57Z" fill="#DFDFDF" fill-opacity="0.5"/>
<path fill-rule="evenodd" clip-rule="evenodd" d="M1363.85 37.6988H1356.3V13.3012H1361.3C1373.83 13.3012 1381.27 17.9398 1381.27 25.6506C1381.27 33.9639 1371.06 37.6988 1363.85 37.6988ZM1361.41 8H1347.76C1346.32 8 1345.1 8.66265 1345.1 9.44578V41.494C1345.1 42.2771 1346.32 42.9398 1347.76 42.9398H1361.41C1386.59 42.9398 1391.81 33.5422 1391.81 25.6506C1391.92 14.9277 1379.93 8 1361.41 8Z" fill="#DFDFDF" fill-opacity="0.5"/>
<path fill-rule="evenodd" clip-rule="evenodd" d="M1301.94 19.4458V41.494C1301.94 42.2771 1300.72 42.9398 1299.28 42.9398H1293.4C1291.96 42.9398 1290.74 42.2771 1290.74 41.494V9.44578C1290.85 8.66265 1292.07 8 1293.51 8H1299.28C1301.16 8 1302.16 8.18072 1302.94 8.90361L1325.46 31.1325V9.44578C1325.46 8.66265 1326.68 8 1328.12 8H1333.89C1335.34 8 1336.56 8.66265 1336.56 9.44578V41.494C1336.56 42.2771 1335.34 42.9398 1333.89 42.9398H1328.35C1326.46 42.9398 1325.46 42.759 1324.68 42.0361L1301.94 19.4458Z" fill="#DFDFDF" fill-opacity="0.5"/>
<path fill-rule="evenodd" clip-rule="evenodd" d="M1283.41 11.7952C1283.41 12.5783 1282.19 13.241 1280.75 13.241H1251.02V22.3374H1276.54C1277.98 22.3374 1279.2 23 1279.2 23.7831V26.1325C1279.2 26.9157 1277.98 27.5783 1276.54 27.5783H1251.13V37.5783H1280.64C1282.08 37.5783 1283.3 38.241 1283.3 39.0241V41.494C1283.3 42.2771 1282.08 42.9398 1280.64 42.9398H1242.14C1240.7 42.9398 1239.48 42.2771 1239.48 41.494V9.44578C1239.48 8.66265 1240.7 8 1242.14 8H1280.75C1282.19 8 1283.41 8.66265 1283.41 9.44578V11.7952Z" fill="#DFDFDF" fill-opacity="0.5"/>
<path fill-rule="evenodd" clip-rule="evenodd" d="M1190 9.44578C1190 8.66265 1191.22 8 1192.66 8H1231.05C1232.49 8 1233.71 8.66265 1233.71 9.44578V11.7952C1233.71 12.5783 1232.49 13.241 1231.05 13.241H1200.98V22.2771H1221.29C1222.73 22.2771 1223.95 22.9398 1223.95 23.7229V26.253C1223.95 27.0361 1222.73 27.6988 1221.29 27.6988H1200.98V41.5542C1200.98 42.3374 1199.76 43 1198.32 43H1192.66C1191.22 42.9398 1190 42.2771 1190 41.494V9.44578Z" fill="#DFDFDF" fill-opacity="0.5"/>
</svg>
