<svg width="813" height="20" viewBox="0 0 813 20" fill="none" xmlns="http://www.w3.org/2000/svg">
<path fill-rule="evenodd" clip-rule="evenodd" d="M17.3473 13.9891C17.3473 14.0392 17.2979 14.0894 17.2979 14.1395C15.7658 17.0978 12.7016 19.1535 9.19261 19.1535C4.1515 19.1535 0 14.8415 0 9.57677C0 4.31206 4.1515 0 9.19261 0C12.7016 0 15.7658 2.05575 17.2979 5.1143C17.3473 5.16444 17.3473 5.21458 17.3968 5.26472C17.3968 5.26472 14.4808 7.42075 14.4314 7.42075C14.4314 7.37061 14.382 7.32046 14.382 7.27032C13.5418 5.1143 11.5155 3.71037 9.19261 3.71037C6.07898 3.76051 3.55843 6.31766 3.55843 9.57677C3.55843 12.8359 6.12841 15.4432 9.19261 15.4432C11.4166 15.4432 13.3935 14.0392 14.2831 12.0336C14.3326 11.9835 14.3326 11.8832 14.382 11.8331L17.3473 13.9891Z" fill="#DFDFDF" fill-opacity="0.5"/>
<path fill-rule="evenodd" clip-rule="evenodd" d="M21.1559 0.126892H24.7144V6.84567H34.0058V0.126892H37.5643V18.779H34.0058V10.6062H24.7144V18.779H21.1559V0.126892Z" fill="#DFDFDF" fill-opacity="0.5"/>
<path fill-rule="evenodd" clip-rule="evenodd" d="M87.6137 18.779V0.126892H100.464V3.8874H91.1721V7.59778H99.7223V11.3081H91.1721V15.0185H101.749V18.7289H87.6137V18.779Z" fill="#DFDFDF" fill-opacity="0.5"/>
<path fill-rule="evenodd" clip-rule="evenodd" d="M106.802 18.779V0.126892H110.41V15.0687H120.394V18.779H106.802Z" fill="#DFDFDF" fill-opacity="0.5"/>
<path fill-rule="evenodd" clip-rule="evenodd" d="M68.2537 18.779H68.1549H64.6459V0.126892H64.893H69.6376L77.4958 11.3583V0.126892H81.0542V18.779H78.1877L68.2537 4.73979V18.779Z" fill="#DFDFDF" fill-opacity="0.5"/>
<path fill-rule="evenodd" clip-rule="evenodd" d="M51.1321 3.8874L47.9691 11.3583H54.394L51.1321 3.8874ZM46.3876 15.0687L44.7072 18.779H40.4568L48.6116 0.126892H53.6033L61.8074 18.779H57.5571L55.8767 15.0687H46.3876Z" fill="#DFDFDF" fill-opacity="0.5"/>
<path fill-rule="evenodd" clip-rule="evenodd" d="M138.453 0.613594H140.009H140.134H142.374C145.114 0.613594 147.417 4.58439 147.417 9.57908C147.417 14.4703 145.113 18.4411 142.374 18.5446H140.134H139.947H138.453V0.613594ZM140.134 2.75193V16.4053H141.939C144.429 16.3018 145.673 13.0435 145.673 9.67796C145.673 6.21263 144.428 3.3609 142.374 2.85081L140.134 2.75193ZM154.016 0.202375C157.378 0.202375 160.053 4.38017 160.053 9.57816C160.053 14.7715 157.377 18.9502 154.016 18.9502C150.716 18.9502 147.978 14.7724 147.978 9.57816C147.977 4.38109 150.716 0.202375 154.016 0.202375ZM154.016 2.44513C156.444 2.44513 158.435 5.60366 158.435 9.57908C158.435 13.4501 156.444 16.6086 154.016 16.6086C151.651 16.6086 149.658 13.4501 149.658 9.57908C149.658 5.60366 151.65 2.44513 154.016 2.44513ZM160.552 0.613594H162.17V16.4062H165.283V18.5446H162.17H161.424H160.552V0.613594ZM170.512 0.103498C171.757 0.103498 172.94 0.712471 173.935 1.73266V4.99469C173.125 3.3609 171.881 2.34163 170.512 2.34163C168.083 2.34163 166.154 5.60366 166.154 9.57908C166.154 13.4501 168.083 16.7084 170.512 16.7084C171.881 16.7084 173.126 15.6928 173.935 14.06V17.4218C172.939 18.442 171.756 19.0556 170.512 19.0556C167.212 19.0556 164.474 14.7734 164.474 9.58C164.474 4.38109 167.213 0.103498 170.512 0.103498ZM176.114 16.4053H180.036V18.5436H176.114H174.433V16.4053V10.0883V7.9453V2.64843V0.613594H176.114H180.036V2.64843H176.114V7.9453H180.036V10.0883H176.114V16.4053ZM186.199 17.322C186.012 17.6288 185.825 17.8321 185.576 18.0345C185.389 18.2378 185.141 18.3413 184.891 18.4401C184.829 18.4401 184.767 18.4401 184.705 18.5436C184.642 18.5436 184.58 18.5436 184.518 18.5436C184.331 18.5436 184.206 18.4401 184.019 18.4401C183.833 18.3413 183.708 18.2368 183.521 18.0345C183.397 17.8312 183.273 17.5244 183.148 17.2176C183.086 16.9154 183.024 16.6086 182.961 16.3018V16.1983C182.961 16.0994 182.961 16.0994 182.961 16.0994C182.961 15.9959 182.961 15.9959 182.961 15.9959C182.961 15.8971 182.961 15.8971 182.961 15.7926H183.024C183.024 15.6938 183.024 15.6938 183.024 15.6938C183.024 15.6938 183.024 15.6938 183.024 15.5903C183.085 15.0802 183.21 14.6745 183.459 14.2633C183.707 13.9611 183.956 13.6543 184.206 13.3475C184.082 13.0453 183.956 12.7385 183.832 12.4317C183.707 12.2284 183.645 11.8228 183.645 11.516V11.4125C183.645 11.3136 183.645 11.3136 183.645 11.2092C183.645 11.1057 183.645 11.1057 183.645 11.1057C183.707 11.1057 183.707 11.0068 183.707 11.0068C183.77 10.6011 183.895 10.2943 184.082 9.9866C184.33 9.7833 184.517 9.67981 184.766 9.67981C184.766 9.67981 184.766 9.67981 184.828 9.67981H184.89C184.89 9.67981 184.89 9.67981 184.953 9.67981C185.201 9.67981 185.513 9.88773 185.762 10.1899C185.949 10.4967 186.073 10.9024 186.073 11.5169C186.073 12.027 186.011 12.4327 185.824 12.7395C185.575 13.1451 185.389 13.4519 185.14 13.6552L186.322 15.9969C186.385 15.7936 186.509 15.5912 186.634 15.2844C186.758 15.0811 186.82 14.8787 186.946 14.6754L187.319 15.2844C187.257 15.4877 187.132 15.6947 187.07 15.898C187.008 16.1013 186.883 16.3037 186.758 16.507C186.758 16.507 186.758 16.507 186.696 16.6105C186.696 16.6105 186.696 16.7093 186.634 16.7093L187.505 18.3431H186.758L186.199 17.322ZM184.767 17.6288C184.954 17.6288 185.141 17.5253 185.327 17.322C185.452 17.1187 185.638 16.9163 185.763 16.7084C185.825 16.7084 185.825 16.7084 185.825 16.7084C185.825 16.7084 185.825 16.7084 185.888 16.6095L184.519 14.06C184.519 14.1635 184.519 14.1635 184.456 14.1635C184.394 14.2624 184.394 14.2624 184.394 14.2624C184.269 14.3659 184.207 14.4703 184.083 14.5691C183.957 14.7724 183.896 14.8759 183.834 15.0792C183.772 15.0792 183.772 15.1827 183.772 15.2825C183.71 15.386 183.71 15.4858 183.71 15.5893C183.647 15.6928 183.647 15.7926 183.647 15.7926C183.647 15.8961 183.647 15.9959 183.647 16.0994C183.647 16.5051 183.71 16.8119 183.897 17.2185C184.145 17.5253 184.332 17.6288 184.643 17.6288H184.706C184.706 17.6288 184.705 17.6288 184.767 17.6288ZM184.269 11.3117C184.269 11.4106 184.269 11.4106 184.269 11.4106V11.5141C184.269 11.7174 184.269 11.9198 184.332 12.1231C184.394 12.3264 184.519 12.5334 184.58 12.6332C184.642 12.7367 184.642 12.7367 184.705 12.8365L184.767 12.94H184.829C184.829 12.94 184.891 12.94 184.891 12.8365C185.016 12.7376 185.141 12.6332 185.266 12.4308C185.39 12.2275 185.452 12.0251 185.514 11.7183C185.514 11.6148 185.514 11.6148 185.514 11.6148C185.514 11.516 185.514 11.516 185.514 11.516C185.514 11.2092 185.452 11.0059 185.327 10.8035C185.202 10.7 185.079 10.6002 184.954 10.6002C184.891 10.6002 184.891 10.6002 184.891 10.6002C184.891 10.6002 184.891 10.6002 184.829 10.6002C184.705 10.6002 184.58 10.6002 184.455 10.8035C184.332 10.9005 184.269 11.1038 184.269 11.3117ZM196.283 0C198.462 0 200.392 1.83616 201.513 4.48552L200.081 5.70808C199.272 3.66862 197.902 2.34163 196.346 2.34163C193.856 2.34163 191.926 5.60366 191.926 9.57908C191.926 13.5499 193.856 16.7084 196.346 16.7084C198.4 16.7084 200.018 15.0792 200.144 11.6139H196.595V9.47558H200.018C200.018 9.47558 201.761 9.47558 201.887 9.47558C201.887 9.47558 201.887 3.97542 201.887 9.57908C201.887 15.1827 200.018 19.1535 196.284 19.1535C192.549 19.1535 190.183 14.8759 190.183 9.57908C190.183 4.27667 192.922 0 196.283 0ZM200.952 18.5446L205.497 0.613594H206.556L211.099 18.5446H209.356L208.112 13.4501H203.94L202.696 18.5446H200.952ZM204.564 11.2073L206.056 4.78677L207.489 11.2073H204.564ZM227.035 18.5446L231.518 0.613594H232.575L237.119 18.5446H235.377L234.133 13.4501H229.96L228.716 18.5446H227.035ZM230.584 11.2073L232.078 4.78677L233.572 11.2073H230.584ZM248.698 18.5446L253.243 0.613594H254.302L258.846 18.5446H257.102L255.796 13.4501H251.687L250.443 18.5446H248.698ZM252.309 11.2073L253.741 4.78677L255.235 11.2073H252.309ZM215.021 2.64843C216.142 2.85173 216.514 3.5642 216.514 5.40129C216.514 7.13395 215.767 8.04972 214.833 8.04972H213.402V2.64843H215.021ZM215.146 10.1881H215.207C216.017 10.1881 217.449 10.4949 217.449 13.4501C217.449 15.7917 216.204 16.4053 215.021 16.4053H215.269H213.401V10.1871H214.833H215.146V10.1881ZM213.03 18.5446H213.402H215.831C217.76 18.5446 219.193 16.4062 219.193 13.4501C219.193 11.1038 218.32 9.37578 217.075 8.66239C217.76 7.9453 218.134 6.62293 218.134 4.99376C218.134 2.34071 217.075 0.612668 215.395 0.612668C214.522 0.509173 213.589 0.612668 212.718 0.612668H212.655C212.655 0.612668 212.655 0.612668 212.593 0.612668H211.722V18.5436H213.03V18.5446ZM223.362 2.64843C224.421 2.85173 224.795 3.5642 224.856 5.40129C224.856 7.13395 224.109 8.04972 223.175 8.04972H221.743V2.64843H223.362ZM223.425 10.1881C223.487 10.1881 223.487 10.1881 223.487 10.1881C224.297 10.1881 225.727 10.4949 225.727 13.4501C225.727 15.7917 224.482 16.4053 223.3 16.4053H223.611H221.743V10.1871H223.175H223.425V10.1881ZM221.308 18.5446H221.743H224.172C226.102 18.5446 227.471 16.4062 227.471 13.4501C227.471 11.1038 226.6 9.37578 225.355 8.66239C226.102 7.9453 226.474 6.62293 226.474 4.99376C226.474 2.34071 225.355 0.612668 223.735 0.612668C222.802 0.509173 221.931 0.612668 220.996 0.612668C220.934 0.612668 220.934 0.612668 220.934 0.612668H220.872H220.001V18.5436H221.308V18.5446ZM237.867 0.613594H238.926L246.583 13.8567V0.613594H248.076V18.5446H246.956L239.423 5.40036V18.5446H237.867V0.613594Z" fill="#DFDFDF" fill-opacity="0.5"/>
<path d="M397.049 0.337583H395.522L395.3 0.71731V11.8558L387.498 0L387.276 0.337583V18.3116L387.498 18.6492H389.025L389.275 18.3116V7.00409L396.938 18.6492H397.299V0.71731L397.049 0.337583ZM358.51 0.71731V3.41754H360.509V18.6492H362.508V3.41712H364.285L364.535 3.03739V0.337583H358.732L358.51 0.71731ZM365.868 0.71731V3.41754H367.867V18.6492H369.866V3.41712H371.643L371.865 3.03739V0.337583H366.09L365.868 0.71731ZM278.905 0.337583H277.128L276.906 0.71731V18.6492H282.931V15.6114H278.905L278.905 0.337583ZM290.289 0.337583C289.097 0.337667 287.932 0.874705 286.941 1.88079C285.951 2.88687 285.178 4.3168 284.722 5.98978C284.266 7.66275 284.147 9.50362 284.38 11.2796C284.612 13.0556 285.186 14.6869 286.029 15.9673C286.871 17.2477 287.945 18.1196 289.114 18.4729C290.282 18.8261 291.494 18.6448 292.595 17.9518C293.696 17.2588 294.637 16.0853 295.299 14.5797C295.961 13.0741 296.314 11.304 296.314 9.49318C296.314 8.29081 296.158 7.10022 295.856 5.98938C295.553 4.87855 295.109 3.86923 294.549 3.01904C293.99 2.16886 293.326 1.49448 292.595 1.03439C291.864 0.574302 291.08 0.337527 290.289 0.337583ZM290.289 15.5692C289.49 15.5776 288.708 15.2248 288.042 14.5558C287.375 13.8868 286.855 12.9318 286.547 11.8123C286.239 10.6927 286.157 9.45918 286.311 8.26854C286.466 7.07791 286.85 5.98397 287.414 5.12583C287.979 4.2677 288.699 3.68415 289.482 3.44939C290.266 3.21463 291.078 3.33927 291.814 3.80746C292.551 4.27565 293.18 5.06623 293.62 6.07867C294.06 7.09111 294.292 8.27966 294.287 9.49318C294.287 11.1045 293.866 12.6499 293.116 13.7893C292.366 14.9287 291.349 15.5692 290.289 15.5692ZM379.251 0.337157C378.058 0.328813 376.891 0.858669 375.896 1.85959C374.902 2.86052 374.125 4.28747 373.665 5.95966C373.205 7.63185 373.081 9.47402 373.311 11.2528C373.54 13.0316 374.112 14.6669 374.953 15.9515C375.795 17.2362 376.868 18.1124 378.038 18.4692C379.207 18.8259 380.42 18.6471 381.523 17.9555C382.625 17.2639 383.568 16.0905 384.231 14.584C384.894 13.0775 385.249 11.3058 385.249 9.49318C385.249 7.07225 384.618 4.74985 383.494 3.03405C382.37 1.31825 380.844 0.348301 379.251 0.337157ZM379.251 15.5688C378.453 15.5771 377.67 15.2244 377.004 14.5554C376.338 13.8863 375.817 12.9313 375.509 11.8117C375.201 10.6922 375.119 9.4586 375.274 8.26796C375.428 7.07731 375.812 5.98337 376.377 5.12526C376.941 4.26714 377.661 3.68362 378.445 3.44891C379.228 3.2142 380.04 3.3389 380.777 3.80716C381.514 4.27541 382.142 5.06606 382.583 6.07856C383.023 7.09106 383.255 8.27965 383.25 9.49318C383.25 11.1045 382.828 12.6499 382.078 13.7893C381.329 14.9287 380.312 15.5688 379.251 15.5688ZM305.227 0.337157L305.005 0.674739V12.5306C305.005 13.3362 304.794 14.1089 304.419 14.6786C304.044 15.2483 303.536 15.5684 303.006 15.5684C302.473 15.5685 301.961 15.2498 301.582 14.6812C301.203 14.1127 300.986 13.3401 300.979 12.5306V0.675165L300.756 0.337583H299.202L298.98 0.675165V12.531C298.934 13.3741 299.003 14.2224 299.184 15.0225C299.365 15.8226 299.653 16.557 300.03 17.1794C300.407 17.8017 300.865 18.2985 301.375 18.6383C301.884 18.9781 302.435 19.1535 302.992 19.1535C303.548 19.1535 304.099 18.9781 304.609 18.6383C305.119 18.2985 305.577 17.8017 305.954 17.1794C306.331 16.557 306.619 15.8226 306.8 15.0225C306.98 14.2224 307.05 13.3741 307.004 12.531V0.675165L306.782 0.337583L305.227 0.337157ZM311.002 0.716884V18.6488H312.779L313.029 18.3112V0.337583H311.252L311.002 0.716884ZM347.376 0.337583L347.126 0.675165V12.531C347.126 13.3367 346.915 14.1094 346.54 14.6791C346.165 15.2488 345.657 15.5688 345.127 15.5688C344.596 15.5688 344.088 15.2488 343.713 14.6791C343.338 14.1094 343.128 13.3367 343.128 12.531V0.675165L342.878 0.337583H341.351L341.128 0.675165V12.531C341.082 13.3741 341.152 14.2224 341.333 15.0225C341.514 15.8226 341.802 16.557 342.179 17.1794C342.556 17.8017 343.014 18.2985 343.523 18.6383C344.033 18.9781 344.584 19.1535 345.141 19.1535C345.697 19.1535 346.248 18.9781 346.758 18.6383C347.268 18.2985 347.726 17.8017 348.103 17.1794C348.48 16.557 348.768 15.8226 348.948 15.0225C349.129 14.2224 349.199 13.3741 349.153 12.531V0.675165L348.903 0.337583H347.376ZM353.151 0.71731V18.6492H354.928L355.15 18.3116V0.337583H353.373L353.151 0.71731ZM320.554 8.10113C320.096 7.72819 319.651 7.31968 319.221 6.87723C318.777 6.41322 318.527 5.90663 318.555 5.10546C318.575 4.57531 318.727 4.07664 318.979 3.70899C319.232 3.34134 319.566 3.13177 319.915 3.12211C320.197 3.12208 320.473 3.24031 320.713 3.46374C320.953 3.68716 321.148 4.00708 321.276 4.38815H321.637L322.803 2.61595C322.474 1.91679 322.041 1.34585 321.539 0.949848C321.037 0.553847 320.481 0.344036 319.915 0.337583C319.03 0.293162 318.167 0.760508 317.5 1.64534C317.156 2.12305 316.88 2.70268 316.689 3.34855C316.498 3.99442 316.395 4.69286 316.389 5.40089C316.389 7.34168 317.083 8.94487 317.749 9.49318L319.887 11.3497C320.202 11.5537 320.46 11.9181 320.617 12.3801C320.775 12.8422 320.821 13.3731 320.748 13.8813C320.655 14.4643 320.42 14.9718 320.09 15.3009C319.76 15.63 319.36 15.7561 318.971 15.6535C318.471 15.5692 317.972 14.9784 317.722 14.7255L317.194 14.0499L315.695 16.4126C316.3 17.5499 317.142 18.3391 318.083 18.6492C318.467 18.7603 318.857 18.8167 319.249 18.8178C320.265 18.7957 321.236 18.1694 321.952 17.0732C322.668 15.9769 323.073 14.498 323.08 12.9533C323.08 9.87291 321.276 8.69201 320.554 8.10113ZM333.882 11.5187L330.855 0.337583H328.662L333.659 18.6492L333.882 18.9864L334.131 18.6492L339.102 0.337583H336.936L333.882 11.5187Z" fill="#DFDFDF" fill-opacity="0.5"/>
<path fill-rule="evenodd" clip-rule="evenodd" d="M511.74 0.0121886L529.577 18.5869L535.752 18.5876V18.721H516.098V18.5876H521.885L516.019 12.4794H504.113V12.4818L504.177 12.5529C504.652 13.092 504.888 13.6568 504.874 14.2255V16.5152C504.874 17.693 506.236 18.8868 508.838 18.8868C510.366 18.8868 511.586 18.6813 513.038 18.1743L513.245 18.2478C511.668 18.8833 509.758 19.1535 506.894 19.1535C504.732 19.1535 502.883 18.955 501.394 18.564L501.112 18.4867C499.153 17.9211 497.882 16.9969 497.334 15.739L497.247 15.536L497.156 15.2288L497.147 15.1759L493.864 18.5859H498.522V18.7196H488.776V18.5859H493.485L497.088 14.8412V14.8332C497.05 14.6122 497.027 14.3909 497.02 14.1694V12.5351C497.02 10.5257 493.107 9.37305 486.284 9.37305H479.577V18.5869H485.388V18.7203H462.677V18.5869H468.465L462.599 12.4787H446.321L440.51 18.5194L440.753 18.5041C448.383 18.0019 451.892 15.7783 451.94 13.4371H452.293V18.7203H415.358L442.775 0.760918H431.75C422.613 0.760918 418.477 3.4553 418.414 6.14132H418.061V0.626843H451.34L451.138 0.760918L423.928 18.5869H438.243C438.599 18.5869 438.953 18.5803 439.309 18.5695C439.546 18.5633 439.785 18.5542 440.028 18.5427L440.115 18.5392L457.955 0H458.308L458.32 0.0121886L472.337 14.6093V0.760918H466.566V0.625102H486.429C495.975 0.625102 502.64 2.49588 502.64 5.17598C502.64 7.13034 498.075 8.75247 491.285 9.2139L490.038 9.27449L491.294 9.32325C495.412 9.50329 498.682 9.98701 500.999 10.7605L501.015 10.766L511.375 0H511.727L511.74 0.0121886ZM503.94 12.3122L503.974 12.345H515.887L507.885 4.01214L501.299 10.8621L501.335 10.875L501.669 11.0018C502.638 11.3791 503.409 11.8242 503.94 12.3122ZM479.582 9.23897V0.760918H484.699C491.536 0.760918 495.146 2.29808 495.146 5.20454C495.146 8.29592 493.074 9.23897 486.284 9.23897H479.582ZM454.47 4.01214L446.451 12.3453H462.471L454.47 4.01214Z" fill="#DFDFDF" fill-opacity="0.5"/>
<path d="M671.367 0.362408L667.73 7.88643H667.618L663.982 0.362408H661.144L666.551 10.9967V18.8074H668.794V10.9967L674.205 0.362408H671.367ZM655.257 7.88643H648.789V0.346181H646.553V18.802H648.789V11.0994H655.257V18.802H657.49V0.346181H655.257V7.88643ZM623.853 0.362408H621.774V12.9656H621.718L614.48 0.362408H612.524V18.8074H614.599V6.15012H614.645L621.96 18.8074H623.853V0.362408ZM606.564 15.6052H599.155V11.094H604.475V7.89184H599.155V3.5159H606.564V0.362408H596.918V18.8074H606.564V15.6052ZM585.708 14.2096H585.649L582.069 0.362408H579.482L584.736 18.8074H586.597L591.854 0.362408H589.268L585.708 14.2096ZM572.192 18.8074H574.429V0.362408H572.192V18.8074ZM559.75 11.9703H563.579V15.1833C563.044 15.47 562.092 15.854 560.552 15.854C557.818 15.854 556.303 13.7336 556.303 9.58488C556.303 5.44153 557.825 3.31036 560.552 3.31036C563.327 3.31036 564.752 4.64099 565.543 5.65249V1.94727C564.664 0.832998 562.687 0 560.555 0C557.374 0 553.811 2.01218 553.811 9.57407C553.811 17.136 557.374 19.1535 560.555 19.1535C562.491 19.1535 564.514 18.4666 565.777 17.2279V8.76811H559.75V11.9703ZM629.176 9.57407C629.176 17.136 632.739 19.1481 635.92 19.1481C638.052 19.1481 640.029 18.3205 640.911 17.2009V13.4956C640.124 14.5071 638.696 15.8378 635.92 15.8378C633.194 15.8378 631.675 13.7174 631.675 9.57407C631.675 5.42531 633.194 3.30495 635.92 3.30495C638.696 3.30495 640.12 4.63558 640.911 5.64708V1.94727C640.026 0.832998 638.048 0 635.917 0C632.736 0 629.176 2.01218 629.176 9.57407Z" fill="#DFDFDF" fill-opacity="0.5"/>
<path d="M693.271 16.5481C693.271 17.4988 693.008 17.8509 692.527 17.8509H692.264V18.5198H700.146C703.298 18.5198 705.094 16.865 705.094 13.4146C705.094 10.8091 704.065 9.25993 701.547 8.7318C702.773 8.20367 703.846 6.86573 703.846 4.718C703.846 1.65484 701.941 0.387329 699.401 0.387329L692.264 0.422538V1.0915H692.527C693.008 1.0915 693.271 1.44359 693.271 2.39423V16.5481ZM695.263 2.04214H698.569C701.043 2.04214 701.875 2.92236 701.875 4.82363C701.875 6.76011 701.153 8.20367 698.438 8.20367H695.22L695.263 2.04214ZM699.379 9.89368C701.853 9.89368 702.882 11.5133 702.882 13.485C702.882 15.3158 702.138 16.5129 699.314 16.5129H695.263V9.89368H699.379Z" fill="#DFDFDF" fill-opacity="0.5"/>
<path d="M790.282 1.90131V9.36556H793.282C795.646 9.36556 796.763 7.95721 796.763 5.59823C796.763 3.27445 795.69 1.90131 793.216 1.90131H790.282ZM795.274 10.4218C796.675 10.5979 797.003 11.1964 797.529 12.5343L798.667 15.8792C799.259 17.2523 799.784 18.0269 800.944 18.0269V18.5198H799.543C798.886 18.5198 797.638 18.6607 796.938 17.2875L795.449 13.3089C794.924 12.1471 794.77 11.1964 793.019 11.1964H790.304V16.5481C790.304 17.4988 790.567 17.8509 791.048 17.8509H791.311V18.5198H787.326V17.8509H787.589C788.071 17.8509 788.334 17.4988 788.334 16.5481V2.42944C788.334 1.47881 788.071 1.12672 787.589 1.12672H787.326V0.422546H793.982C797.835 0.422546 798.93 2.95757 798.93 5.42218C798.886 8.20367 797.529 9.82328 795.274 10.4218Z" fill="#DFDFDF" fill-opacity="0.5"/>
<path d="M811.651 2.42944C811.651 1.47881 811.913 1.12672 812.395 1.12672H812.658V0.422546H808.673V1.09151H808.936C809.417 1.09151 809.68 1.4436 809.68 2.39423V16.5481C809.68 17.4988 809.417 17.8509 808.936 17.8509H808.673V18.5198H812.658V17.8509H812.395C811.913 17.8509 811.651 17.4988 811.651 16.5481V2.42944Z" fill="#DFDFDF" fill-opacity="0.5"/>
<path d="M734.694 0.422546V1.09151H734.431C733.95 1.09151 733.687 1.4436 733.687 2.39423V16.5129H739.379C740.321 16.4425 741.065 15.6679 741.481 14.5765L741.875 14.8229L740.715 18.555H730.709V17.8861H730.972C731.454 17.8861 731.717 17.534 731.717 16.5834V2.42944C731.717 1.47881 731.454 1.12672 730.972 1.12672H730.709V0.422546H734.694Z" fill="#DFDFDF" fill-opacity="0.5"/>
<path d="M724.294 0.422546V1.09151H724.032C723.44 1.09151 723.375 1.58443 723.112 2.35903L717.945 18.5198H716.281L711.114 2.35903C710.852 1.58443 710.786 1.09151 710.195 1.09151H709.932V0.422546H714.07V1.09151H713.807C713.26 1.09151 713.041 1.69006 713.304 2.49986L717.529 15.5623L721.689 2.49986C721.952 1.69006 721.733 1.09151 721.185 1.09151H720.923V0.422546H724.294Z" fill="#DFDFDF" fill-opacity="0.5"/>
<path d="M761.623 9.92886V10.5978H761.164C760.682 10.5978 760.419 10.9499 760.419 11.9005V15.2454C759.719 17.1466 757.464 19.1535 754.048 19.1535C749.188 19.1535 746.101 14.8229 746.101 9.50635C746.101 5.10526 749.013 0 753.983 0C756.785 0 758.843 1.58439 759.412 2.18294C759.412 2.25336 760.025 6.23194 760.025 6.23194L759.587 6.4784C759.587 6.4784 758.296 1.51397 754.245 1.47877C750.742 1.44356 748.356 5.52777 748.356 9.50635C748.356 13.8722 750.699 17.4987 754.245 17.4635C756.457 17.4635 758.536 15.5975 758.536 14.2947V11.9005C758.536 10.9499 758.274 10.5978 757.792 10.5978H757.332V9.92886H761.623Z" fill="#DFDFDF" fill-opacity="0.5"/>
<path d="M775.92 11.6541L773.205 3.16884L770.556 11.6541H775.92ZM780.912 17.8861V18.555H776.73V17.8861H776.993C777.54 17.8861 777.759 17.2875 777.496 16.4777L776.533 13.6962H769.899L769.002 16.4777C768.739 17.2875 768.958 17.8861 769.505 17.8861H769.768V18.555H766.309V17.8861H766.571C766.987 17.8861 767.163 17.6396 767.403 16.9354L772.811 0.457764H774.322L779.708 16.6186C779.751 16.7242 779.795 16.8298 779.817 16.9354C780.058 17.6396 780.233 17.8861 780.649 17.8861H780.912Z" fill="#DFDFDF" fill-opacity="0.5"/>
</svg>
