<svg width="1738" height="36" viewBox="0 0 1738 36" fill="none" xmlns="http://www.w3.org/2000/svg">
<path fill-rule="evenodd" clip-rule="evenodd" d="M31.6995 26.5628C31.6995 26.6544 31.6092 26.7461 31.6092 26.8377C28.8095 32.2435 23.2101 36 16.798 36C7.5862 36 0 28.1204 0 18.5C0 8.87959 7.5862 1 16.798 1C23.2101 1 28.8095 4.75655 31.6092 10.3456C31.6995 10.4372 31.6995 10.5288 31.7898 10.6204C31.7898 10.6204 26.4614 14.5602 26.3711 14.5602C26.3711 14.4686 26.2808 14.377 26.2808 14.2853C24.7455 10.3455 21.0427 7.78011 16.798 7.78011C11.1084 7.87173 6.50245 12.5445 6.50245 18.5C6.50245 24.4555 11.1987 29.2199 16.798 29.2199C20.862 29.2199 24.4745 26.6545 26.1001 22.9895C26.1904 22.8979 26.1904 22.7147 26.2808 22.623L31.6995 26.5628Z" fill="#DFDFDF" fill-opacity="0.5"/>
<path fill-rule="evenodd" clip-rule="evenodd" d="M38.6592 1.23181H45.1616V13.5093H62.1403V1.23181H68.6427V35.3156H62.1403V20.381H45.1616V35.3156H38.6592V1.23181Z" fill="#DFDFDF" fill-opacity="0.5"/>
<path fill-rule="evenodd" clip-rule="evenodd" d="M160.1 35.3156V1.23181H183.581V8.10354H166.602V14.8836H182.226V21.6637H166.602V28.4439H185.929V35.224H160.1V35.3156Z" fill="#DFDFDF" fill-opacity="0.5"/>
<path fill-rule="evenodd" clip-rule="evenodd" d="M195.164 35.3156V1.23181H201.757V28.5355H220V35.3156H195.164Z" fill="#DFDFDF" fill-opacity="0.5"/>
<path fill-rule="evenodd" clip-rule="evenodd" d="M124.723 35.3156H124.542H118.13V1.23181H118.581H127.251L141.611 21.7554V1.23181H148.113V35.3156H142.875L124.723 9.66113V35.3156Z" fill="#DFDFDF" fill-opacity="0.5"/>
<path fill-rule="evenodd" clip-rule="evenodd" d="M93.4356 8.10354L87.6556 21.7554H99.3962L93.4356 8.10354ZM84.7656 28.5355L81.695 35.3156H73.9282L88.8297 1.23181H97.9512L112.943 35.3156H105.176L102.106 28.5355H84.7656Z" fill="#DFDFDF" fill-opacity="0.5"/>
<path fill-rule="evenodd" clip-rule="evenodd" d="M253 2.12124H255.843H256.071H260.165C265.172 2.12124 269.38 9.37724 269.38 18.5042C269.38 27.4421 265.171 34.6981 260.165 34.8872H256.071H255.73H253V2.12124ZM256.071 6.02871V30.978H259.37C263.92 30.7889 266.194 24.8349 266.194 18.6849C266.194 12.3526 263.919 7.1415 260.165 6.20939L256.071 6.02871ZM281.439 1.36981C287.582 1.36981 292.471 9.00405 292.471 18.5025C292.471 27.9926 287.581 35.6285 281.439 35.6285C275.409 35.6285 270.406 27.9943 270.406 18.5025C270.405 9.00574 275.409 1.36981 281.439 1.36981ZM281.439 5.46808C285.876 5.46808 289.515 11.2398 289.515 18.5042C289.515 25.5778 285.876 31.3495 281.439 31.3495C277.117 31.3495 273.475 25.5778 273.475 18.5042C273.475 11.2398 277.116 5.46808 281.439 5.46808ZM293.382 2.12124H296.339V30.9797H302.027V34.8872H296.339H294.975H293.382V2.12124ZM311.583 1.18913C313.857 1.18913 316.02 2.30193 317.839 4.16616V10.127C316.358 7.1415 314.084 5.27896 311.583 5.27896C307.145 5.27896 303.619 11.2398 303.619 18.5042C303.619 25.5778 307.145 31.5319 311.583 31.5319C314.085 31.5319 316.359 29.6761 317.839 26.6923V32.8355C316.019 34.6998 313.856 35.821 311.583 35.821C305.553 35.821 300.55 27.9959 300.55 18.5059C300.55 9.00574 305.554 1.18913 311.583 1.18913ZM321.82 30.978H328.987V34.8855H321.82H318.749V30.978V19.4347V15.5187V5.83958V2.12124H321.82H328.987V5.83958H321.82V15.5187H328.987V19.4347H321.82V30.978ZM340.249 32.6532C339.908 33.2138 339.565 33.5853 339.11 33.9551C338.769 34.3266 338.315 34.5157 337.859 34.6964C337.745 34.6964 337.632 34.6964 337.518 34.8855C337.404 34.8855 337.29 34.8855 337.177 34.8855C336.835 34.8855 336.607 34.6964 336.266 34.6964C335.924 34.5157 335.696 34.3249 335.355 33.9551C335.128 33.5836 334.901 33.023 334.674 32.4623C334.559 31.9102 334.446 31.3495 334.332 30.7889V30.5998C334.332 30.4191 334.332 30.4191 334.332 30.4191C334.332 30.23 334.332 30.23 334.332 30.23C334.332 30.0493 334.332 30.0493 334.332 29.8585H334.446C334.446 29.6778 334.446 29.6778 334.446 29.6778C334.446 29.6778 334.446 29.6778 334.446 29.4887C334.558 28.5566 334.787 27.8153 335.241 27.0638C335.695 26.5116 336.15 25.951 336.606 25.3904C336.379 24.8382 336.15 24.2776 335.923 23.717C335.695 23.3455 335.582 22.6042 335.582 22.0436V21.8544C335.582 21.6738 335.582 21.6738 335.582 21.4829C335.582 21.2938 335.582 21.2938 335.582 21.2938C335.695 21.2938 335.695 21.1131 335.695 21.1131C335.81 20.3718 336.038 19.8112 336.379 19.2489C336.833 18.8774 337.175 18.6883 337.63 18.6883C337.63 18.6883 337.63 18.6883 337.743 18.6883H337.857C337.857 18.6883 337.857 18.6883 337.971 18.6883C338.425 18.6883 338.995 19.0682 339.451 19.6204C339.791 20.181 340.018 20.9223 340.018 22.0453C340.018 22.9774 339.906 23.7187 339.563 24.2793C339.108 25.0206 338.768 25.5812 338.313 25.9527L340.474 30.2317C340.588 29.8602 340.816 29.4904 341.044 28.9298C341.271 28.5583 341.384 28.1885 341.613 27.817L342.295 28.9298C342.181 29.3012 341.953 29.6795 341.84 30.051C341.727 30.4225 341.499 30.7923 341.271 31.1638C341.271 31.1638 341.271 31.1638 341.157 31.3529C341.157 31.3529 341.157 31.5336 341.044 31.5336L342.635 34.5191H341.271L340.249 32.6532ZM337.632 33.2138C337.973 33.2138 338.315 33.0247 338.655 32.6532C338.883 32.2817 339.224 31.9119 339.453 31.5319C339.565 31.5319 339.565 31.5319 339.565 31.5319C339.565 31.5319 339.565 31.5319 339.68 31.3512L337.178 26.6923C337.178 26.8815 337.178 26.8815 337.063 26.8815C336.95 27.0621 336.95 27.0621 336.95 27.0621C336.722 27.2513 336.608 27.4421 336.382 27.6228C336.152 27.9943 336.041 28.1834 335.926 28.5549C335.814 28.5549 335.814 28.744 335.814 28.9264C335.699 29.1155 335.699 29.2979 335.699 29.487C335.586 29.6761 335.586 29.8585 335.586 29.8585C335.586 30.0476 335.586 30.23 335.586 30.4191C335.586 31.1604 335.699 31.721 336.042 32.464C336.496 33.0247 336.837 33.2138 337.406 33.2138H337.52C337.52 33.2138 337.519 33.2138 337.632 33.2138ZM336.722 21.6704C336.722 21.8511 336.722 21.8511 336.722 21.8511V22.0402C336.722 22.4117 336.722 22.7815 336.836 23.153C336.95 23.5245 337.178 23.9027 337.29 24.0851C337.404 24.2742 337.404 24.2742 337.518 24.4566L337.632 24.6457H337.745C337.745 24.6457 337.859 24.6457 337.859 24.4566C338.087 24.2759 338.315 24.0851 338.543 23.7153C338.77 23.3438 338.884 22.974 338.997 22.4134C338.997 22.2242 338.997 22.2242 338.997 22.2242C338.997 22.0436 338.997 22.0436 338.997 22.0436C338.997 21.4829 338.883 21.1115 338.655 20.7416C338.427 20.5525 338.201 20.3701 337.973 20.3701C337.859 20.3701 337.859 20.3701 337.859 20.3701C337.859 20.3701 337.859 20.3701 337.745 20.3701C337.518 20.3701 337.29 20.3701 337.062 20.7416C336.836 20.9189 336.722 21.2904 336.722 21.6704ZM358.676 1C362.657 1 366.184 4.35528 368.232 9.19655L365.615 11.4306C364.137 7.70381 361.633 5.27896 358.79 5.27896C354.24 5.27896 350.714 11.2398 350.714 18.5042C350.714 25.7602 354.24 31.5319 358.79 31.5319C362.544 31.5319 365.501 28.5549 365.73 22.2226H359.246V18.3151H365.501C365.501 18.3151 368.686 18.3151 368.916 18.3151C368.916 18.3151 368.916 8.26444 368.916 18.5042C368.916 28.744 365.501 36 358.677 36C351.852 36 347.529 28.1834 347.529 18.5042C347.529 8.81493 352.533 1 358.676 1ZM367.207 34.8872L375.512 2.12124H377.447L385.749 34.8872H382.565L380.29 25.5778H372.668L370.394 34.8872H367.207ZM373.807 21.4796L376.535 9.74705L379.152 21.4796H373.807ZM414.87 34.8872L423.061 2.12124H424.993L433.297 34.8872H430.114L427.84 25.5778H420.216L417.941 34.8872H414.87ZM421.355 21.4796L424.084 9.74705L426.814 21.4796H421.355ZM454.455 34.8872L462.76 2.12124H464.695L473 34.8872H469.813L467.426 25.5778H459.917L457.643 34.8872H454.455ZM461.054 21.4796L463.671 9.74705L466.4 21.4796H461.054ZM392.916 5.83958C394.964 6.21108 395.645 7.513 395.645 10.87C395.645 14.0361 394.28 15.7096 392.573 15.7096H389.957V5.83958H392.916ZM393.144 19.617H393.256C394.736 19.617 397.352 20.1776 397.352 25.5778C397.352 29.8568 395.078 30.978 392.916 30.978H393.369H389.956V19.6153H392.572H393.144V19.617ZM389.277 34.8872H389.957H394.395C397.922 34.8872 400.539 30.9797 400.539 25.5778C400.539 21.2904 398.944 18.1327 396.67 16.8291C397.922 15.5187 398.605 13.1023 398.605 10.1253C398.605 5.27727 396.67 2.11955 393.599 2.11955C392.005 1.93043 390.3 2.11955 388.708 2.11955H388.592C388.592 2.11955 388.592 2.11955 388.48 2.11955H386.888V34.8855H389.277V34.8872ZM408.158 5.83958C410.093 6.21108 410.776 7.513 410.888 10.87C410.888 14.0361 409.523 15.7096 407.817 15.7096H405.2V5.83958H408.158ZM408.274 19.617C408.387 19.617 408.387 19.617 408.387 19.617C409.866 19.617 412.48 20.1776 412.48 25.5778C412.48 29.8568 410.205 30.978 408.045 30.978H408.613H405.2V19.6153H407.817H408.274V19.617ZM404.405 34.8872H405.2H409.639C413.165 34.8872 415.666 30.9797 415.666 25.5778C415.666 21.2904 414.074 18.1327 411.8 16.8291C413.165 15.5187 413.845 13.1023 413.845 10.1253C413.845 5.27727 411.8 2.11955 408.84 2.11955C407.135 1.93043 405.543 2.11955 403.834 2.11955C403.722 2.11955 403.722 2.11955 403.722 2.11955H403.608H402.017V34.8855H404.405V34.8872ZM434.663 2.12124H436.598L450.59 26.3208V2.12124H453.319V34.8872H451.272L437.507 10.8683V34.8872H434.663V2.12124Z" fill="#DFDFDF" fill-opacity="0.5"/>
<path d="M725.543 1.61688H722.753L722.347 2.31077V22.6646L708.09 1L707.683 1.61688V34.4615L708.089 35.0784H710.88L711.337 34.4615V13.7988L725.341 35.0784H726V2.31077L725.543 1.61688ZM655.119 2.31077V7.24501H658.772V35.0784H662.425V7.24423H665.673L666.129 6.55034V1.61688H655.525L655.119 2.31077ZM668.565 2.31077V7.24501H672.218V35.0784H675.871V7.24423H679.118L679.524 6.55034V1.61688H668.97L668.565 2.31077ZM509.653 1.61688H506.406L506 2.31077V35.0784H517.01V29.5273H509.654L509.653 1.61688ZM530.456 1.61688C528.278 1.61703 526.15 2.59838 524.339 4.43683C522.529 6.27528 521.117 8.88826 520.284 11.9454C519.451 15.0024 519.233 18.3663 519.658 21.6117C520.083 24.857 521.131 27.838 522.671 30.1777C524.211 32.5174 526.173 34.1107 528.308 34.7562C530.444 35.4017 532.658 35.0703 534.67 33.804C536.681 32.5377 538.401 30.3933 539.611 27.6421C540.82 24.8908 541.466 21.6562 541.466 18.3472C541.466 16.1501 541.181 13.9745 540.628 11.9446C540.075 9.91476 539.264 8.07038 538.241 6.51681C537.219 4.96325 536.005 3.73091 534.669 2.89018C533.333 2.04944 531.902 1.61678 530.456 1.61688ZM530.456 29.4503C528.996 29.4655 527.567 28.8209 526.35 27.5984C525.132 26.3759 524.181 24.6308 523.618 22.585C523.055 20.5392 522.905 18.2851 523.187 16.1094C523.469 13.9337 524.171 11.9347 525.203 10.3666C526.235 8.79853 527.55 7.73218 528.982 7.3032C530.414 6.87421 531.897 7.10198 533.244 7.95752C534.59 8.81306 535.738 10.2577 536.543 12.1078C537.348 13.9579 537.772 16.1297 537.762 18.3472C537.762 21.2917 536.992 24.1156 535.622 26.1977C534.252 28.2798 532.393 29.4503 530.456 29.4503ZM693.02 1.6161C690.841 1.60085 688.707 2.56908 686.89 4.39811C685.072 6.22714 683.653 8.83466 682.812 11.8903C681.971 14.946 681.746 18.3122 682.165 21.5627C682.584 24.8131 683.628 27.8013 685.166 30.1489C686.704 32.4964 688.666 34.0975 690.803 34.7494C692.94 35.4013 695.156 35.0746 697.171 33.8108C699.186 32.5469 700.908 30.4027 702.12 27.6499C703.332 24.897 703.979 21.6594 703.98 18.3472C703.98 13.9234 702.827 9.67958 700.773 6.54423C698.719 3.40889 695.931 1.63646 693.02 1.6161ZM693.02 29.4495C691.561 29.4647 690.132 28.8201 688.914 27.5976C687.696 26.3751 686.746 24.6299 686.183 22.584C685.619 20.5382 685.469 18.2841 685.752 16.1084C686.034 13.9326 686.736 11.9336 687.768 10.3656C688.8 8.79751 690.115 7.73122 691.547 7.30233C692.979 6.87343 694.462 7.1013 695.808 7.95696C697.155 8.81262 698.303 10.2574 699.108 12.1076C699.912 13.9578 700.336 16.1297 700.326 18.3472C700.326 21.2917 699.557 24.1156 698.186 26.1977C696.816 28.2798 694.958 29.4495 693.02 29.4495ZM557.753 1.6161L557.347 2.23298V23.8976C557.347 25.3698 556.962 26.7818 556.277 27.8228C555.592 28.8639 554.662 29.4487 553.694 29.4487C552.72 29.4488 551.785 28.8665 551.092 27.8276C550.399 26.7887 550.003 25.3769 549.99 23.8976V2.23375L549.584 1.61688H546.743L546.337 2.23375V23.8984C546.253 25.4389 546.38 26.9892 546.71 28.4512C547.041 29.9132 547.567 31.2553 548.256 32.3925C548.945 33.5298 549.782 34.4376 550.713 35.0585C551.645 35.6794 552.651 36 553.668 36C554.686 36 555.692 35.6794 556.624 35.0585C557.555 34.4376 558.392 33.5298 559.081 32.3925C559.77 31.2553 560.296 29.9132 560.627 28.4512C560.957 26.9892 561.084 25.4389 561 23.8984V2.23375L560.594 1.61688L557.753 1.6161ZM568.306 2.30999V35.0776H571.554L572.01 34.4607V1.61688H568.763L568.306 2.30999ZM634.773 1.61688L634.316 2.23375V23.8984C634.316 25.3706 633.931 26.7826 633.246 27.8236C632.561 28.8646 631.632 29.4495 630.663 29.4495C629.694 29.4495 628.765 28.8646 628.08 27.8236C627.395 26.7826 627.01 25.3706 627.01 23.8984V2.23375L626.553 1.61688H623.763L623.357 2.23375V23.8984C623.273 25.4389 623.4 26.9892 623.731 28.4512C624.061 29.9132 624.587 31.2553 625.276 32.3925C625.965 33.5298 626.802 34.4376 627.734 35.0585C628.665 35.6794 629.671 36 630.689 36C631.706 36 632.712 35.6794 633.644 35.0585C634.575 34.4376 635.412 33.5298 636.101 32.3925C636.79 31.2553 637.316 29.9132 637.647 28.4512C637.977 26.9892 638.104 25.4389 638.02 23.8984V2.23375L637.564 1.61688H634.773ZM645.327 2.31077V35.0784H648.574L648.98 34.4615V1.61688H645.733L645.327 2.31077ZM585.76 15.8035C584.924 15.122 584.111 14.3755 583.325 13.567C582.513 12.7191 582.056 11.7934 582.107 10.3294C582.145 9.36064 582.422 8.44939 582.883 7.77757C583.344 7.10576 583.955 6.7228 584.593 6.70514C585.108 6.7051 585.612 6.92115 586.051 7.32942C586.49 7.73769 586.846 8.32228 587.079 9.01863H587.739L589.87 5.78022C589.269 4.50262 588.478 3.45932 587.561 2.73569C586.644 2.01207 585.627 1.62867 584.593 1.61688C582.976 1.53571 581.398 2.38971 580.179 4.0066C579.55 4.87953 579.046 5.93871 578.697 7.11893C578.348 8.29915 578.162 9.57545 578.149 10.8693C578.149 14.4157 579.418 17.3453 580.636 18.3472L584.542 21.7397C585.118 22.1125 585.589 22.7783 585.876 23.6227C586.164 24.4671 586.248 25.4371 586.115 26.3659C585.946 27.4311 585.516 28.3585 584.913 28.9599C584.31 29.5613 583.579 29.7916 582.868 29.6043C581.955 29.4503 581.042 28.3705 580.585 27.9085L579.621 26.6739L576.881 30.9913C577.986 33.0697 579.526 34.5117 581.244 35.0784C581.947 35.2814 582.66 35.3845 583.375 35.3864C585.233 35.346 587.006 34.2016 588.315 32.1984C589.624 30.1953 590.364 27.4927 590.377 24.67C590.377 19.0411 587.079 16.8832 585.76 15.8035ZM610.114 22.0485L604.584 1.61688H600.576L609.708 35.0784L610.114 35.6945L610.571 35.0784L619.653 1.61688H615.696L610.114 22.0485Z" fill="#DFDFDF" fill-opacity="0.5"/>
<path fill-rule="evenodd" clip-rule="evenodd" d="M935.122 1.02227L967.717 34.9646L979 34.9659V35.2096H943.087V34.9659H953.66L942.942 23.8041H921.185V23.8085L921.302 23.9384C922.17 24.9235 922.602 25.9556 922.575 26.9948V31.1789C922.575 33.3311 925.065 35.5125 929.82 35.5125C932.612 35.5125 934.84 35.1371 937.493 34.2105L937.872 34.3448C934.99 35.5062 931.5 36 926.267 36C922.317 36 918.937 35.6373 916.217 34.9226L915.702 34.7814C912.122 33.7479 909.798 32.059 908.798 29.7605L908.638 29.3895L908.472 28.8282L908.455 28.7315L902.457 34.9627H910.968V35.2071H893.16V34.9627H901.763L908.348 28.1199V28.1053C908.278 27.7015 908.236 27.297 908.223 26.8924V23.9059C908.223 20.2341 901.073 18.1277 888.605 18.1277H876.35V34.9646H886.968V35.2084H845.468V34.9646H856.043L845.325 23.8028H815.58L804.962 34.8412L805.405 34.8132C819.348 33.8955 825.76 29.8324 825.847 25.5541H826.493V35.2084H759L809.1 2.39045H788.953C772.257 2.39045 764.7 7.314 764.583 12.2223H763.938V2.14545H824.752L824.382 2.39045L774.66 34.9646H800.818C801.468 34.9646 802.115 34.9525 802.767 34.9328C803.2 34.9214 803.637 34.9048 804.08 34.8838L804.238 34.8775L836.838 1H837.483L837.505 1.02227L863.12 27.6961V2.39045H852.573V2.14227H888.87C906.315 2.14227 918.493 5.56082 918.493 10.4583C918.493 14.0295 910.152 16.9937 897.743 17.8369L895.465 17.9476L897.76 18.0367C905.285 18.3657 911.26 19.2496 915.495 20.663L915.523 20.6732L934.455 1H935.098L935.122 1.02227ZM920.868 23.4986L920.932 23.5585H942.7L928.078 8.33155L916.043 20.8488L916.108 20.8724L916.72 21.104C918.491 21.7935 919.899 22.6068 920.868 23.4986ZM876.358 17.8827V2.39045H885.71C898.203 2.39045 904.8 5.19936 904.8 10.5105C904.8 16.1595 901.013 17.8827 888.605 17.8827H876.358ZM830.47 8.33155L815.817 23.5591H845.092L830.47 8.33155Z" fill="#DFDFDF" fill-opacity="0.5"/>
<path d="M1226.81 1.66224L1220.17 15.4112H1219.96L1213.32 1.66224H1208.13L1218.01 21.0946V35.3674H1222.11V21.0946L1232 1.66224H1226.81ZM1197.38 15.4112H1185.56V1.63259H1181.47V35.3575H1185.56V21.2824H1197.38V35.3575H1201.46V1.63259H1197.38V15.4112ZM1139.99 1.66224H1136.19V24.6925H1136.09L1122.86 1.66224H1119.29V35.3674H1123.08V12.2384H1123.16L1136.53 35.3674H1139.99V1.66224ZM1108.4 29.516H1094.86V21.2725H1104.58V15.4211H1094.86V7.42474H1108.4V1.66224H1090.77V35.3674H1108.4V29.516ZM1070.29 26.9658H1070.18L1063.64 1.66224H1058.91L1068.51 35.3674H1071.91L1081.52 1.66224H1076.79L1070.29 26.9658ZM1045.59 35.3674H1049.68V1.66224H1045.59V35.3674ZM1022.85 22.8738H1029.85V28.745C1028.87 29.2689 1027.13 29.9706 1024.32 29.9706C1019.32 29.9706 1016.55 26.096 1016.55 18.5148C1016.55 10.9435 1019.34 7.04914 1024.32 7.04914C1029.39 7.04914 1031.99 9.48066 1033.44 11.329V4.55832C1031.83 2.52217 1028.22 1 1024.32 1C1018.51 1 1012 4.67693 1012 18.4951C1012 32.3132 1018.51 36 1024.32 36C1027.86 36 1031.56 34.7447 1033.87 32.4812V17.0223H1022.85V22.8738ZM1149.72 18.4951C1149.72 32.3132 1156.23 35.9901 1162.04 35.9901C1165.94 35.9901 1169.55 34.4778 1171.16 32.4318V25.6611C1169.72 27.5095 1167.11 29.941 1162.04 29.941C1157.06 29.941 1154.28 26.0664 1154.28 18.4951C1154.28 10.9139 1157.06 7.03925 1162.04 7.03925C1167.11 7.03925 1169.72 9.47077 1171.16 11.3191V4.55832C1169.54 2.52217 1165.93 1 1162.03 1C1156.22 1 1149.72 4.67693 1149.72 18.4951Z" fill="#DFDFDF" fill-opacity="0.5"/>
<path d="M1266.84 31.239C1266.84 32.9761 1266.36 33.6195 1265.48 33.6195H1265V34.8419H1279.4C1285.16 34.8419 1288.44 31.818 1288.44 25.5129C1288.44 20.7518 1286.56 17.9209 1281.96 16.9559C1284.2 15.9908 1286.16 13.5459 1286.16 9.62131C1286.16 4.02388 1282.68 1.7077 1278.04 1.7077L1265 1.77204V2.99447H1265.48C1266.36 2.99447 1266.84 3.63785 1266.84 5.37498V31.239ZM1270.48 4.7316H1276.52C1281.04 4.7316 1282.56 6.34006 1282.56 9.81432C1282.56 13.3529 1281.24 15.9908 1276.28 15.9908H1270.4L1270.48 4.7316ZM1278 19.079C1282.52 19.079 1284.4 22.0386 1284.4 25.6415C1284.4 28.9871 1283.04 31.1746 1277.88 31.1746H1270.48V19.079H1278Z" fill="#DFDFDF" fill-opacity="0.5"/>
<path d="M1444.11 4.47424V18.1139H1449.59C1453.91 18.1139 1455.95 15.5404 1455.95 11.2298C1455.95 6.98343 1453.99 4.47424 1449.47 4.47424H1444.11ZM1453.23 20.0441C1455.79 20.3658 1456.39 21.4595 1457.35 23.9044L1459.44 30.0165C1460.52 32.5257 1461.48 33.9412 1463.6 33.9412V34.8419H1461.04C1459.84 34.8419 1457.55 35.0992 1456.27 32.5901L1453.55 25.3198C1452.59 23.1967 1452.31 21.4595 1449.11 21.4595H1444.15V31.2389C1444.15 32.9761 1444.63 33.6195 1445.51 33.6195H1445.99V34.8419H1438.71V33.6195H1439.19C1440.07 33.6195 1440.55 32.9761 1440.55 31.2389V5.43931C1440.55 3.70218 1440.07 3.0588 1439.19 3.0588H1438.71V1.77203H1450.87C1457.91 1.77203 1459.92 6.40439 1459.92 10.9081C1459.84 15.9908 1457.35 18.9503 1453.23 20.0441Z" fill="#DFDFDF" fill-opacity="0.5"/>
<path d="M1483.16 5.43931C1483.16 3.70218 1483.64 3.0588 1484.52 3.0588H1485V1.77203H1477.72V2.99446H1478.2C1479.08 2.99446 1479.56 3.63784 1479.56 5.37497V31.2389C1479.56 32.9761 1479.08 33.6195 1478.2 33.6195H1477.72V34.8419H1485V33.6195H1484.52C1483.64 33.6195 1483.16 32.9761 1483.16 31.2389V5.43931Z" fill="#DFDFDF" fill-opacity="0.5"/>
<path d="M1342.53 1.77203V2.99446H1342.05C1341.17 2.99446 1340.69 3.63784 1340.69 5.37497V31.1746H1351.1C1352.82 31.0459 1354.18 29.6305 1354.94 27.636L1355.66 28.0864L1353.54 34.9062H1335.25V33.6838H1335.73C1336.61 33.6838 1337.09 33.0404 1337.09 31.3033V5.43931C1337.09 3.70218 1336.61 3.0588 1335.73 3.0588H1335.25V1.77203H1342.53Z" fill="#DFDFDF" fill-opacity="0.5"/>
<path d="M1323.53 1.77203V2.99446H1323.05C1321.97 2.99446 1321.85 3.8952 1321.37 5.31064L1311.93 34.8419H1308.89L1299.45 5.31064C1298.97 3.8952 1298.85 2.99446 1297.77 2.99446H1297.29V1.77203H1304.85V2.99446H1304.37C1303.37 2.99446 1302.97 4.08821 1303.45 5.56799L1311.17 29.4375L1318.77 5.56799C1319.25 4.08821 1318.85 2.99446 1317.85 2.99446H1317.37V1.77203H1323.53Z" fill="#DFDFDF" fill-opacity="0.5"/>
<path d="M1391.74 19.1434V20.3658H1390.9C1390.02 20.3658 1389.54 21.0092 1389.54 22.7463V28.8585C1388.26 32.3327 1384.14 36 1377.9 36C1369.02 36 1363.38 28.0864 1363.38 18.3713C1363.38 10.329 1368.7 1 1377.78 1C1382.9 1 1386.66 3.89522 1387.7 4.98897C1387.7 5.11765 1388.82 12.3879 1388.82 12.3879L1388.02 12.8382C1388.02 12.8382 1385.66 3.76654 1378.26 3.70221C1371.86 3.63787 1367.5 11.1011 1367.5 18.3713C1367.5 26.3493 1371.78 32.9761 1378.26 32.9118C1382.3 32.9118 1386.1 29.5018 1386.1 27.1213V22.7463C1386.1 21.0092 1385.62 20.3658 1384.74 20.3658H1383.9V19.1434H1391.74Z" fill="#DFDFDF" fill-opacity="0.5"/>
<path d="M1417.87 22.296L1412.91 6.79047L1408.07 22.296H1417.87ZM1426.99 33.6839V34.9063H1419.35V33.6839H1419.83C1420.83 33.6839 1421.23 32.5901 1420.75 31.1103L1418.99 26.0276H1406.87L1405.23 31.1103C1404.75 32.5901 1405.15 33.6839 1406.15 33.6839H1406.63V34.9063H1400.3V33.6839H1400.78C1401.54 33.6839 1401.86 33.2335 1402.31 31.9467L1412.19 1.83643H1414.95L1424.79 31.3677C1424.87 31.5607 1424.95 31.7537 1424.99 31.9467C1425.43 33.2335 1425.75 33.6839 1426.51 33.6839H1426.99Z" fill="#DFDFDF" fill-opacity="0.5"/>
<path fill-rule="evenodd" clip-rule="evenodd" d="M1614.28 6.61403H1610.75V2.41803H1614.28V6.61403ZM1614.28 34.4214H1610.75V10.7389H1614.28V34.4214Z" fill="#DFDFDF" fill-opacity="0.5"/>
<path fill-rule="evenodd" clip-rule="evenodd" d="M1621.9 34.4214H1618.44V10.7389H1621.9V14.7215C1623.15 11.8057 1626.06 9.95658 1629.18 10.2411C1635.63 10.2411 1638.68 15.0771 1638.68 21.1222V34.4925H1635.14V21.1222C1635.14 16.6417 1632.79 13.5836 1628.63 13.5836C1624.47 13.5836 1621.97 16.784 1621.97 21.3356L1621.9 34.4214Z" fill="#DFDFDF" fill-opacity="0.5"/>
<path fill-rule="evenodd" clip-rule="evenodd" d="M1658.97 19.2775L1654.81 24.1135V34.7813H1651V1H1654.81V18.993L1670.27 1H1674.84L1661.6 16.2905L1674.84 34.7813H1670.48L1658.97 19.2775Z" fill="#DFDFDF" fill-opacity="0.5"/>
<path fill-rule="evenodd" clip-rule="evenodd" d="M1680.13 34.4214H1676.59V0H1680.13V34.4214Z" fill="#DFDFDF" fill-opacity="0.5"/>
<path fill-rule="evenodd" clip-rule="evenodd" d="M1695.17 34.9904C1688.72 35.0615 1683.45 29.7987 1683.38 23.1847C1683.38 22.9713 1683.38 22.8291 1683.38 22.6157C1683.18 16.0017 1688.23 10.4544 1694.68 10.2411C1694.82 10.2411 1694.96 10.2411 1695.1 10.2411C1701.82 10.2411 1706.88 15.7883 1706.74 23.5403H1686.92C1687.2 28.3052 1691.22 32.0034 1695.93 31.6478C1698.98 31.4344 1701.61 29.6565 1703 26.8828H1706.46C1704.94 31.8611 1700.29 35.2037 1695.17 34.9904ZM1687.13 20.3399H1703C1702.44 16.3573 1699.05 13.4414 1695.1 13.5125C1691.22 13.5125 1687.82 16.3573 1687.13 20.3399Z" fill="#DFDFDF" fill-opacity="0.5"/>
<path fill-rule="evenodd" clip-rule="evenodd" d="M1713.6 6.61403H1710.07V2.41803H1713.6V6.61403ZM1713.6 34.4214H1710.07V10.7389H1713.6V34.4214Z" fill="#DFDFDF" fill-opacity="0.5"/>
<path fill-rule="evenodd" clip-rule="evenodd" d="M1721.23 34.4214H1717.69V10.7389H1721.23V14.7216C1721.64 13.4414 1723.65 10.2411 1728.5 10.2411C1734.95 10.2411 1738 15.0772 1738 21.1222V34.4925H1734.47V21.1222C1734.47 16.6418 1732.11 13.5837 1727.88 13.5837C1723.65 13.5837 1721.23 16.784 1721.23 21.3356V34.4214Z" fill="#DFDFDF" fill-opacity="0.5"/>
<path fill-rule="evenodd" clip-rule="evenodd" d="M1521.96 17.5663C1521.96 25.4605 1527.5 31.3633 1534.71 31.3633C1539.29 31.5767 1543.65 29.0875 1545.87 24.9626H1549.75C1548.71 28.163 1544.14 34.9903 1534.71 34.9903C1525.29 34.9903 1518.01 27.594 1518.01 17.4952C1517.73 8.10752 1524.94 0.284474 1534.09 0C1534.3 0 1534.5 0 1534.78 0C1544.21 0 1548.78 6.68515 1549.82 10.0988H1545.87C1543.65 5.97396 1539.36 3.48481 1534.78 3.62705C1527.5 3.69817 1521.96 9.67213 1521.96 17.5663Z" fill="#DFDFDF" fill-opacity="0.5"/>
<path fill-rule="evenodd" clip-rule="evenodd" d="M1563.48 34.9904C1556.96 34.9904 1551.69 29.5853 1551.69 22.9002C1551.69 22.8291 1551.69 22.6868 1551.69 22.6157C1551.48 15.9306 1556.61 10.3833 1563.13 10.2411C1563.27 10.2411 1563.34 10.2411 1563.48 10.2411C1567.01 10.0989 1570.27 12.0191 1571.86 15.2194V10.7389H1575.4V34.4214H1571.86V29.9409C1570.27 33.2124 1567.01 35.1326 1563.48 34.9904ZM1571.86 22.5446C1571.86 17.4241 1568.33 13.5125 1563.55 13.5125C1558.76 13.5125 1555.23 17.353 1555.23 22.5446C1555.23 27.7363 1558.76 31.5767 1563.55 31.5767C1568.33 31.5767 1571.86 27.6651 1571.86 22.5446Z" fill="#DFDFDF" fill-opacity="0.5"/>
<path fill-rule="evenodd" clip-rule="evenodd" d="M1583.02 34.4214H1579.49V0H1583.02V34.4214Z" fill="#DFDFDF" fill-opacity="0.5"/>
<path fill-rule="evenodd" clip-rule="evenodd" d="M1596.81 30.7943L1604.09 10.7389H1607.9L1598.96 34.4214H1594.6L1585.66 10.7389H1589.47L1596.81 30.7943Z" fill="#DFDFDF" fill-opacity="0.5"/>
</svg>
