<svg width="1485" height="35" viewBox="0 0 1485 35" fill="none" xmlns="http://www.w3.org/2000/svg">
<path fill-rule="evenodd" clip-rule="evenodd" d="M31.6995 25.5628C31.6995 25.6544 31.6092 25.7461 31.6092 25.8377C28.8095 31.2435 23.2101 35 16.798 35C7.5862 35 0 27.1204 0 17.5C0 7.87959 7.5862 0 16.798 0C23.2101 0 28.8095 3.75655 31.6092 9.34555C31.6995 9.43718 31.6995 9.52879 31.7898 9.62042C31.7898 9.62042 26.4614 13.5602 26.3711 13.5602C26.3711 13.4686 26.2808 13.377 26.2808 13.2853C24.7455 9.34555 21.0427 6.78011 16.798 6.78011C11.1084 6.87173 6.50245 11.5445 6.50245 17.5C6.50245 23.4555 11.1987 28.2199 16.798 28.2199C20.862 28.2199 24.4745 25.6545 26.1001 21.9895C26.1904 21.8979 26.1904 21.7147 26.2808 21.623L31.6995 25.5628Z" fill="#DFDFDF" fill-opacity="0.5"/>
<path fill-rule="evenodd" clip-rule="evenodd" d="M38.6592 0.231812H45.1616V12.5093H62.1403V0.231812H68.6427V34.3156H62.1403V19.381H45.1616V34.3156H38.6592V0.231812Z" fill="#DFDFDF" fill-opacity="0.5"/>
<path fill-rule="evenodd" clip-rule="evenodd" d="M160.1 34.3156V0.231812H183.581V7.10354H166.602V13.8836H182.226V20.6637H166.602V27.4439H185.929V34.224H160.1V34.3156Z" fill="#DFDFDF" fill-opacity="0.5"/>
<path fill-rule="evenodd" clip-rule="evenodd" d="M195.164 34.3156V0.231812H201.757V27.5355H220V34.3156H195.164Z" fill="#DFDFDF" fill-opacity="0.5"/>
<path fill-rule="evenodd" clip-rule="evenodd" d="M124.723 34.3156H124.542H118.13V0.231812H118.581H127.251L141.611 20.7554V0.231812H148.113V34.3156H142.875L124.723 8.66113V34.3156Z" fill="#DFDFDF" fill-opacity="0.5"/>
<path fill-rule="evenodd" clip-rule="evenodd" d="M93.4356 7.10354L87.6556 20.7554H99.3962L93.4356 7.10354ZM84.7656 27.5355L81.695 34.3156H73.9282L88.8297 0.231812H97.9512L112.943 34.3156H105.176L102.106 27.5355H84.7656Z" fill="#DFDFDF" fill-opacity="0.5"/>
<path fill-rule="evenodd" clip-rule="evenodd" d="M253 1.12124H255.843H256.071H260.165C265.172 1.12124 269.38 8.37724 269.38 17.5042C269.38 26.4421 265.171 33.6981 260.165 33.8872H256.071H255.73H253V1.12124ZM256.071 5.02871V29.978H259.37C263.92 29.7889 266.194 23.8349 266.194 17.6849C266.194 11.3526 263.919 6.1415 260.165 5.20939L256.071 5.02871ZM281.439 0.369807C287.582 0.369807 292.471 8.00405 292.471 17.5025C292.471 26.9926 287.581 34.6285 281.439 34.6285C275.409 34.6285 270.406 26.9943 270.406 17.5025C270.405 8.00574 275.409 0.369807 281.439 0.369807ZM281.439 4.46808C285.876 4.46808 289.515 10.2398 289.515 17.5042C289.515 24.5778 285.876 30.3495 281.439 30.3495C277.117 30.3495 273.475 24.5778 273.475 17.5042C273.475 10.2398 277.116 4.46808 281.439 4.46808ZM293.382 1.12124H296.339V29.9797H302.027V33.8872H296.339H294.975H293.382V1.12124ZM311.583 0.189125C313.857 0.189125 316.02 1.30193 317.839 3.16616V9.12698C316.358 6.1415 314.084 4.27896 311.583 4.27896C307.145 4.27896 303.619 10.2398 303.619 17.5042C303.619 24.5778 307.145 30.5319 311.583 30.5319C314.085 30.5319 316.359 28.6761 317.839 25.6923V31.8355C316.019 33.6998 313.856 34.821 311.583 34.821C305.553 34.821 300.55 26.9959 300.55 17.5059C300.55 8.00574 305.554 0.189125 311.583 0.189125ZM321.82 29.978H328.987V33.8855H321.82H318.749V29.978V18.4347V14.5187V4.83958V1.12124H321.82H328.987V4.83958H321.82V14.5187H328.987V18.4347H321.82V29.978ZM340.249 31.6532C339.908 32.2138 339.565 32.5853 339.11 32.9551C338.769 33.3266 338.315 33.5157 337.859 33.6964C337.745 33.6964 337.632 33.6964 337.518 33.8855C337.404 33.8855 337.29 33.8855 337.177 33.8855C336.835 33.8855 336.607 33.6964 336.266 33.6964C335.924 33.5157 335.696 33.3249 335.355 32.9551C335.128 32.5836 334.901 32.023 334.674 31.4623C334.559 30.9102 334.446 30.3495 334.332 29.7889V29.5998C334.332 29.4191 334.332 29.4191 334.332 29.4191C334.332 29.23 334.332 29.23 334.332 29.23C334.332 29.0493 334.332 29.0493 334.332 28.8585H334.446C334.446 28.6778 334.446 28.6778 334.446 28.6778C334.446 28.6778 334.446 28.6778 334.446 28.4887C334.558 27.5566 334.787 26.8153 335.241 26.0638C335.695 25.5116 336.15 24.951 336.606 24.3904C336.379 23.8382 336.15 23.2776 335.923 22.717C335.695 22.3455 335.582 21.6042 335.582 21.0436V20.8544C335.582 20.6738 335.582 20.6738 335.582 20.4829C335.582 20.2938 335.582 20.2938 335.582 20.2938C335.695 20.2938 335.695 20.1131 335.695 20.1131C335.81 19.3718 336.038 18.8112 336.379 18.2489C336.833 17.8774 337.175 17.6883 337.63 17.6883C337.63 17.6883 337.63 17.6883 337.743 17.6883H337.857C337.857 17.6883 337.857 17.6883 337.971 17.6883C338.425 17.6883 338.995 18.0682 339.451 18.6204C339.791 19.181 340.018 19.9223 340.018 21.0453C340.018 21.9774 339.906 22.7187 339.563 23.2793C339.108 24.0206 338.768 24.5812 338.313 24.9527L340.474 29.2317C340.588 28.8602 340.816 28.4904 341.044 27.9298C341.271 27.5583 341.384 27.1885 341.613 26.817L342.295 27.9298C342.181 28.3012 341.953 28.6795 341.84 29.051C341.727 29.4225 341.499 29.7923 341.271 30.1638C341.271 30.1638 341.271 30.1638 341.157 30.3529C341.157 30.3529 341.157 30.5336 341.044 30.5336L342.635 33.5191H341.271L340.249 31.6532ZM337.632 32.2138C337.973 32.2138 338.315 32.0247 338.655 31.6532C338.883 31.2817 339.224 30.9119 339.453 30.5319C339.565 30.5319 339.565 30.5319 339.565 30.5319C339.565 30.5319 339.565 30.5319 339.68 30.3512L337.178 25.6923C337.178 25.8815 337.178 25.8815 337.063 25.8815C336.95 26.0621 336.95 26.0621 336.95 26.0621C336.722 26.2513 336.608 26.4421 336.382 26.6228C336.152 26.9943 336.041 27.1834 335.926 27.5549C335.814 27.5549 335.814 27.744 335.814 27.9264C335.699 28.1155 335.699 28.2979 335.699 28.487C335.586 28.6761 335.586 28.8585 335.586 28.8585C335.586 29.0476 335.586 29.23 335.586 29.4191C335.586 30.1604 335.699 30.721 336.042 31.464C336.496 32.0247 336.837 32.2138 337.406 32.2138H337.52C337.52 32.2138 337.519 32.2138 337.632 32.2138ZM336.722 20.6704C336.722 20.8511 336.722 20.8511 336.722 20.8511V21.0402C336.722 21.4117 336.722 21.7815 336.836 22.153C336.95 22.5245 337.178 22.9027 337.29 23.0851C337.404 23.2742 337.404 23.2742 337.518 23.4566L337.632 23.6457H337.745C337.745 23.6457 337.859 23.6457 337.859 23.4566C338.087 23.2759 338.315 23.0851 338.543 22.7153C338.77 22.3438 338.884 21.974 338.997 21.4134C338.997 21.2242 338.997 21.2242 338.997 21.2242C338.997 21.0436 338.997 21.0436 338.997 21.0436C338.997 20.4829 338.883 20.1115 338.655 19.7416C338.427 19.5525 338.201 19.3701 337.973 19.3701C337.859 19.3701 337.859 19.3701 337.859 19.3701C337.859 19.3701 337.859 19.3701 337.745 19.3701C337.518 19.3701 337.29 19.3701 337.062 19.7416C336.836 19.9189 336.722 20.2904 336.722 20.6704ZM358.676 0C362.657 0 366.184 3.35528 368.232 8.19655L365.615 10.4306C364.137 6.70381 361.633 4.27896 358.79 4.27896C354.24 4.27896 350.714 10.2398 350.714 17.5042C350.714 24.7602 354.24 30.5319 358.79 30.5319C362.544 30.5319 365.501 27.5549 365.73 21.2226H359.246V17.3151H365.501C365.501 17.3151 368.686 17.3151 368.916 17.3151C368.916 17.3151 368.916 7.26444 368.916 17.5042C368.916 27.744 365.501 35 358.677 35C351.852 35 347.529 27.1834 347.529 17.5042C347.529 7.81493 352.533 0 358.676 0ZM367.207 33.8872L375.512 1.12124H377.447L385.749 33.8872H382.565L380.29 24.5778H372.668L370.394 33.8872H367.207ZM373.807 20.4796L376.535 8.74705L379.152 20.4796H373.807ZM414.87 33.8872L423.061 1.12124H424.993L433.297 33.8872H430.114L427.84 24.5778H420.216L417.941 33.8872H414.87ZM421.355 20.4796L424.084 8.74705L426.814 20.4796H421.355ZM454.455 33.8872L462.76 1.12124H464.695L473 33.8872H469.813L467.426 24.5778H459.917L457.643 33.8872H454.455ZM461.054 20.4796L463.671 8.74705L466.4 20.4796H461.054ZM392.916 4.83958C394.964 5.21108 395.645 6.513 395.645 9.86998C395.645 13.0361 394.28 14.7096 392.573 14.7096H389.957V4.83958H392.916ZM393.144 18.617H393.256C394.736 18.617 397.352 19.1776 397.352 24.5778C397.352 28.8568 395.078 29.978 392.916 29.978H393.369H389.956V18.6153H392.572H393.144V18.617ZM389.277 33.8872H389.957H394.395C397.922 33.8872 400.539 29.9797 400.539 24.5778C400.539 20.2904 398.944 17.1327 396.67 15.8291C397.922 14.5187 398.605 12.1023 398.605 9.1253C398.605 4.27727 396.67 1.11955 393.599 1.11955C392.005 0.930431 390.3 1.11955 388.708 1.11955H388.592C388.592 1.11955 388.592 1.11955 388.48 1.11955H386.888V33.8855H389.277V33.8872ZM408.158 4.83958C410.093 5.21108 410.776 6.513 410.888 9.86998C410.888 13.0361 409.523 14.7096 407.817 14.7096H405.2V4.83958H408.158ZM408.274 18.617C408.387 18.617 408.387 18.617 408.387 18.617C409.866 18.617 412.48 19.1776 412.48 24.5778C412.48 28.8568 410.205 29.978 408.045 29.978H408.613H405.2V18.6153H407.817H408.274V18.617ZM404.405 33.8872H405.2H409.639C413.165 33.8872 415.666 29.9797 415.666 24.5778C415.666 20.2904 414.074 17.1327 411.8 15.8291C413.165 14.5187 413.845 12.1023 413.845 9.1253C413.845 4.27727 411.8 1.11955 408.84 1.11955C407.135 0.930431 405.543 1.11955 403.834 1.11955C403.722 1.11955 403.722 1.11955 403.722 1.11955H403.608H402.017V33.8855H404.405V33.8872ZM434.663 1.12124H436.598L450.59 25.3208V1.12124H453.319V33.8872H451.272L437.507 9.86829V33.8872H434.663V1.12124Z" fill="#DFDFDF" fill-opacity="0.5"/>
<path d="M725.543 0.616877H722.753L722.347 1.31077V21.6646L708.09 0L707.683 0.616877V33.4615L708.089 34.0784H710.88L711.337 33.4615V12.7988L725.341 34.0784H726V1.31077L725.543 0.616877ZM655.119 1.31077V6.24501H658.772V34.0784H662.425V6.24423H665.673L666.129 5.55034V0.616877H655.525L655.119 1.31077ZM668.565 1.31077V6.24501H672.218V34.0784H675.871V6.24423H679.118L679.524 5.55034V0.616877H668.97L668.565 1.31077ZM509.653 0.616877H506.406L506 1.31077V34.0784H517.01V28.5273H509.654L509.653 0.616877ZM530.456 0.616877C528.278 0.617031 526.15 1.59838 524.339 3.43683C522.529 5.27528 521.117 7.88826 520.284 10.9454C519.451 14.0024 519.233 17.3663 519.658 20.6117C520.083 23.857 521.131 26.838 522.671 29.1777C524.211 31.5174 526.173 33.1107 528.308 33.7562C530.444 34.4017 532.658 34.0703 534.67 32.804C536.681 31.5377 538.401 29.3933 539.611 26.6421C540.82 23.8908 541.466 20.6562 541.466 17.3472C541.466 15.1501 541.181 12.9745 540.628 10.9446C540.075 8.91476 539.264 7.07038 538.241 5.51681C537.219 3.96325 536.005 2.73091 534.669 1.89018C533.333 1.04944 531.902 0.616775 530.456 0.616877ZM530.456 28.4503C528.996 28.4655 527.567 27.8209 526.35 26.5984C525.132 25.3759 524.181 23.6308 523.618 21.585C523.055 19.5392 522.905 17.2851 523.187 15.1094C523.469 12.9337 524.171 10.9347 525.203 9.36663C526.235 7.79853 527.55 6.73218 528.982 6.3032C530.414 5.87421 531.897 6.10198 533.244 6.95752C534.59 7.81306 535.738 9.25772 536.543 11.1078C537.348 12.9579 537.772 15.1297 537.762 17.3472C537.762 20.2917 536.992 23.1156 535.622 25.1977C534.252 27.2798 532.393 28.4503 530.456 28.4503ZM693.02 0.6161C690.841 0.600853 688.707 1.56908 686.89 3.39811C685.072 5.22714 683.653 7.83466 682.812 10.8903C681.971 13.946 681.746 17.3122 682.165 20.5627C682.584 23.8131 683.628 26.8013 685.166 29.1489C686.704 31.4964 688.666 33.0975 690.803 33.7494C692.94 34.4013 695.156 34.0746 697.171 32.8108C699.186 31.5469 700.908 29.4027 702.12 26.6499C703.332 23.897 703.979 20.6594 703.98 17.3472C703.98 12.9234 702.827 8.67958 700.773 5.54423C698.719 2.40889 695.931 0.636463 693.02 0.6161ZM693.02 28.4495C691.561 28.4647 690.132 27.8201 688.914 26.5976C687.696 25.3751 686.746 23.6299 686.183 21.584C685.619 19.5382 685.469 17.2841 685.752 15.1084C686.034 12.9326 686.736 10.9336 687.768 9.36557C688.8 7.79751 690.115 6.73122 691.547 6.30233C692.979 5.87343 694.462 6.1013 695.808 6.95696C697.155 7.81262 698.303 9.25741 699.108 11.1076C699.912 12.9578 700.336 15.1297 700.326 17.3472C700.326 20.2917 699.557 23.1156 698.186 25.1977C696.816 27.2798 694.958 28.4495 693.02 28.4495ZM557.753 0.6161L557.347 1.23298V22.8976C557.347 24.3698 556.962 25.7818 556.277 26.8228C555.592 27.8639 554.662 28.4487 553.694 28.4487C552.72 28.4488 551.785 27.8665 551.092 26.8276C550.399 25.7887 550.003 24.3769 549.99 22.8976V1.23375L549.584 0.616877H546.743L546.337 1.23375V22.8984C546.253 24.4389 546.38 25.9892 546.71 27.4512C547.041 28.9132 547.567 30.2553 548.256 31.3925C548.945 32.5298 549.782 33.4376 550.713 34.0585C551.645 34.6794 552.651 35 553.668 35C554.686 35 555.692 34.6794 556.624 34.0585C557.555 33.4376 558.392 32.5298 559.081 31.3925C559.77 30.2553 560.296 28.9132 560.627 27.4512C560.957 25.9892 561.084 24.4389 561 22.8984V1.23375L560.594 0.616877L557.753 0.6161ZM568.306 1.30999V34.0776H571.554L572.01 33.4607V0.616877H568.763L568.306 1.30999ZM634.773 0.616877L634.316 1.23375V22.8984C634.316 24.3706 633.931 25.7826 633.246 26.8236C632.561 27.8646 631.632 28.4495 630.663 28.4495C629.694 28.4495 628.765 27.8646 628.08 26.8236C627.395 25.7826 627.01 24.3706 627.01 22.8984V1.23375L626.553 0.616877H623.763L623.357 1.23375V22.8984C623.273 24.4389 623.4 25.9892 623.731 27.4512C624.061 28.9132 624.587 30.2553 625.276 31.3925C625.965 32.5298 626.802 33.4376 627.734 34.0585C628.665 34.6794 629.671 35 630.689 35C631.706 35 632.712 34.6794 633.644 34.0585C634.575 33.4376 635.412 32.5298 636.101 31.3925C636.79 30.2553 637.316 28.9132 637.647 27.4512C637.977 25.9892 638.104 24.4389 638.02 22.8984V1.23375L637.564 0.616877H634.773ZM645.327 1.31077V34.0784H648.574L648.98 33.4615V0.616877H645.733L645.327 1.31077ZM585.76 14.8035C584.924 14.122 584.111 13.3755 583.325 12.567C582.513 11.7191 582.056 10.7934 582.107 9.3294C582.145 8.36064 582.422 7.44939 582.883 6.77757C583.344 6.10576 583.955 5.7228 584.593 5.70514C585.108 5.7051 585.612 5.92115 586.051 6.32942C586.49 6.73769 586.846 7.32228 587.079 8.01863H587.739L589.87 4.78022C589.269 3.50262 588.478 2.45932 587.561 1.73569C586.644 1.01207 585.627 0.62867 584.593 0.616877C582.976 0.535705 581.398 1.38971 580.179 3.0066C579.55 3.87953 579.046 4.93871 578.697 6.11893C578.348 7.29915 578.162 8.57545 578.149 9.86926C578.149 13.4157 579.418 16.3453 580.636 17.3472L584.542 20.7397C585.118 21.1125 585.589 21.7783 585.876 22.6227C586.164 23.4671 586.248 24.4371 586.115 25.3659C585.946 26.4311 585.516 27.3585 584.913 27.9599C584.31 28.5613 583.579 28.7916 582.868 28.6043C581.955 28.4503 581.042 27.3705 580.585 26.9085L579.621 25.6739L576.881 29.9913C577.986 32.0697 579.526 33.5117 581.244 34.0784C581.947 34.2814 582.66 34.3845 583.375 34.3864C585.233 34.346 587.006 33.2016 588.315 31.1984C589.624 29.1953 590.364 26.4927 590.377 23.67C590.377 18.0411 587.079 15.8832 585.76 14.8035ZM610.114 21.0485L604.584 0.616877H600.576L609.708 34.0784L610.114 34.6945L610.571 34.0784L619.653 0.616877H615.696L610.114 21.0485Z" fill="#DFDFDF" fill-opacity="0.5"/>
<path fill-rule="evenodd" clip-rule="evenodd" d="M935.122 0.0222727L967.717 33.9646L979 33.9659V34.2096H943.087V33.9659H953.66L942.942 22.8041H921.185V22.8085L921.302 22.9384C922.17 23.9235 922.602 24.9556 922.575 25.9948V30.1789C922.575 32.3311 925.065 34.5125 929.82 34.5125C932.612 34.5125 934.84 34.1371 937.493 33.2105L937.872 33.3448C934.99 34.5062 931.5 35 926.267 35C922.317 35 918.937 34.6373 916.217 33.9226L915.702 33.7814C912.122 32.7479 909.798 31.059 908.798 28.7605L908.638 28.3895L908.472 27.8282L908.455 27.7315L902.457 33.9627H910.968V34.2071H893.16V33.9627H901.763L908.348 27.1199V27.1053C908.278 26.7015 908.236 26.297 908.223 25.8924V22.9059C908.223 19.2341 901.073 17.1277 888.605 17.1277H876.35V33.9646H886.968V34.2084H845.468V33.9646H856.043L845.325 22.8028H815.58L804.962 33.8412L805.405 33.8132C819.348 32.8955 825.76 28.8324 825.847 24.5541H826.493V34.2084H759L809.1 1.39045H788.953C772.257 1.39045 764.7 6.314 764.583 11.2223H763.938V1.14545H824.752L824.382 1.39045L774.66 33.9646H800.818C801.468 33.9646 802.115 33.9525 802.767 33.9328C803.2 33.9214 803.637 33.9048 804.08 33.8838L804.238 33.8775L836.838 0H837.483L837.505 0.0222727L863.12 26.6961V1.39045H852.573V1.14227H888.87C906.315 1.14227 918.493 4.56082 918.493 9.45827C918.493 13.0295 910.152 15.9937 897.743 16.8369L895.465 16.9476L897.76 17.0367C905.285 17.3657 911.26 18.2496 915.495 19.663L915.523 19.6732L934.455 0H935.098L935.122 0.0222727ZM920.868 22.4986L920.932 22.5585H942.7L928.078 7.33155L916.043 19.8488L916.108 19.8724L916.72 20.104C918.491 20.7935 919.899 21.6068 920.868 22.4986ZM876.358 16.8827V1.39045H885.71C898.203 1.39045 904.8 4.19936 904.8 9.51045C904.8 15.1595 901.013 16.8827 888.605 16.8827H876.358ZM830.47 7.33155L815.817 22.5591H845.092L830.47 7.33155Z" fill="#DFDFDF" fill-opacity="0.5"/>
<path d="M1226.81 0.662242L1220.17 14.4112H1219.96L1213.32 0.662242H1208.13L1218.01 20.0946V34.3674H1222.11V20.0946L1232 0.662242H1226.81ZM1197.38 14.4112H1185.56V0.63259H1181.47V34.3575H1185.56V20.2824H1197.38V34.3575H1201.46V0.63259H1197.38V14.4112ZM1139.99 0.662242H1136.19V23.6925H1136.09L1122.86 0.662242H1119.29V34.3674H1123.08V11.2384H1123.16L1136.53 34.3674H1139.99V0.662242ZM1108.4 28.516H1094.86V20.2725H1104.58V14.4211H1094.86V6.42474H1108.4V0.662242H1090.77V34.3674H1108.4V28.516ZM1070.29 25.9658H1070.18L1063.64 0.662242H1058.91L1068.51 34.3674H1071.91L1081.52 0.662242H1076.79L1070.29 25.9658ZM1045.59 34.3674H1049.68V0.662242H1045.59V34.3674ZM1022.85 21.8738H1029.85V27.745C1028.87 28.2689 1027.13 28.9706 1024.32 28.9706C1019.32 28.9706 1016.55 25.096 1016.55 17.5148C1016.55 9.94352 1019.34 6.04914 1024.32 6.04914C1029.39 6.04914 1031.99 8.48066 1033.44 10.329V3.55832C1031.83 1.52217 1028.22 0 1024.32 0C1018.51 0 1012 3.67693 1012 17.4951C1012 31.3132 1018.51 35 1024.32 35C1027.86 35 1031.56 33.7447 1033.87 31.4812V16.0223H1022.85V21.8738ZM1149.72 17.4951C1149.72 31.3132 1156.23 34.9901 1162.04 34.9901C1165.94 34.9901 1169.55 33.4778 1171.16 31.4318V24.6611C1169.72 26.5095 1167.11 28.941 1162.04 28.941C1157.06 28.941 1154.28 25.0664 1154.28 17.4951C1154.28 9.91387 1157.06 6.03925 1162.04 6.03925C1167.11 6.03925 1169.72 8.47077 1171.16 10.3191V3.55832C1169.54 1.52217 1165.93 0 1162.03 0C1156.22 0 1149.72 3.67693 1149.72 17.4951Z" fill="#DFDFDF" fill-opacity="0.5"/>
<path d="M1266.84 30.239C1266.84 31.9761 1266.36 32.6195 1265.48 32.6195H1265V33.8419H1279.4C1285.16 33.8419 1288.44 30.818 1288.44 24.5129C1288.44 19.7518 1286.56 16.9209 1281.96 15.9559C1284.2 14.9908 1286.16 12.5459 1286.16 8.62131C1286.16 3.02388 1282.68 0.707703 1278.04 0.707703L1265 0.772041V1.99447H1265.48C1266.36 1.99447 1266.84 2.63785 1266.84 4.37498V30.239ZM1270.48 3.7316H1276.52C1281.04 3.7316 1282.56 5.34006 1282.56 8.81432C1282.56 12.3529 1281.24 14.9908 1276.28 14.9908H1270.4L1270.48 3.7316ZM1278 18.079C1282.52 18.079 1284.4 21.0386 1284.4 24.6415C1284.4 27.9871 1283.04 30.1746 1277.88 30.1746H1270.48V18.079H1278Z" fill="#DFDFDF" fill-opacity="0.5"/>
<path d="M1444.11 3.47424V17.1139H1449.59C1453.91 17.1139 1455.95 14.5404 1455.95 10.2298C1455.95 5.98343 1453.99 3.47424 1449.47 3.47424H1444.11ZM1453.23 19.0441C1455.79 19.3658 1456.39 20.4595 1457.35 22.9044L1459.44 29.0165C1460.52 31.5257 1461.48 32.9412 1463.6 32.9412V33.8419H1461.04C1459.84 33.8419 1457.55 34.0992 1456.27 31.5901L1453.55 24.3198C1452.59 22.1967 1452.31 20.4595 1449.11 20.4595H1444.15V30.2389C1444.15 31.9761 1444.63 32.6195 1445.51 32.6195H1445.99V33.8419H1438.71V32.6195H1439.19C1440.07 32.6195 1440.55 31.9761 1440.55 30.2389V4.43931C1440.55 2.70218 1440.07 2.0588 1439.19 2.0588H1438.71V0.772034H1450.87C1457.91 0.772034 1459.92 5.40439 1459.92 9.90806C1459.84 14.9908 1457.35 17.9503 1453.23 19.0441Z" fill="#DFDFDF" fill-opacity="0.5"/>
<path d="M1483.16 4.43931C1483.16 2.70218 1483.64 2.0588 1484.52 2.0588H1485V0.772034H1477.72V1.99446H1478.2C1479.08 1.99446 1479.56 2.63784 1479.56 4.37497V30.2389C1479.56 31.9761 1479.08 32.6195 1478.2 32.6195H1477.72V33.8419H1485V32.6195H1484.52C1483.64 32.6195 1483.16 31.9761 1483.16 30.2389V4.43931Z" fill="#DFDFDF" fill-opacity="0.5"/>
<path d="M1342.53 0.772034V1.99446H1342.05C1341.17 1.99446 1340.69 2.63784 1340.69 4.37497V30.1746H1351.1C1352.82 30.0459 1354.18 28.6305 1354.94 26.636L1355.66 27.0864L1353.54 33.9062H1335.25V32.6838H1335.73C1336.61 32.6838 1337.09 32.0404 1337.09 30.3033V4.43931C1337.09 2.70218 1336.61 2.0588 1335.73 2.0588H1335.25V0.772034H1342.53Z" fill="#DFDFDF" fill-opacity="0.5"/>
<path d="M1323.53 0.772034V1.99446H1323.05C1321.97 1.99446 1321.85 2.8952 1321.37 4.31064L1311.93 33.8419H1308.89L1299.45 4.31064C1298.97 2.8952 1298.85 1.99446 1297.77 1.99446H1297.29V0.772034H1304.85V1.99446H1304.37C1303.37 1.99446 1302.97 3.08821 1303.45 4.56799L1311.17 28.4375L1318.77 4.56799C1319.25 3.08821 1318.85 1.99446 1317.85 1.99446H1317.37V0.772034H1323.53Z" fill="#DFDFDF" fill-opacity="0.5"/>
<path d="M1391.74 18.1434V19.3658H1390.9C1390.02 19.3658 1389.54 20.0092 1389.54 21.7463V27.8585C1388.26 31.3327 1384.14 35 1377.9 35C1369.02 35 1363.38 27.0864 1363.38 17.3713C1363.38 9.32904 1368.7 0 1377.78 0C1382.9 0 1386.66 2.89522 1387.7 3.98897C1387.7 4.11765 1388.82 11.3879 1388.82 11.3879L1388.02 11.8382C1388.02 11.8382 1385.66 2.76654 1378.26 2.70221C1371.86 2.63787 1367.5 10.1011 1367.5 17.3713C1367.5 25.3493 1371.78 31.9761 1378.26 31.9118C1382.3 31.9118 1386.1 28.5018 1386.1 26.1213V21.7463C1386.1 20.0092 1385.62 19.3658 1384.74 19.3658H1383.9V18.1434H1391.74Z" fill="#DFDFDF" fill-opacity="0.5"/>
<path d="M1417.87 21.296L1412.91 5.79047L1408.07 21.296H1417.87ZM1426.99 32.6839V33.9063H1419.35V32.6839H1419.83C1420.83 32.6839 1421.23 31.5901 1420.75 30.1103L1418.99 25.0276H1406.87L1405.23 30.1103C1404.75 31.5901 1405.15 32.6839 1406.15 32.6839H1406.63V33.9063H1400.3V32.6839H1400.78C1401.54 32.6839 1401.86 32.2335 1402.31 30.9467L1412.19 0.836426H1414.95L1424.79 30.3677C1424.87 30.5607 1424.95 30.7537 1424.99 30.9467C1425.43 32.2335 1425.75 32.6839 1426.51 32.6839H1426.99Z" fill="#DFDFDF" fill-opacity="0.5"/>
</svg>
