<svg width="1710" height="37" viewBox="0 0 1710 37" fill="none" xmlns="http://www.w3.org/2000/svg">
<path d="M1238.84 32.239C1238.84 33.9761 1238.36 34.6195 1237.48 34.6195H1237V35.8419H1251.4C1257.16 35.8419 1260.44 32.818 1260.44 26.5129C1260.44 21.7518 1258.56 18.9209 1253.96 17.9559C1256.2 16.9908 1258.16 14.5459 1258.16 10.6213C1258.16 5.02388 1254.68 2.7077 1250.04 2.7077L1237 2.77204V3.99447H1237.48C1238.36 3.99447 1238.84 4.63785 1238.84 6.37498V32.239ZM1242.48 5.7316H1248.52C1253.04 5.7316 1254.56 7.34006 1254.56 10.8143C1254.56 14.3529 1253.24 16.9908 1248.28 16.9908H1242.4L1242.48 5.7316ZM1250 20.079C1254.52 20.079 1256.4 23.0386 1256.4 26.6415C1256.4 29.9871 1255.04 32.1746 1249.88 32.1746H1242.48V20.079H1250Z" fill="#DFDFDF" fill-opacity="0.5"/>
<path d="M1416.11 5.47424V19.1139H1421.59C1425.91 19.1139 1427.95 16.5404 1427.95 12.2298C1427.95 7.98343 1425.99 5.47424 1421.47 5.47424H1416.11ZM1425.23 21.0441C1427.79 21.3658 1428.39 22.4595 1429.35 24.9044L1431.44 31.0165C1432.52 33.5257 1433.48 34.9412 1435.6 34.9412V35.8419H1433.04C1431.84 35.8419 1429.55 36.0992 1428.27 33.5901L1425.55 26.3198C1424.59 24.1967 1424.31 22.4595 1421.11 22.4595H1416.15V32.2389C1416.15 33.9761 1416.63 34.6195 1417.51 34.6195H1417.99V35.8419H1410.71V34.6195H1411.19C1412.07 34.6195 1412.55 33.9761 1412.55 32.2389V6.43931C1412.55 4.70218 1412.07 4.0588 1411.19 4.0588H1410.71V2.77203H1422.87C1429.91 2.77203 1431.92 7.40439 1431.92 11.9081C1431.84 16.9908 1429.35 19.9503 1425.23 21.0441Z" fill="#DFDFDF" fill-opacity="0.5"/>
<path d="M1455.16 6.43931C1455.16 4.70218 1455.64 4.0588 1456.52 4.0588H1457V2.77203H1449.72V3.99446H1450.2C1451.08 3.99446 1451.56 4.63784 1451.56 6.37497V32.2389C1451.56 33.9761 1451.08 34.6195 1450.2 34.6195H1449.72V35.8419H1457V34.6195H1456.52C1455.64 34.6195 1455.16 33.9761 1455.16 32.2389V6.43931Z" fill="#DFDFDF" fill-opacity="0.5"/>
<path d="M1314.53 2.77203V3.99446H1314.05C1313.17 3.99446 1312.69 4.63784 1312.69 6.37497V32.1746H1323.1C1324.82 32.0459 1326.18 30.6305 1326.94 28.636L1327.66 29.0864L1325.54 35.9062H1307.25V34.6838H1307.73C1308.61 34.6838 1309.09 34.0404 1309.09 32.3033V6.43931C1309.09 4.70218 1308.61 4.0588 1307.73 4.0588H1307.25V2.77203H1314.53Z" fill="#DFDFDF" fill-opacity="0.5"/>
<path d="M1295.53 2.77203V3.99446H1295.05C1293.97 3.99446 1293.85 4.8952 1293.37 6.31064L1283.93 35.8419H1280.89L1271.45 6.31064C1270.97 4.8952 1270.85 3.99446 1269.77 3.99446H1269.29V2.77203H1276.85V3.99446H1276.37C1275.37 3.99446 1274.97 5.08821 1275.45 6.56799L1283.17 30.4375L1290.77 6.56799C1291.25 5.08821 1290.85 3.99446 1289.85 3.99446H1289.37V2.77203H1295.53Z" fill="#DFDFDF" fill-opacity="0.5"/>
<path d="M1363.74 20.1434V21.3658H1362.9C1362.02 21.3658 1361.54 22.0092 1361.54 23.7463V29.8585C1360.26 33.3327 1356.14 37 1349.9 37C1341.02 37 1335.38 29.0864 1335.38 19.3713C1335.38 11.329 1340.7 2 1349.78 2C1354.9 2 1358.66 4.89522 1359.7 5.98897C1359.7 6.11765 1360.82 13.3879 1360.82 13.3879L1360.02 13.8382C1360.02 13.8382 1357.66 4.76654 1350.26 4.70221C1343.86 4.63787 1339.5 12.1011 1339.5 19.3713C1339.5 27.3493 1343.78 33.9761 1350.26 33.9118C1354.3 33.9118 1358.1 30.5018 1358.1 28.1213V23.7463C1358.1 22.0092 1357.62 21.3658 1356.74 21.3658H1355.9V20.1434H1363.74Z" fill="#DFDFDF" fill-opacity="0.5"/>
<path d="M1389.87 23.296L1384.91 7.79047L1380.07 23.296H1389.87ZM1398.99 34.6839V35.9063H1391.35V34.6839H1391.83C1392.83 34.6839 1393.23 33.5901 1392.75 32.1103L1390.99 27.0276H1378.87L1377.23 32.1103C1376.75 33.5901 1377.15 34.6839 1378.15 34.6839H1378.63V35.9063H1372.3V34.6839H1372.78C1373.54 34.6839 1373.86 34.2335 1374.31 32.9467L1384.19 2.83643H1386.95L1396.79 32.3677C1396.87 32.5607 1396.95 32.7537 1396.99 32.9467C1397.43 34.2335 1397.75 34.6839 1398.51 34.6839H1398.99Z" fill="#DFDFDF" fill-opacity="0.5"/>
<path d="M209.017 6.034H209.167C209.51 8.246 209.66 9.254 210.009 10.8593L212.037 21.7233H206.099L208.127 10.8593C208.424 9.254 208.624 8.246 209.017 6.034ZM214.407 34.531H220L212.977 0.665H205.356L198.282 34.5333H203.576L205.157 26.9547H212.826L214.407 34.531ZM186.16 34.9977C189.227 34.9977 192.196 33.9943 194.128 32.921V15.96H185.517V21.3897H189.032V28.9637C188.387 29.5003 187.296 29.8387 186.113 29.8387C182.452 29.8387 181.313 27.3583 181.313 20.1857V15.82C181.313 8.715 182.399 5.22667 185.764 5.22667C188.09 5.22667 188.885 7.37333 188.937 9.65533H194.231C194.172 3.68667 191.01 0 185.763 0C178.437 0 175.77 5.76333 175.77 15.0897V20.0527C175.718 30.1747 178.245 35 186.158 35M161.377 6.034H161.528C161.872 8.246 162.023 9.254 162.367 10.8593L164.398 21.7233H158.46L160.488 10.8593C160.784 9.254 160.982 8.246 161.377 6.034ZM166.77 34.5333H172.356L165.337 0.665H157.713L150.645 34.5333H155.939L157.52 26.9547H165.186L166.77 34.531V34.5333ZM140.052 34.5333H145.346V0.665H140.052V34.5333ZM125.508 35C131.393 35 134.264 31.3087 134.411 24.4113H129.071C128.972 27.762 128.178 29.8387 125.658 29.8387C122.791 29.8387 121.705 27.0923 121.705 20.0527V15.0897C121.705 7.98 122.791 5.30133 125.658 5.30133C128.332 5.30133 128.776 7.71633 128.872 10.2643H134.214C134.162 4.36333 131.691 0.14 125.51 0.14C118.632 0.14 116.112 5.97333 116.112 15.0897V20.0527C116.112 29.2367 118.63 35 125.508 35ZM89.6895 34.5333H94.392V14.8867C94.392 12.138 94.2889 8.785 94.1892 6.034H94.3439C95.083 9.52 95.4783 11.3307 96.1709 13.944L101.664 34.5333H109.381V0.665H104.68V19.5137C104.68 21.987 104.732 25.277 104.78 28.427H104.632C104.237 26.0773 103.886 23.73 102.848 19.9103L97.7041 0.667333H89.6431V34.5333H89.6895ZM68.1192 34.5333H82.5155V29.0967H73.413V19.7097H81.6716V14.217H73.4113V6.034H82.1683V0.602H68.1141V34.5287L68.1192 34.5333ZM48.7781 34.5333H62.6312V29.0967H54.0719V0.667333H48.7781V34.5333ZM32.3537 6.03167H32.5033C32.847 8.24367 33.0017 9.25167 33.3455 10.857L35.3736 21.721H29.4388L31.4669 10.857C31.7625 9.25167 31.9619 8.24367 32.3555 6.03167M37.7472 34.5333H43.3383L36.312 0.665H28.6945L21.6184 34.5333H26.9122L28.4934 26.9547H36.1642L37.7489 34.531L37.7472 34.5333ZM5.34188 29.3673V19.516H8.55938C11.2802 19.516 12.5641 21.1913 12.5641 24.472C12.5641 28.0887 10.8831 29.4373 8.45969 29.4373H5.34188V29.3673ZM5.34188 14.3477V5.83333H8.65906C11.0791 5.83333 12.1189 7.30333 12.1189 10.0567C12.1189 12.81 10.9381 14.35 8.70891 14.35L5.34188 14.3477ZM0.048125 34.5333H9.39812C14.6403 34.5333 17.8544 31.9783 17.8544 24.9433C17.8544 20.4493 15.9294 17.3693 12.3647 16.8933V16.6973C15.5272 15.96 17.4109 13.6127 17.4109 9.121C17.4109 3.283 14.9359 0.669667 9.64562 0.669667H0V34.5333H0.048125Z" fill="#DFDFDF" fill-opacity="0.5"/>
<path fill-rule="evenodd" clip-rule="evenodd" d="M349.28 6.61403H345.746V2.41803H349.28V6.61403ZM349.28 34.4214H345.746V10.7389H349.28V34.4214Z" fill="#DFDFDF" fill-opacity="0.5"/>
<path fill-rule="evenodd" clip-rule="evenodd" d="M356.905 34.4214H353.439V10.7389H356.905V14.7215C358.152 11.8057 361.063 9.95658 364.182 10.2411C370.628 10.2411 373.678 15.0771 373.678 21.1222V34.4925H370.143V21.1222C370.143 16.6417 367.786 13.5836 363.628 13.5836C359.469 13.5836 356.974 16.784 356.974 21.3356L356.905 34.4214Z" fill="#DFDFDF" fill-opacity="0.5"/>
<path fill-rule="evenodd" clip-rule="evenodd" d="M393.847 18.9176L389.689 23.7536V34.4214H385.876V0.640076H389.689V18.6331L405.145 0.640076H409.719L396.481 15.9306L409.719 34.4214H405.353L393.847 18.9176Z" fill="#DFDFDF" fill-opacity="0.5"/>
<path fill-rule="evenodd" clip-rule="evenodd" d="M415.125 34.4214H411.591V0H415.125V34.4214Z" fill="#DFDFDF" fill-opacity="0.5"/>
<path fill-rule="evenodd" clip-rule="evenodd" d="M430.166 34.9904C423.72 35.0615 418.452 29.7987 418.383 23.1847C418.383 22.9713 418.383 22.8291 418.383 22.6157C418.175 16.0017 423.235 10.4544 429.681 10.2411C429.819 10.2411 429.958 10.2411 430.097 10.2411C436.82 10.2411 441.879 15.7883 441.741 23.5403H421.918C422.195 28.3052 426.215 32.0034 430.928 31.6478C433.978 31.4344 436.612 29.6565 437.998 26.8828H441.464C439.939 31.8611 435.295 35.2037 430.166 34.9904ZM422.126 20.3399H437.998C437.444 16.3573 434.047 13.4414 430.097 13.5125C426.215 13.5125 422.819 16.3573 422.126 20.3399Z" fill="#DFDFDF" fill-opacity="0.5"/>
<path fill-rule="evenodd" clip-rule="evenodd" d="M448.603 6.61403H445.068V2.41803H448.603V6.61403ZM448.603 34.4214H445.068V10.7389H448.603V34.4214Z" fill="#DFDFDF" fill-opacity="0.5"/>
<path fill-rule="evenodd" clip-rule="evenodd" d="M456.227 34.4214H452.692V10.7389H456.227V14.7216C456.643 13.4414 458.653 10.2411 463.505 10.2411C469.951 10.2411 473 15.0772 473 21.1222V34.4925H469.465V21.1222C469.465 16.6418 467.109 13.5837 462.881 13.5837C458.653 13.5837 456.227 16.784 456.227 21.3356V34.4214Z" fill="#DFDFDF" fill-opacity="0.5"/>
<path fill-rule="evenodd" clip-rule="evenodd" d="M256.958 17.5663C256.958 25.4605 262.503 31.3633 269.712 31.3633C274.286 31.5767 278.653 29.0875 280.871 24.9626H284.752C283.712 28.163 279.138 34.9903 269.712 34.9903C260.285 34.9903 253.008 27.594 253.008 17.4952C252.73 8.10752 259.939 0.284474 269.088 0C269.296 0 269.504 0 269.781 0C279.207 0 283.782 6.68515 284.821 10.0988H280.871C278.653 5.97396 274.355 3.48481 269.781 3.62705C262.503 3.69817 256.958 9.67213 256.958 17.5663Z" fill="#DFDFDF" fill-opacity="0.5"/>
<path fill-rule="evenodd" clip-rule="evenodd" d="M298.476 34.9903C291.96 34.9903 286.693 29.5853 286.693 22.9001C286.693 22.829 286.693 22.6868 286.693 22.6157C286.485 15.9305 291.614 10.3833 298.129 10.241C298.268 10.241 298.337 10.241 298.476 10.241C302.011 10.0988 305.268 12.019 306.862 15.2193V10.7389H310.397V34.4214H306.862V29.9409C305.268 33.2123 302.011 35.1325 298.476 34.9903ZM306.862 22.5445C306.862 17.424 303.327 13.5125 298.545 13.5125C293.763 13.5125 290.228 17.3529 290.228 22.5445C290.228 27.7362 293.763 31.5766 298.545 31.5766C303.327 31.5766 306.862 27.6651 306.862 22.5445Z" fill="#DFDFDF" fill-opacity="0.5"/>
<path fill-rule="evenodd" clip-rule="evenodd" d="M318.021 34.4214H314.486V0H318.021V34.4214Z" fill="#DFDFDF" fill-opacity="0.5"/>
<path fill-rule="evenodd" clip-rule="evenodd" d="M331.814 30.7943L339.092 10.7389H342.904L333.963 34.4214H329.596L320.655 10.7389H324.467L331.814 30.7943Z" fill="#DFDFDF" fill-opacity="0.5"/>
<path d="M585.386 18.9584L593.105 5.14474L601.877 18.9584H585.386ZM623.632 32.4749L605.035 0.391663H592.403L574.158 32.1779C573.105 33.2919 572.403 34.0345 563.982 34.0345V34.6287H586.088V34.0345C579.772 34.0345 576.965 33.2919 577.667 32.4749L585.035 19.5525H602.228L609.947 32.8463C609.947 33.6632 609.596 33.9603 605.035 34.0345H602.93V34.6287H632.403V34.0345H631.702C627.491 34.0345 623.982 33.3661 623.632 32.4749Z" fill="#DFDFDF" fill-opacity="0.5"/>
<path d="M545.649 0.837268C545.649 1.35714 543.895 1.35714 542.491 1.13434C537.93 0.465934 532.667 0.0946003 527.053 0.0203334C516.526 -0.202467 507.053 1.4314 506 3.65941C506 3.88221 506 4.10501 506 4.32781V29.7271C506 34.1831 517.228 35 528.105 35C533.719 34.9257 539.333 34.5544 544.246 33.886C546 33.7375 548.105 34.1088 548.105 34.7772H551.614V19.5525H558.632V18.9584H528.807V19.5525H537.579V32.4749C537.579 33.5147 533.719 34.4059 528.807 34.4801C528.807 34.4801 528.807 34.4801 528.456 34.4801C523.544 34.4801 519.684 33.5889 519.684 32.5492V3.28807C519.684 2.47114 520.386 0.614468 526.702 0.688735C531.965 0.688735 535.474 1.72847 537.228 3.28807C538.982 5.66461 540.035 8.04115 540.035 10.492C540.035 11.0118 541.088 11.2346 543.895 11.2346H549.509V0.317401H545.649V0.837268Z" fill="#DFDFDF" fill-opacity="0.5"/>
<path d="M666.07 17.6216V0.91153H673.439C679.053 0.91153 683.614 1.877 683.614 3.06527C683.614 3.06527 683.614 3.06527 683.614 3.13953V16.8789C683.965 17.9186 680.105 18.8841 675.193 18.8841C674.842 18.8841 674.491 18.8841 674.14 18.8841H666.07V17.6216ZM673.439 0.391663H643.965V0.91153H651.684V33.0691C651.333 33.7375 650.281 34.0345 645.368 34.0345H643.965V34.6287H677.298V34.0345H673.789C668.175 33.9603 666.07 33.5147 666.07 32.4749V19.5525H675.895C689.93 19.5525 698 18.1414 698 16.2105V3.95647C697.649 2.0998 690.982 0.391663 673.439 0.391663Z" fill="#DFDFDF" fill-opacity="0.5"/>
<path d="M756.882 23.6111H745.202V32.1111C745.202 36.2222 748.986 36.2222 749.534 36.2222V36.7222H731V36.2222C731.494 36.2222 735.332 35.9444 735.332 32.1111V6.61111C735.332 2.5 731.548 2.5 731 2.5V2H756.882C764.998 2 769.056 7.38889 769.056 12.8333C769.056 18.2778 765.272 23.6111 756.882 23.6111ZM752.331 4.33333H745.202V21.3333H752.331C757.65 21.3333 760.227 17.5 760.227 12.8333C760.227 8.44444 757.65 4.33333 752.331 4.33333ZM803.657 37L787.645 23.6111V32.1111C787.645 36.2222 791.429 36.2222 791.977 36.2222V36.7222H773.443V36.2222C773.936 36.2222 777.775 35.9444 777.775 32.1111V6.61111C777.775 2.5 773.991 2.5 773.443 2.5V2H799.325C807.441 2 811.499 7.38889 811.499 12.8333C811.499 18.2778 807.715 23.6667 799.325 23.6667H791.429C793.183 25.4444 797.022 26.2222 800.312 26.2222C801.847 26.2222 803.383 25.9444 804.644 25.7222L817.859 36.5556V37H803.657ZM794.774 4.33333H787.426V21.3333H794.774C800.093 21.3333 802.67 17.5 802.67 12.8333C802.615 8.44444 800.093 4.33333 794.774 4.33333ZM846.319 37V36.5C848.074 36.5 848.841 36 848.841 34.7222C848.841 34.2222 848.567 33.4444 848.348 32.6667L844.784 26.7222H830.307L827.785 31.8889C827.51 32.6667 827.291 33.4444 827.291 34.2222C827.291 35.5 827.785 36.2778 829.32 36.2778V36.7778H820.437V36.2778C822.466 36.2778 824.001 34.7222 825.262 32.1667L835.955 10.5556L832.884 5.66667C831.349 3.11111 829.814 2.55556 828.059 2.55556V2H842.261L859.534 32.6111C860.576 34.3889 861.837 36.4444 864.086 36.4444V37H846.319ZM837.162 13.0556L831.568 24.1111H843.522L837.162 13.0556ZM887.994 37H867.65V36.5C868.144 36.5 871.982 36.2222 871.982 32.3889V6.88889C871.982 2.77778 868.198 2.77778 867.65 2.77778V2.27778H887.994C897.152 2.27778 906.528 8.22222 906.528 19.7778C906.803 31.0556 897.152 37 887.994 37ZM895.068 13.0556C895.068 6.61111 891.01 4.27778 886.678 4.27778H881.852V34.6667H886.678C891.01 34.6667 895.068 32.3333 895.068 25.9444V13.0556ZM933.178 37V36.5C934.933 36.5 935.701 36 935.701 34.7222C935.701 34.2222 935.427 33.4444 935.207 32.6667L931.917 26.7222H917.441L914.918 31.8889C914.644 32.6667 914.425 33.4444 914.425 34.2222C914.425 35.5 914.918 36.2778 916.454 36.2778V36.7778H907.57V36.2778C909.599 36.2778 911.135 34.7222 912.396 32.1667L923.089 10.5556L920.018 5.66667C918.483 3.11111 916.947 2.55556 915.192 2.55556V2H929.175L946.449 32.6111C947.491 34.3889 948.752 36.4444 951 36.4444V37H933.178ZM924.076 13.0556L918.483 24.3889H930.437L924.076 13.0556Z" fill="#DFDFDF" fill-opacity="0.5"/>
<path d="M1071.06 2.07245C1074.01 2.07245 1075.52 6.41755 1075.52 12.5007V16.194C1075.52 21.5168 1074.55 25.0291 1072.69 26.4412L1075.52 36.8695H1071.26L1068.5 26.6223H1065.42L1063.8 19.308H1070.46C1070.77 19.4167 1071.08 19.127 1071.31 18.5838C1071.53 18.0407 1071.64 17.2803 1071.61 16.5199V13.4421C1071.65 12.6817 1071.53 11.9214 1071.31 11.3782C1071.08 10.8351 1070.77 10.5816 1070.46 10.654H1063.28V36.8695H1059.35V2.07245H1071.06Z" fill="#DFDFDF" fill-opacity="0.5"/>
<path d="M1114.4 2.07245C1117.36 2.07245 1118.86 6.41755 1118.86 12.5007V16.194C1118.86 21.5168 1117.9 25.0291 1116.04 26.4412L1118.86 36.8695H1114.6L1111.83 26.6223H1108.75L1107.13 19.308H1113.79C1114.11 19.4167 1114.42 19.127 1114.64 18.5838C1114.86 18.0407 1114.97 17.2803 1114.94 16.5199V13.4421C1114.98 12.6817 1114.86 11.9214 1114.64 11.3782C1114.42 10.8351 1114.11 10.5816 1113.79 10.654H1106.61V36.8695H1102.69V2.07245H1114.4Z" fill="#DFDFDF" fill-opacity="0.5"/>
<path d="M1194.88 2.07245C1197.84 2.07245 1199.35 6.41755 1199.35 12.5007V16.194C1199.35 21.5168 1198.38 25.0291 1196.52 26.4412L1199.35 36.8695H1195.08L1192.31 26.6223H1189.22L1187.6 19.308H1194.26C1194.57 19.4167 1194.88 19.127 1195.11 18.5838C1195.33 18.0407 1195.43 17.2803 1195.4 16.5199V13.4421C1195.45 12.6817 1195.33 11.9214 1195.11 11.3782C1194.88 10.8351 1194.57 10.5816 1194.26 10.654H1187.08V36.8695H1183.15V2.07245H1194.88Z" fill="#DFDFDF" fill-opacity="0.5"/>
<path d="M1000.12 26.8395C1000.23 29.5914 999.824 32.3071 999.021 34.2262C998.218 36.1453 997.102 37.1592 995.972 36.9057H988.15C987.02 37.1592 985.92 36.1815 985.117 34.2262C984.314 32.2709 983.912 29.5552 984.016 26.8395V2.07245H987.957V25.0291C987.897 25.8981 988.016 26.7671 988.269 27.3827C988.522 27.9982 988.879 28.2879 989.236 28.1793H994.902C995.259 28.3241 995.63 28.0344 995.898 27.4189C996.166 26.8033 996.285 25.8981 996.24 25.0291V2.07245H1000.11L1000.12 26.8395Z" fill="#DFDFDF" fill-opacity="0.5"/>
<path d="M1006.04 2.07242C1006.83 1.78274 1007.62 2.50693 1008.12 3.99151L1013.48 18.7649L1015.48 24.9566L1015.38 16.8458V2H1019.3V36.9057H1016.3C1015.51 37.1953 1014.71 36.435 1014.2 34.9142L1008.84 20.1408L1006.6 13.6232L1006.77 21.7702V36.9419H1002.87V2.07242H1006.04Z" fill="#DFDFDF" fill-opacity="0.5"/>
<path d="M1034.81 25.1015V13.8766C1034.86 13.0076 1034.74 12.1386 1034.49 11.523C1034.23 10.9075 1033.88 10.6178 1033.52 10.7264H1026.16V36.9419H1022.22V2.07244H1034.62C1035.75 1.81897 1036.85 2.79662 1037.66 4.75192C1038.46 6.70722 1038.86 9.42291 1038.76 12.1386V26.8395C1038.86 29.5914 1038.46 32.3071 1037.66 34.2624C1036.85 36.2177 1035.74 37.1954 1034.62 36.9419H1028.6L1026.73 28.2517H1033.51C1033.86 28.3603 1034.22 28.0707 1034.47 27.4551C1034.73 26.8395 1034.84 25.9705 1034.79 25.1015" fill="#DFDFDF" fill-opacity="0.5"/>
<path d="M1056.84 10.8351H1045.37C1045.3 10.8351 1045.22 10.9075 1045.16 11.0523C1045.11 11.1972 1045.08 11.3782 1045.08 11.5592V27.4913C1045.08 27.8896 1045.21 28.2155 1045.37 28.2155H1056.84V36.9781H1043.53C1042.87 37.1229 1042.24 36.5436 1041.77 35.4211C1041.31 34.2986 1041.08 32.7416 1041.13 31.1484V7.86591C1041.08 6.2727 1041.31 4.71571 1041.77 3.59322C1042.24 2.47074 1042.87 1.9276 1043.53 2.07244H1056.84V10.8351ZM1056.63 22.6393H1047.07L1045.64 16.0492H1055.2L1056.63 22.6393Z" fill="#DFDFDF" fill-opacity="0.5"/>
<path d="M1081 36.9419L1088.51 2.07245H1092.51C1093.63 2.07245 1094.15 2.6518 1094.57 4.42605L1101.5 36.8333H1096.84L1095.68 31.2571H1090.61L1088.99 23.9428H1094.13L1091.22 10.0747L1085.63 36.8333L1081 36.9419Z" fill="#DFDFDF" fill-opacity="0.5"/>
<path d="M1125.38 2.07242C1126.2 1.85517 1126.97 3.01386 1127.27 4.86053L1130.58 20.0684L1131.83 27.1292L1133.11 20.0684L1136.41 4.86053C1136.71 2.94145 1137.51 1.78275 1138.35 2.07242H1142.33V36.9419H1138.46V25.4636L1138.73 13.3335L1136.95 22.422L1133.6 36.9057H1130.18L1126.87 22.422L1125.04 13.3335L1125.33 25.4636V36.9419H1121.47V2.07242H1125.38Z" fill="#DFDFDF" fill-opacity="0.5"/>
<path d="M1149.02 2.07244H1157.74C1158.85 1.81897 1159.97 2.79662 1160.77 4.75192C1161.56 6.70722 1161.96 9.3867 1161.86 12.1386V26.8395C1161.96 29.5914 1161.56 32.3071 1160.76 34.2624C1159.95 36.2177 1158.84 37.1954 1157.72 36.9419H1149.01C1147.88 37.1954 1146.76 36.2177 1145.96 34.2624C1145.16 32.3071 1144.75 29.5914 1144.86 26.8395V12.1386C1144.75 9.3867 1145.16 6.67101 1145.96 4.75192C1146.76 2.83283 1147.88 1.81897 1149.01 2.07244M1156.59 28.2517C1156.95 28.3603 1157.31 28.0707 1157.56 27.4551C1157.81 26.8395 1157.93 25.9705 1157.89 25.1015V13.8766C1157.93 13.0076 1157.81 12.1386 1157.56 11.523C1157.31 10.9075 1156.95 10.6178 1156.59 10.7264H1150.09C1149.74 10.5816 1149.38 10.8713 1149.13 11.4868C1148.87 12.1024 1148.75 12.9714 1148.8 13.8404V25.0653C1148.75 25.9343 1148.87 26.8033 1149.13 27.4189C1149.38 28.0344 1149.74 28.3241 1150.09 28.2155L1156.59 28.2517Z" fill="#DFDFDF" fill-opacity="0.5"/>
<path d="M1180.46 26.8395C1180.56 29.5914 1180.16 32.3071 1179.36 34.2262C1178.56 36.1815 1177.44 37.1592 1176.31 36.9057H1168.46C1167.33 37.1592 1166.23 36.1815 1165.43 34.2262C1164.62 32.2709 1164.22 29.5552 1164.32 26.8395V2.07245H1168.27V25.0291C1168.21 25.8981 1168.34 26.8033 1168.59 27.4551C1168.86 28.0707 1169.23 28.3603 1169.59 28.2155H1175.25C1175.61 28.3241 1175.97 28.0344 1176.22 27.4189C1176.47 26.8033 1176.59 25.9343 1176.55 25.0653V2.07245H1180.49L1180.46 26.8395Z" fill="#DFDFDF" fill-opacity="0.5"/>
<path d="M1203.76 33.4658C1203.76 34.6245 1203.48 35.6746 1203.03 36.1091C1202.6 36.5436 1202.1 36.2901 1201.75 35.4935C1201.41 34.6607 1201.32 33.4658 1201.5 32.3795C1201.68 31.3295 1202.11 30.6053 1202.59 30.6053C1203.23 30.6415 1203.76 31.9088 1203.76 33.4658ZM1204 33.4658C1204 32.0537 1203.66 30.7863 1203.12 30.2432C1202.59 29.7001 1201.98 29.9897 1201.56 31.0036C1201.16 31.9812 1201.03 33.502 1201.25 34.8055C1201.47 36.1091 1201.99 36.9419 1202.57 36.9419C1203.36 36.9057 1204 35.3849 1204 33.4658Z" fill="#DFDFDF" fill-opacity="0.5"/>
<path d="M1202.87 35.1315H1203.14L1202.72 33.6831C1202.81 33.6831 1202.91 33.5745 1202.97 33.3934C1203.03 33.2124 1203.06 32.9951 1203.05 32.7417C1203.05 32.1985 1202.93 31.8364 1202.6 31.8364H1202.1V35.1315H1202.33V33.7193H1202.48L1202.87 35.1315ZM1202.32 32.2709H1202.53C1202.71 32.2709 1202.8 32.452 1202.8 32.7779C1202.8 33.1037 1202.72 33.321 1202.53 33.321H1202.32V32.2709Z" fill="#DFDFDF" fill-opacity="0.5"/>
<path d="M1709.54 2.61688H1706.75L1706.35 3.31077V23.6646L1692.09 2L1691.68 2.61688V35.4615L1692.09 36.0784H1694.88L1695.34 35.4615V14.7988L1709.34 36.0784H1710V3.31077L1709.54 2.61688ZM1639.12 3.31077V8.24501H1642.77V36.0784H1646.43V8.24423H1649.67L1650.13 7.55034V2.61688H1639.52L1639.12 3.31077ZM1652.56 3.31077V8.24501H1656.22V36.0784H1659.87V8.24423H1663.12L1663.52 7.55034V2.61688H1652.97L1652.56 3.31077ZM1493.65 2.61688H1490.41L1490 3.31077V36.0784H1501.01V30.5273H1493.65L1493.65 2.61688ZM1514.46 2.61688C1512.28 2.61703 1510.15 3.59838 1508.34 5.43683C1506.53 7.27528 1505.12 9.88826 1504.28 12.9454C1503.45 16.0024 1503.23 19.3663 1503.66 22.6117C1504.08 25.857 1505.13 28.838 1506.67 31.1777C1508.21 33.5174 1510.17 35.1107 1512.31 35.7562C1514.44 36.4017 1516.66 36.0703 1518.67 34.804C1520.68 33.5377 1522.4 31.3933 1523.61 28.6421C1524.82 25.8908 1525.47 22.6562 1525.47 19.3472C1525.47 17.1501 1525.18 14.9745 1524.63 12.9446C1524.07 10.9148 1523.26 9.07038 1522.24 7.51681C1521.22 5.96325 1520.01 4.73091 1518.67 3.89018C1517.33 3.04944 1515.9 2.61678 1514.46 2.61688ZM1514.46 30.4503C1513 30.4655 1511.57 29.8209 1510.35 28.5984C1509.13 27.3759 1508.18 25.6308 1507.62 23.585C1507.05 21.5392 1506.9 19.2851 1507.19 17.1094C1507.47 14.9337 1508.17 12.9347 1509.2 11.3666C1510.23 9.79853 1511.55 8.73218 1512.98 8.3032C1514.41 7.87421 1515.9 8.10198 1517.24 8.95752C1518.59 9.81306 1519.74 11.2577 1520.54 13.1078C1521.35 14.9579 1521.77 17.1297 1521.76 19.3472C1521.76 22.2917 1520.99 25.1156 1519.62 27.1977C1518.25 29.2798 1516.39 30.4503 1514.46 30.4503ZM1677.02 2.6161C1674.84 2.60085 1672.71 3.56908 1670.89 5.39811C1669.07 7.22714 1667.65 9.83466 1666.81 12.8903C1665.97 15.946 1665.75 19.3122 1666.16 22.5627C1666.58 25.8131 1667.63 28.8013 1669.17 31.1489C1670.7 33.4964 1672.67 35.0975 1674.8 35.7494C1676.94 36.4013 1679.16 36.0746 1681.17 34.8108C1683.19 33.5469 1684.91 31.4027 1686.12 28.6499C1687.33 25.897 1687.98 22.6594 1687.98 19.3472C1687.98 14.9234 1686.83 10.6796 1684.77 7.54423C1682.72 4.40889 1679.93 2.63646 1677.02 2.6161ZM1677.02 30.4495C1675.56 30.4647 1674.13 29.8201 1672.91 28.5976C1671.7 27.3751 1670.75 25.6299 1670.18 23.584C1669.62 21.5382 1669.47 19.2841 1669.75 17.1084C1670.03 14.9326 1670.74 12.9336 1671.77 11.3656C1672.8 9.79751 1674.12 8.73122 1675.55 8.30233C1676.98 7.87343 1678.46 8.1013 1679.81 8.95696C1681.15 9.81262 1682.3 11.2574 1683.11 13.1076C1683.91 14.9578 1684.34 17.1297 1684.33 19.3472C1684.33 22.2917 1683.56 25.1156 1682.19 27.1977C1680.82 29.2798 1678.96 30.4495 1677.02 30.4495ZM1541.75 2.6161L1541.35 3.23298V24.8976C1541.35 26.3698 1540.96 27.7818 1540.28 28.8228C1539.59 29.8639 1538.66 30.4487 1537.69 30.4487C1536.72 30.4488 1535.79 29.8665 1535.09 28.8276C1534.4 27.7887 1534 26.3769 1533.99 24.8976V3.23375L1533.58 2.61688H1530.74L1530.34 3.23375V24.8984C1530.25 26.4389 1530.38 27.9892 1530.71 29.4512C1531.04 30.9132 1531.57 32.2553 1532.26 33.3925C1532.95 34.5298 1533.78 35.4376 1534.71 36.0585C1535.64 36.6794 1536.65 37 1537.67 37C1538.69 37 1539.69 36.6794 1540.62 36.0585C1541.56 35.4376 1542.39 34.5298 1543.08 33.3925C1543.77 32.2553 1544.3 30.9132 1544.63 29.4512C1544.96 27.9892 1545.08 26.4389 1545 24.8984V3.23375L1544.59 2.61688L1541.75 2.6161ZM1552.31 3.30999V36.0776H1555.55L1556.01 35.4607V2.61688H1552.76L1552.31 3.30999ZM1618.77 2.61688L1618.32 3.23375V24.8984C1618.32 26.3706 1617.93 27.7826 1617.25 28.8236C1616.56 29.8646 1615.63 30.4495 1614.66 30.4495C1613.69 30.4495 1612.77 29.8646 1612.08 28.8236C1611.39 27.7826 1611.01 26.3706 1611.01 24.8984V3.23375L1610.55 2.61688H1607.76L1607.36 3.23375V24.8984C1607.27 26.4389 1607.4 27.9892 1607.73 29.4512C1608.06 30.9132 1608.59 32.2553 1609.28 33.3925C1609.97 34.5298 1610.8 35.4376 1611.73 36.0585C1612.67 36.6794 1613.67 37 1614.69 37C1615.71 37 1616.71 36.6794 1617.64 36.0585C1618.58 35.4376 1619.41 34.5298 1620.1 33.3925C1620.79 32.2553 1621.32 30.9132 1621.65 29.4512C1621.98 27.9892 1622.1 26.4389 1622.02 24.8984V3.23375L1621.56 2.61688H1618.77ZM1629.33 3.31077V36.0784H1632.57L1632.98 35.4615V2.61688H1629.73L1629.33 3.31077ZM1569.76 16.8035C1568.92 16.122 1568.11 15.3755 1567.32 14.567C1566.51 13.7191 1566.06 12.7934 1566.11 11.3294C1566.15 10.3606 1566.42 9.44939 1566.88 8.77757C1567.34 8.10576 1567.95 7.7228 1568.59 7.70514C1569.11 7.7051 1569.61 7.92115 1570.05 8.32942C1570.49 8.73769 1570.85 9.32228 1571.08 10.0186H1571.74L1573.87 6.78022C1573.27 5.50262 1572.48 4.45932 1571.56 3.73569C1570.64 3.01207 1569.63 2.62867 1568.59 2.61688C1566.98 2.53571 1565.4 3.38971 1564.18 5.0066C1563.55 5.87953 1563.05 6.93871 1562.7 8.11893C1562.35 9.29915 1562.16 10.5754 1562.15 11.8693C1562.15 15.4157 1563.42 18.3453 1564.64 19.3472L1568.54 22.7397C1569.12 23.1125 1569.59 23.7783 1569.88 24.6227C1570.16 25.4671 1570.25 26.4371 1570.12 27.3659C1569.95 28.4311 1569.52 29.3585 1568.91 29.9599C1568.31 30.5613 1567.58 30.7916 1566.87 30.6043C1565.95 30.4503 1565.04 29.3705 1564.58 28.9085L1563.62 27.6739L1560.88 31.9913C1561.99 34.0697 1563.53 35.5117 1565.24 36.0784C1565.95 36.2814 1566.66 36.3845 1567.38 36.3864C1569.23 36.346 1571.01 35.2016 1572.31 33.1984C1573.62 31.1953 1574.36 28.4927 1574.38 25.67C1574.38 20.0411 1571.08 17.8832 1569.76 16.8035ZM1594.11 23.0485L1588.58 2.61688H1584.58L1593.71 36.0784L1594.11 36.6945L1594.57 36.0784L1603.65 2.61688H1599.7L1594.11 23.0485Z" fill="#DFDFDF" fill-opacity="0.5"/>
</svg>
