<svg width="221" height="29" viewBox="0 0 221 29" fill="none" xmlns="http://www.w3.org/2000/svg">
<path d="M6.5 24L8.5 17.5V16L2 10L11 9L14 3L17 9.5L25 10L23.5 12L19.5 16L20.5 23C18.3333 21.8333 13.9 19.6 13.5 20L6.5 24Z" fill="#E9B01E"/>
<path d="M28.3333 9.68215L18.1475 8.85301L14.1667 0L10.1858 8.86639L0 9.68215L7.735 16.0076L5.41167 25.4089L14.1667 20.4208L22.9217 25.4089L20.6125 16.0076L28.3333 9.68215ZM14.1667 17.92L8.84 20.9557L10.2567 15.232L5.55333 11.3805L11.7583 10.8724L14.1667 5.48298L16.5892 10.8857L22.7942 11.3939L18.0908 15.2454L19.5075 20.9691L14.1667 17.92Z" fill="#1D1D1F"/>
<path d="M42.5 24L44.5 17.5V16L38 10L47 9L50 3L53 9.5L61 10L59.5 12L55.5 16L56.5 23C54.3333 21.8333 49.9 19.6 49.5 20L42.5 24Z" fill="#E9B01E"/>
<path d="M64.3333 9.68215L54.1475 8.85301L50.1667 0L46.1858 8.86639L36 9.68215L43.735 16.0076L41.4117 25.4089L50.1667 20.4208L58.9217 25.4089L56.6125 16.0076L64.3333 9.68215ZM50.1667 17.92L44.84 20.9557L46.2567 15.232L41.5533 11.3805L47.7583 10.8724L50.1667 5.48298L52.5892 10.8857L58.7942 11.3939L54.0908 15.2454L55.5075 20.9691L50.1667 17.92Z" fill="#1D1D1F"/>
<path d="M78.5 24L80.5 17.5V16L74 10L83 9L86 3L89 9.5L97 10L95.5 12L91.5 16L92.5 23C90.3333 21.8333 85.9 19.6 85.5 20L78.5 24Z" fill="#E9B01E"/>
<path d="M100.333 9.68215L90.1475 8.85301L86.1667 0L82.1858 8.86639L72 9.68215L79.735 16.0076L77.4117 25.4089L86.1667 20.4208L94.9217 25.4089L92.6125 16.0076L100.333 9.68215ZM86.1667 17.92L80.84 20.9557L82.2567 15.232L77.5533 11.3805L83.7583 10.8724L86.1667 5.48298L88.5892 10.8857L94.7942 11.3939L90.0908 15.2454L91.5075 20.9691L86.1667 17.92Z" fill="#1D1D1F"/>
<path d="M114.5 24L116.5 17.5V16L110 10L119 9L122 3L125 9.5L133 10L131.5 12L127.5 16L128.5 23C126.333 21.8333 121.9 19.6 121.5 20L114.5 24Z" fill="#E9B01E"/>
<path d="M136.333 9.68215L126.148 8.85301L122.167 0L118.186 8.86639L108 9.68215L115.735 16.0076L113.412 25.4089L122.167 20.4208L130.922 25.4089L128.612 16.0076L136.333 9.68215ZM122.167 17.92L116.84 20.9557L118.257 15.232L113.553 11.3805L119.758 10.8724L122.167 5.48298L124.589 10.8857L130.794 11.3939L126.091 15.2454L127.508 20.9691L122.167 17.92Z" fill="#1D1D1F"/>
<path d="M150.5 24.1014L152.5 17.6014V16.1014L146 10.1014L155 9.10141L158.5 3V15.1014V19.6014L150.5 24.1014Z" fill="#E9B01E"/>
<path d="M172.333 9.68215L162.147 8.85301L158.167 0L154.186 8.86639L144 9.68215L151.735 16.0076L149.412 25.4089L158.167 20.4208L166.922 25.4089L164.612 16.0076L172.333 9.68215ZM158.167 17.92L152.84 20.9557L154.257 15.232L149.553 11.3805L155.758 10.8724L158.167 5.48298L160.589 10.8857L166.794 11.3939L162.091 15.2454L163.507 20.9691L158.167 17.92Z" fill="#1D1D1F"/>
<path d="M180.875 22.7273V21.3068L185.903 13.3636H187.023V15.4545H186.312L182.716 21.1477V21.2386H189.608V22.7273H180.875ZM186.392 25V22.2955L186.403 21.6477V13.3636H188.068V25H186.392ZM192.293 25.108C191.982 25.108 191.715 24.9981 191.491 24.7784C191.268 24.5549 191.156 24.286 191.156 23.9716C191.156 23.661 191.268 23.3958 191.491 23.1761C191.715 22.9527 191.982 22.8409 192.293 22.8409C192.603 22.8409 192.87 22.9527 193.094 23.1761C193.317 23.3958 193.429 23.661 193.429 23.9716C193.429 24.1799 193.376 24.3712 193.27 24.5455C193.168 24.7159 193.031 24.8523 192.861 24.9545C192.69 25.0568 192.501 25.108 192.293 25.108ZM199.335 25.1591C198.623 25.1591 197.983 25.0227 197.415 24.75C196.85 24.4735 196.4 24.0947 196.062 23.6136C195.725 23.1326 195.545 22.5833 195.523 21.9659H197.227C197.269 22.4659 197.491 22.8769 197.892 23.1989C198.294 23.5208 198.775 23.6818 199.335 23.6818C199.782 23.6818 200.178 23.5795 200.523 23.375C200.871 23.1667 201.144 22.8807 201.341 22.517C201.542 22.1534 201.642 21.7386 201.642 21.2727C201.642 20.7992 201.54 20.3769 201.335 20.0057C201.131 19.6345 200.848 19.3428 200.489 19.1307C200.133 18.9186 199.723 18.8106 199.261 18.8068C198.909 18.8068 198.555 18.8674 198.199 18.9886C197.843 19.1098 197.555 19.2689 197.335 19.4659L195.727 19.2273L196.381 13.3636H202.778V14.8693H197.841L197.472 18.125H197.54C197.767 17.9053 198.068 17.7216 198.443 17.5739C198.822 17.4261 199.227 17.3523 199.659 17.3523C200.367 17.3523 200.998 17.5208 201.551 17.858C202.108 18.1951 202.545 18.6553 202.864 19.2386C203.186 19.8182 203.345 20.4848 203.341 21.2386C203.345 21.9924 203.174 22.6648 202.83 23.2557C202.489 23.8466 202.015 24.3125 201.409 24.6534C200.807 24.9905 200.116 25.1591 199.335 25.1591ZM209.871 12.8182L206.121 26.75H204.604L208.354 12.8182H209.871ZM215.132 25.1591C214.42 25.1591 213.78 25.0227 213.212 24.75C212.647 24.4735 212.196 24.0947 211.859 23.6136C211.522 23.1326 211.342 22.5833 211.32 21.9659H213.024C213.066 22.4659 213.287 22.8769 213.689 23.1989C214.09 23.5208 214.571 23.6818 215.132 23.6818C215.579 23.6818 215.975 23.5795 216.32 23.375C216.668 23.1667 216.941 22.8807 217.138 22.517C217.339 22.1534 217.439 21.7386 217.439 21.2727C217.439 20.7992 217.337 20.3769 217.132 20.0057C216.928 19.6345 216.645 19.3428 216.286 19.1307C215.929 18.9186 215.52 18.8106 215.058 18.8068C214.706 18.8068 214.352 18.8674 213.996 18.9886C213.64 19.1098 213.352 19.2689 213.132 19.4659L211.524 19.2273L212.178 13.3636H218.575V14.8693H213.638L213.268 18.125H213.337C213.564 17.9053 213.865 17.7216 214.24 17.5739C214.619 17.4261 215.024 17.3523 215.456 17.3523C216.164 17.3523 216.795 17.5208 217.348 17.858C217.905 18.1951 218.342 18.6553 218.661 19.2386C218.982 19.8182 219.142 20.4848 219.138 21.2386C219.142 21.9924 218.971 22.6648 218.626 23.2557C218.286 23.8466 217.812 24.3125 217.206 24.6534C216.604 24.9905 215.912 25.1591 215.132 25.1591Z" fill="#1D1D1F"/>
</svg>
