<svg width="600" height="49" viewBox="0 0 600 49" fill="none" xmlns="http://www.w3.org/2000/svg">
<rect x="-2.62573" y="0.962036" width="29" height="48" fill="black"/>
<rect x="36.3743" y="0.962036" width="29" height="48" fill="black"/>
<rect x="75.3743" y="0.962036" width="29" height="48" fill="black"/>
<rect x="114.374" y="0.962036" width="29" height="48" fill="black"/>
<rect x="153.374" y="0.962036" width="29" height="48" fill="black"/>
<rect x="192.374" y="0.962036" width="29" height="48" fill="black"/>
<rect x="231.374" y="0.962036" width="29" height="48" fill="black"/>
<rect x="270.374" y="0.962036" width="29" height="48" fill="black"/>
<rect x="309.374" y="0.962036" width="29" height="48" fill="black"/>
<rect x="348.374" y="0.962036" width="29" height="48" fill="black"/>
<rect x="387.374" y="0.962036" width="29" height="48" fill="black"/>
<rect x="426.374" y="0.962036" width="29" height="48" fill="black"/>
<rect x="465.374" y="0.962036" width="29" height="48" fill="black"/>
<rect x="504.374" y="0.962036" width="29" height="48" fill="black"/>
<rect x="543.374" y="0.962036" width="29" height="48" fill="black"/>
<rect x="582.374" y="0.962036" width="29" height="48" fill="black"/>
</svg>
