<svg width="798" height="21" viewBox="0 0 798 21" fill="none" xmlns="http://www.w3.org/2000/svg">
<path d="M677.948 17.6426C677.948 18.5933 677.685 18.9453 677.204 18.9453H676.941V19.6143H684.823C687.975 19.6143 689.771 17.9595 689.771 14.509C689.771 11.9036 688.742 10.3544 686.224 9.82628C687.45 9.29815 688.523 7.96022 688.523 5.81248C688.523 2.74933 686.618 1.48181 684.078 1.48181L676.941 1.51702V2.18599H677.204C677.685 2.18599 677.948 2.53807 677.948 3.48871V17.6426ZM679.94 3.13662H683.246C685.72 3.13662 686.552 4.01684 686.552 5.91811C686.552 7.85459 685.83 9.29815 683.115 9.29815H679.896L679.94 3.13662ZM684.056 10.9882C686.53 10.9882 687.559 12.6078 687.559 14.5795C687.559 16.4103 686.815 17.6074 683.991 17.6074H679.94V10.9882H684.056Z" fill="#DFDFDF" fill-opacity="0.5"/>
<path d="M774.959 2.9958V10.46H777.958C780.323 10.46 781.439 9.0517 781.439 6.69271C781.439 4.36894 780.367 2.9958 777.893 2.9958H774.959ZM779.951 11.5163C781.352 11.6923 781.68 12.2909 782.206 13.6288L783.344 16.9737C783.935 18.3468 784.461 19.1214 785.621 19.1214V19.6143H784.22C783.563 19.6143 782.315 19.7551 781.615 18.382L780.126 14.4034C779.6 13.2415 779.447 12.2909 777.696 12.2909H774.981V17.6426C774.981 18.5933 775.244 18.9453 775.725 18.9453H775.988V19.6143H772.003V18.9453H772.266C772.748 18.9453 773.01 18.5933 773.01 17.6426V3.52393C773.01 2.57329 772.748 2.2212 772.266 2.2212H772.003V1.51703H778.659C782.512 1.51703 783.607 4.05206 783.607 6.51667C783.563 9.29816 782.206 10.9178 779.951 11.5163Z" fill="#DFDFDF" fill-opacity="0.5"/>
<path d="M796.328 3.52393C796.328 2.57329 796.59 2.2212 797.072 2.2212H797.335V1.51703H793.35V2.18599H793.613C794.094 2.18599 794.357 2.53808 794.357 3.48872V17.6426C794.357 18.5933 794.094 18.9453 793.613 18.9453H793.35V19.6143H797.335V18.9453H797.072C796.59 18.9453 796.328 18.5933 796.328 17.6426V3.52393Z" fill="#DFDFDF" fill-opacity="0.5"/>
<path d="M719.371 1.51703V2.18599H719.108C718.627 2.18599 718.364 2.53808 718.364 3.48872V17.6074H724.056C724.998 17.537 725.742 16.7624 726.158 15.6709L726.552 15.9174L725.392 19.6495H715.386V18.9806H715.649C716.131 18.9806 716.393 18.6285 716.393 17.6778V3.52393C716.393 2.57329 716.131 2.2212 715.649 2.2212H715.386V1.51703H719.371Z" fill="#DFDFDF" fill-opacity="0.5"/>
<path d="M708.971 1.51703V2.18599H708.709C708.117 2.18599 708.052 2.67892 707.789 3.45351L702.622 19.6143H700.958L695.791 3.45351C695.529 2.67892 695.463 2.18599 694.872 2.18599H694.609V1.51703H698.747V2.18599H698.484C697.937 2.18599 697.718 2.78454 697.981 3.59434L702.206 16.6568L706.366 3.59434C706.629 2.78454 706.41 2.18599 705.862 2.18599H705.6V1.51703H708.971Z" fill="#DFDFDF" fill-opacity="0.5"/>
<path d="M746.3 11.0233V11.6923H745.841C745.359 11.6923 745.096 12.0444 745.096 12.995V16.3399C744.396 18.2411 742.141 20.248 738.725 20.248C733.865 20.248 730.778 15.9174 730.778 10.6008C730.778 6.19975 733.69 1.09448 738.659 1.09448C741.462 1.09448 743.52 2.67887 744.089 3.27742C744.089 3.34784 744.702 7.32643 744.702 7.32643L744.264 7.57289C744.264 7.57289 742.973 2.60846 738.922 2.57325C735.419 2.53804 733.033 6.62225 733.033 10.6008C733.033 14.9667 735.375 18.5932 738.922 18.558C741.133 18.558 743.213 16.6919 743.213 15.3892V12.995C743.213 12.0444 742.951 11.6923 742.469 11.6923H742.009V11.0233H746.3Z" fill="#DFDFDF" fill-opacity="0.5"/>
<path d="M760.597 12.7486L757.882 4.26332L755.233 12.7486H760.597ZM765.589 18.9806V19.6495H761.407V18.9806H761.67C762.217 18.9806 762.436 18.382 762.173 17.5722L761.21 14.7907H754.576L753.679 17.5722C753.416 18.382 753.635 18.9806 754.182 18.9806H754.445V19.6495H750.986V18.9806H751.248C751.664 18.9806 751.839 18.7341 752.08 18.0299L757.488 1.55225H758.999L764.385 17.713C764.428 17.8187 764.472 17.9243 764.494 18.0299C764.735 18.7341 764.91 18.9806 765.326 18.9806H765.589Z" fill="#DFDFDF" fill-opacity="0.5"/>
<path d="M114.383 3.30207H114.465C114.653 4.51257 114.735 5.0642 114.926 5.94271L116.036 11.888H112.786L113.896 5.94271C114.059 5.0642 114.168 4.51257 114.383 3.30207ZM117.333 18.8969H120.394L116.551 0.363917H112.38L108.509 18.8982H111.406L112.271 14.7508H116.468L117.333 18.8969ZM101.875 19.1523C103.554 19.1523 105.178 18.6032 106.235 18.0158V8.73402H101.523V11.7054H103.446V15.8502C103.094 16.1439 102.496 16.329 101.849 16.329C99.8459 16.329 99.2223 14.9717 99.2223 11.0465V8.6574C99.2223 4.76923 99.8167 2.86026 101.658 2.86026C102.931 2.86026 103.366 4.03501 103.395 5.28382H106.292C106.26 2.01751 104.529 0 101.657 0C97.6487 0 96.1889 3.15395 96.1889 8.25773V10.9737C96.1607 16.5129 97.5433 19.1535 101.874 19.1535M88.3125 3.30207H88.3953C88.5834 4.51257 88.6662 5.0642 88.8543 5.94271L89.9661 11.888H86.7164L87.8263 5.94271C87.988 5.0642 88.0962 4.51257 88.3125 3.30207ZM91.2641 18.8982H94.3209L90.4796 0.363917H86.3072L82.4396 18.8982H85.3366L86.2019 14.7508H90.3969L91.2641 18.8969V18.8982ZM76.6428 18.8982H79.5398V0.363917H76.6428V18.8982ZM68.6837 19.1535C71.9042 19.1535 73.475 17.1335 73.5559 13.359H70.6335C70.5789 15.1926 70.1444 16.329 68.7655 16.329C67.1966 16.329 66.6022 14.8261 66.6022 10.9737V8.25773C66.6022 4.36701 67.1966 2.90112 68.7655 2.90112C70.229 2.90112 70.4717 4.22272 70.5244 5.6171H73.4477C73.4195 2.38781 72.0669 0.0766142 68.6846 0.0766142C64.9204 0.0766142 63.5415 3.26887 63.5415 8.25773V10.9737C63.5415 15.9996 64.9195 19.1535 68.6837 19.1535ZM49.0821 18.8982H51.6555V8.14664C51.6555 6.64245 51.599 4.80754 51.5445 3.30207H51.6291C52.0336 5.20976 52.2499 6.20064 52.629 7.63077L55.6351 18.8982H59.8582V0.363917H57.2858V10.6787C57.2858 12.0323 57.314 13.8327 57.3403 15.5565H57.2594C57.0431 14.2707 56.8512 12.9861 56.2831 10.8958L53.468 0.365194H49.0567V18.8982H49.0821ZM37.2778 18.8982H45.1561V15.923H40.1748V10.786H44.6943V7.78017H40.1739V3.30207H44.9661V0.329441H37.275V18.8956L37.2778 18.8982ZM26.6935 18.8982H34.2746V15.923H29.5905V0.365194H26.6935V18.8982ZM17.7054 3.30079H17.7872C17.9753 4.5113 18.06 5.06292 18.2481 5.94143L19.358 11.8867H16.1102L17.2201 5.94143C17.3818 5.06292 17.4909 4.5113 17.7063 3.30079M20.6569 18.8982H23.7166L19.8715 0.363917H15.7029L11.8306 18.8982H14.7275L15.5929 14.7508H19.7907L20.6579 18.8969L20.6569 18.8982ZM2.92331 16.0711V10.68H4.68407C6.173 10.68 6.87561 11.5968 6.87561 13.3922C6.87561 15.3714 5.95573 16.1094 4.62951 16.1094H2.92331V16.0711ZM2.92331 7.85168V3.19226H4.73862C6.06295 3.19226 6.632 3.99671 6.632 5.50345C6.632 7.0102 5.98582 7.85295 4.7659 7.85295L2.92331 7.85168ZM0.0263361 18.8982H5.14307C8.01182 18.8982 9.7707 17.5 9.7707 13.6501C9.7707 11.1908 8.71726 9.50526 6.7665 9.24478V9.13752C8.49716 8.73402 9.52803 7.44945 9.52803 4.99141C9.52803 1.7966 8.1736 0.366471 5.27851 0.366471H0V18.8982H0.0263361Z" fill="#DFDFDF" fill-opacity="0.5"/>
<path fill-rule="evenodd" clip-rule="evenodd" d="M191.142 3.61954H189.207V1.3233H191.142V3.61954ZM191.142 18.837H189.207V5.87685H191.142V18.837Z" fill="#DFDFDF" fill-opacity="0.5"/>
<path fill-rule="evenodd" clip-rule="evenodd" d="M195.314 18.8369H193.417V5.8768H195.314V8.05628C195.997 6.46059 197.59 5.44869 199.296 5.60437C202.824 5.60437 204.493 8.25088 204.493 11.559V18.8758H202.558V11.559C202.558 9.1071 201.269 7.43357 198.993 7.43357C196.717 7.43357 195.352 9.18494 195.352 11.6758L195.314 18.8369Z" fill="#DFDFDF" fill-opacity="0.5"/>
<path fill-rule="evenodd" clip-rule="evenodd" d="M215.531 10.3525L213.255 12.999V18.8369H211.169V0.350281H213.255V10.1968L221.713 0.350281H224.216L216.972 8.71791L224.216 18.8369H221.827L215.531 10.3525Z" fill="#DFDFDF" fill-opacity="0.5"/>
<path fill-rule="evenodd" clip-rule="evenodd" d="M227.175 18.8369H225.241V0H227.175V18.8369Z" fill="#DFDFDF" fill-opacity="0.5"/>
<path fill-rule="evenodd" clip-rule="evenodd" d="M235.406 19.1483C231.878 19.1872 228.996 16.3072 228.958 12.6877C228.958 12.5709 228.958 12.4931 228.958 12.3763C228.844 8.75683 231.613 5.72113 235.14 5.60437C235.216 5.60437 235.292 5.60437 235.368 5.60437C239.047 5.60437 241.816 8.64007 241.74 12.8823H230.892C231.044 15.4899 233.244 17.5137 235.823 17.3191C237.492 17.2023 238.933 16.2293 239.692 14.7115H241.588C240.754 17.4358 238.213 19.265 235.406 19.1483ZM231.006 11.1309H239.692C239.388 8.95142 237.53 7.35574 235.368 7.39465C233.244 7.39465 231.385 8.95142 231.006 11.1309Z" fill="#DFDFDF" fill-opacity="0.5"/>
<path fill-rule="evenodd" clip-rule="evenodd" d="M245.495 3.61954H243.561V1.3233H245.495V3.61954ZM245.495 18.837H243.561V5.87685H245.495V18.837Z" fill="#DFDFDF" fill-opacity="0.5"/>
<path fill-rule="evenodd" clip-rule="evenodd" d="M249.667 18.8369H247.733V5.87681H249.667V8.05628C249.895 7.35574 250.995 5.60437 253.65 5.60437C257.178 5.60437 258.846 8.25088 258.846 11.559V18.8758H256.912V11.559C256.912 9.1071 255.622 7.43357 253.309 7.43357C250.995 7.43357 249.667 9.18494 249.667 11.6758V18.8369Z" fill="#DFDFDF" fill-opacity="0.5"/>
<path fill-rule="evenodd" clip-rule="evenodd" d="M140.619 9.61305C140.619 13.9331 143.653 17.1634 147.598 17.1634C150.101 17.2801 152.491 15.918 153.705 13.6606H155.829C155.26 15.412 152.757 19.1483 147.598 19.1483C142.44 19.1483 138.457 15.1007 138.457 9.57413C138.305 4.43679 142.25 0.155677 147.257 0C147.371 0 147.484 0 147.636 0C152.794 0 155.298 3.65841 155.867 5.52653H153.705C152.491 3.26922 150.139 1.90704 147.636 1.98488C143.653 2.0238 140.619 5.29302 140.619 9.61305Z" fill="#DFDFDF" fill-opacity="0.5"/>
<path fill-rule="evenodd" clip-rule="evenodd" d="M163.339 19.1483C159.774 19.1483 156.891 16.1904 156.891 12.532C156.891 12.4931 156.891 12.4153 156.891 12.3763C156.777 8.71792 159.584 5.68222 163.149 5.60439C163.225 5.60439 163.263 5.60439 163.339 5.60439C165.273 5.52655 167.056 6.57737 167.929 8.32873V5.87682H169.863V18.8369H167.929V16.385C167.056 18.1753 165.273 19.2261 163.339 19.1483ZM167.929 12.3374C167.929 9.53523 165.994 7.39467 163.377 7.39467C160.76 7.39467 158.825 9.49631 158.825 12.3374C158.825 15.1785 160.76 17.2802 163.377 17.2802C165.994 17.2802 167.929 15.1396 167.929 12.3374Z" fill="#DFDFDF" fill-opacity="0.5"/>
<path fill-rule="evenodd" clip-rule="evenodd" d="M174.035 18.8369H172.101V0H174.035V18.8369Z" fill="#DFDFDF" fill-opacity="0.5"/>
<path fill-rule="evenodd" clip-rule="evenodd" d="M181.583 16.8521L185.566 5.87683H187.652L182.759 18.8369H180.369L175.477 5.87683H177.563L181.583 16.8521Z" fill="#DFDFDF" fill-opacity="0.5"/>
<path d="M320.349 10.3749L324.573 2.81545L329.374 10.3749H320.349ZM341.279 17.7717L331.102 0.214355H324.189L314.205 17.6092C313.629 18.2188 313.244 18.6252 308.636 18.6252V18.9504H320.733V18.6252C317.277 18.6252 315.741 18.2188 316.125 17.7717L320.157 10.7H329.566L333.79 17.9749C333.79 18.422 333.598 18.5846 331.102 18.6252H329.95V18.9504H346.079V18.6252H345.695C343.391 18.6252 341.471 18.2594 341.279 17.7717Z" fill="#DFDFDF" fill-opacity="0.5"/>
<path d="M298.603 0.45819C298.603 0.742685 297.643 0.742685 296.875 0.620758C294.379 0.25498 291.499 0.0517694 288.426 0.0111274C282.666 -0.110799 277.482 0.783327 276.906 2.00259C276.906 2.12452 276.906 2.24644 276.906 2.36837V16.268C276.906 18.7065 283.05 19.1535 289.002 19.1535C292.075 19.1129 295.147 18.9097 297.835 18.5439C298.795 18.4626 299.947 18.6658 299.947 19.0316H301.868V10.7H305.708V10.3749H289.387V10.7H294.187V17.7717C294.187 18.3407 292.075 18.8284 289.387 18.869C289.387 18.869 289.387 18.869 289.195 18.869C286.506 18.869 284.394 18.3813 284.394 17.8124V1.79938C284.394 1.35232 284.778 0.336264 288.234 0.376906C291.115 0.376906 293.035 0.945895 293.995 1.79938C294.955 3.09993 295.531 4.40047 295.531 5.74166C295.531 6.02615 296.107 6.14808 297.643 6.14808H300.715V0.173696H298.603V0.45819Z" fill="#DFDFDF" fill-opacity="0.5"/>
<path d="M364.503 9.64332V0.49885H368.535C371.607 0.49885 374.104 1.0272 374.104 1.67747C374.104 1.67747 374.104 1.67747 374.104 1.71811V9.2369C374.296 9.80589 372.183 10.3342 369.495 10.3342C369.303 10.3342 369.111 10.3342 368.919 10.3342H364.503V9.64332ZM368.535 0.214355H352.406V0.49885H356.63V18.0969C356.438 18.4626 355.862 18.6252 353.174 18.6252H352.406V18.9504H370.647V18.6252H368.727C365.655 18.5846 364.503 18.3407 364.503 17.7717V10.7H369.879C377.56 10.7 381.976 9.92781 381.976 8.87112V2.16518C381.784 1.14912 378.136 0.214355 368.535 0.214355Z" fill="#DFDFDF" fill-opacity="0.5"/>
<path d="M414.199 12.921H407.808V17.5726C407.808 19.8224 409.878 19.8224 410.178 19.8224V20.096H400.036V19.8224C400.306 19.8224 402.406 19.6704 402.406 17.5726V3.61789C402.406 1.3681 400.336 1.3681 400.036 1.3681V1.09448H414.199C418.641 1.09448 420.861 4.04352 420.861 7.02296C420.861 10.0024 418.791 12.921 414.199 12.921ZM411.709 2.37139H407.808V11.6745H411.709C414.62 11.6745 416.03 9.57677 416.03 7.02296C416.03 4.62117 414.62 2.37139 411.709 2.37139ZM439.797 20.248L431.034 12.921V17.5726C431.034 19.8224 433.105 19.8224 433.405 19.8224V20.096H423.262V19.8224C423.532 19.8224 425.633 19.6704 425.633 17.5726V3.61789C425.633 1.3681 423.562 1.3681 423.262 1.3681V1.09448H437.426C441.867 1.09448 444.088 4.04352 444.088 7.02296C444.088 10.0024 442.017 12.9514 437.426 12.9514H433.105C434.065 13.9243 436.166 14.3499 437.966 14.3499C438.806 14.3499 439.647 14.1979 440.337 14.0763L447.569 20.0048V20.248H439.797ZM434.935 2.37139H430.914V11.6745H434.935C437.846 11.6745 439.256 9.57677 439.256 7.02296C439.226 4.62117 437.846 2.37139 434.935 2.37139ZM463.143 20.248V19.9744C464.103 19.9744 464.524 19.7008 464.524 19.0015C464.524 18.7279 464.374 18.3023 464.253 17.8766L462.303 14.6236H454.381L453 17.451C452.85 17.8766 452.73 18.3023 452.73 18.7279C452.73 19.4272 453 19.8528 453.841 19.8528V20.1264H448.979V19.8528C450.09 19.8528 450.93 19.0015 451.62 17.603L457.472 5.77646L455.791 3.10104C454.951 1.70253 454.111 1.39851 453.15 1.39851V1.09448H460.923L470.375 17.8462C470.945 18.8191 471.636 19.944 472.866 19.944V20.248H463.143ZM458.132 7.14457L455.071 13.1947H461.613L458.132 7.14457ZM485.95 20.248H474.816V19.9744C475.087 19.9744 477.187 19.8224 477.187 17.7246V3.7699C477.187 1.52012 475.117 1.52012 474.816 1.52012V1.24649H485.95C490.961 1.24649 496.092 4.49956 496.092 10.8233C496.242 16.995 490.961 20.248 485.95 20.248ZM489.821 7.14457C489.821 3.61789 487.6 2.34098 485.229 2.34098H482.589V18.9711H485.229C487.6 18.9711 489.821 17.6942 489.821 14.1979V7.14457ZM510.676 20.248V19.9744C511.637 19.9744 512.057 19.7008 512.057 19.0015C512.057 18.7279 511.907 18.3023 511.787 17.8766L509.986 14.6236H502.064L500.684 17.451C500.534 17.8766 500.414 18.3023 500.414 18.7279C500.414 19.4272 500.684 19.8528 501.524 19.8528V20.1264H496.663V19.8528C497.773 19.8528 498.613 19.0015 499.303 17.603L505.155 5.77646L503.474 3.10104C502.634 1.70253 501.794 1.39851 500.834 1.39851V1.09448H508.486L517.939 17.8462C518.509 18.8191 519.199 19.944 520.429 19.944V20.248H510.676ZM505.695 7.14457L502.634 13.3467H509.176L505.695 7.14457Z" fill="#DFDFDF" fill-opacity="0.5"/>
<path d="M586.129 1.13416C587.748 1.13416 588.57 3.51199 588.57 6.84095V8.86211C588.57 11.775 588.041 13.697 587.024 14.4698L588.57 20.1766H586.243L584.729 14.5689H583.044L582.157 10.5662H585.803C585.974 10.6257 586.145 10.4671 586.267 10.1699C586.389 9.87269 586.446 9.45657 586.43 9.04045V7.35615C586.454 6.94003 586.389 6.52391 586.267 6.22668C586.145 5.92945 585.974 5.79074 585.803 5.83037H581.872V20.1766H579.724V1.13416H586.129Z" fill="#DFDFDF" fill-opacity="0.5"/>
<path d="M609.851 1.13416C611.47 1.13416 612.292 3.51199 612.292 6.84095V8.86211C612.292 11.775 611.763 13.697 610.746 14.4698L612.292 20.1766H609.956L608.443 14.5689H606.758L605.871 10.5662H609.517C609.688 10.6257 609.859 10.4671 609.981 10.1699C610.103 9.87269 610.16 9.45657 610.144 9.04045V7.35615C610.168 6.94003 610.103 6.52391 609.981 6.22668C609.859 5.92945 609.688 5.79074 609.517 5.83037H605.586V20.1766H603.438V1.13416H609.851Z" fill="#DFDFDF" fill-opacity="0.5"/>
<path d="M653.893 1.13416C655.513 1.13416 656.335 3.51199 656.335 6.84095V8.86211C656.335 11.775 655.806 13.697 654.788 14.4698L656.335 20.1766H653.999L652.485 14.5689H650.793L649.906 10.5662H653.551C653.722 10.6257 653.893 10.4671 654.015 10.1699C654.137 9.87269 654.194 9.45657 654.178 9.04045V7.35615C654.203 6.94003 654.137 6.52391 654.015 6.22668C653.893 5.92945 653.722 5.79074 653.551 5.83037H649.621V20.1766H647.472V1.13416H653.893Z" fill="#DFDFDF" fill-opacity="0.5"/>
<path d="M547.31 14.6878C547.367 16.1938 547.148 17.6799 546.708 18.7301C546.269 19.7803 545.658 20.3352 545.04 20.1964H540.759C540.141 20.3352 539.539 19.8001 539.099 18.7301C538.66 17.6601 538.44 16.1739 538.497 14.6878V1.13416H540.654V13.697C540.621 14.1726 540.686 14.6482 540.824 14.985C540.963 15.3219 541.158 15.4804 541.353 15.421H544.454C544.649 15.5002 544.853 15.3417 544.999 15.0048C545.146 14.668 545.211 14.1726 545.186 13.697V1.13416H547.302L547.31 14.6878Z" fill="#DFDFDF" fill-opacity="0.5"/>
<path d="M550.549 1.13411C550.981 0.975591 551.412 1.3719 551.689 2.18432L554.618 10.269L555.717 13.6574L555.66 9.21875V1.09448H557.808V20.1964H556.164C555.733 20.3549 555.294 19.9388 555.017 19.1066L552.079 11.0219L550.859 7.45519L550.948 11.9136V20.2162H548.816V1.13411H550.549Z" fill="#DFDFDF" fill-opacity="0.5"/>
<path d="M566.296 13.7366V7.5939C566.321 7.11833 566.256 6.64277 566.117 6.30591C565.979 5.96905 565.784 5.81053 565.588 5.86997H561.56V20.2162H559.403V1.13412H566.191C566.809 0.995414 567.411 1.53043 567.851 2.60045C568.29 3.67048 568.51 5.15662 568.453 6.64277V14.6878C568.51 16.1937 568.29 17.6799 567.851 18.7499C567.411 19.8199 566.801 20.3549 566.191 20.2162H562.895L561.869 15.4606H565.58C565.775 15.52 565.971 15.3615 566.109 15.0246C566.247 14.6878 566.313 14.2122 566.28 13.7366" fill="#DFDFDF" fill-opacity="0.5"/>
<path d="M578.349 5.92946H572.074C572.034 5.92946 571.993 5.96909 571.96 6.04835C571.928 6.12762 571.912 6.22669 571.912 6.32577V15.0445C571.912 15.2625 571.985 15.4408 572.074 15.4408H578.349V20.2361H571.065C570.707 20.3153 570.357 19.9983 570.105 19.384C569.853 18.7698 569.722 17.9177 569.755 17.0458V4.30461C569.722 3.43274 569.853 2.58068 570.105 1.96641C570.357 1.35214 570.707 1.05491 571.065 1.13417H578.349V5.92946ZM578.235 12.3892H573.002L572.221 8.78286H577.454L578.235 12.3892Z" fill="#DFDFDF" fill-opacity="0.5"/>
<path d="M591.573 20.2163L595.682 1.13416H597.872C598.482 1.13416 598.767 1.4512 598.995 2.42215L602.787 20.1568H600.24L599.605 17.1053H596.83L595.943 13.1026H598.759L597.164 5.51333L594.104 20.1568L591.573 20.2163Z" fill="#DFDFDF" fill-opacity="0.5"/>
<path d="M615.857 1.13415C616.304 1.01526 616.727 1.64935 616.89 2.65993L618.705 10.9823L619.388 14.8463L620.088 10.9823L621.895 2.65993C622.058 1.60972 622.497 0.975632 622.953 1.13415H625.134V20.2163H623.018V13.9348L623.164 7.2967L622.188 12.2703L620.357 20.1964H618.485L616.67 12.2703L615.669 7.2967L615.832 13.9348V20.2163H613.716V1.13415H615.857Z" fill="#DFDFDF" fill-opacity="0.5"/>
<path d="M628.796 1.13412H633.565C634.175 0.995414 634.785 1.53043 635.225 2.60045C635.656 3.67048 635.876 5.13681 635.819 6.64277V14.6878C635.876 16.1937 635.656 17.6799 635.217 18.7499C634.777 19.8199 634.167 20.3549 633.557 20.2162H628.788C628.169 20.3549 627.559 19.8199 627.119 18.7499C626.68 17.6799 626.46 16.1937 626.517 14.6878V6.64277C626.46 5.13681 626.68 3.65066 627.119 2.60045C627.559 1.55024 628.169 0.995414 628.788 1.13412M632.938 15.4606C633.133 15.52 633.329 15.3615 633.467 15.0246C633.605 14.6878 633.671 14.2122 633.646 13.7366V7.5939C633.671 7.11833 633.605 6.64277 633.467 6.30591C633.329 5.96905 633.133 5.81053 632.938 5.86997H629.382C629.187 5.79071 628.991 5.94923 628.853 6.28609C628.715 6.62295 628.649 7.09852 628.674 7.57408V13.7168C628.649 14.1924 628.715 14.668 628.853 15.0048C628.991 15.3417 629.187 15.5002 629.382 15.4407L632.938 15.4606Z" fill="#DFDFDF" fill-opacity="0.5"/>
<path d="M646 14.6878C646.057 16.1938 645.837 17.6799 645.397 18.7301C644.958 19.8001 644.348 20.3352 643.729 20.1964H639.432C638.814 20.3352 638.212 19.8001 637.772 18.7301C637.333 17.6601 637.113 16.1739 637.17 14.6878V1.13416H639.327V13.697C639.294 14.1726 639.367 14.668 639.506 15.0247C639.652 15.3615 639.856 15.52 640.051 15.4408H643.151C643.347 15.5002 643.542 15.3417 643.68 15.0048C643.819 14.668 643.884 14.1924 643.859 13.7169V1.13416H646.016L646 14.6878Z" fill="#DFDFDF" fill-opacity="0.5"/>
<path d="M658.752 18.314C658.752 18.9481 658.597 19.5227 658.353 19.7605C658.117 19.9983 657.84 19.8596 657.653 19.4236C657.466 18.9679 657.417 18.314 657.515 17.7195C657.612 17.1449 657.848 16.7486 658.109 16.7486C658.459 16.7684 658.752 17.4619 658.752 18.314ZM658.882 18.314C658.882 17.5412 658.695 16.8476 658.402 16.5504C658.109 16.2532 657.775 16.4117 657.547 16.9665C657.328 17.5015 657.254 18.3338 657.376 19.0471C657.499 19.7605 657.783 20.2162 658.101 20.2162C658.532 20.1964 658.882 19.3642 658.882 18.314Z" fill="#DFDFDF" fill-opacity="0.5"/>
<path d="M658.264 19.2255H658.41L658.182 18.4329C658.231 18.4329 658.288 18.3734 658.32 18.2743C658.353 18.1753 658.369 18.0564 658.361 17.9177C658.361 17.6204 658.296 17.4223 658.117 17.4223H657.84V19.2255H657.971V18.4527H658.052L658.264 19.2255ZM657.962 17.6601H658.076C658.174 17.6601 658.223 17.7591 658.223 17.9375C658.223 18.1158 658.182 18.2347 658.076 18.2347H657.962V17.6601Z" fill="#DFDFDF" fill-opacity="0.5"/>
</svg>
