<svg width="600" height="262" viewBox="0 0 600 262" fill="none" xmlns="http://www.w3.org/2000/svg">
<g filter="url(#filter0_b_72_71)">
<path d="M609.375 261.299L596.917 252.997C583.156 243.827 579.434 225.238 588.604 211.477V211.477L601.062 219.779C614.823 228.949 618.545 247.538 609.375 261.299V261.299Z" fill="#D9D9D9"/>
<path d="M586.747 216.797L574.498 208.19C560.968 198.682 557.707 180.007 567.215 166.477V166.477L579.464 175.084C592.994 184.592 596.255 203.267 586.747 216.797V216.797Z" fill="#D9D9D9"/>
<path d="M568.027 171.582L555.685 163.108C542.052 153.749 538.587 135.11 547.947 121.477V121.477L560.289 129.95C573.922 139.31 577.386 157.949 568.027 171.582V171.582Z" fill="#D9D9D9"/>
<path d="M550.548 124.823L537.032 118.385C522.103 111.273 515.765 93.4061 522.876 78.4767V78.4767L536.392 84.9147C551.321 92.0259 557.659 109.893 550.548 124.823V124.823Z" fill="#D9D9D9"/>
<path d="M523.803 82.4851L508.869 81.4386C492.373 80.2826 479.937 65.9729 481.093 49.4768V49.4768L496.027 50.5234C512.523 51.6793 524.959 65.9891 523.803 82.4851V82.4851Z" fill="#D9D9D9"/>
<path d="M482.744 49.7719L476.596 63.4224C469.806 78.5004 452.078 85.2189 437 78.4286V78.4286L443.147 64.778C449.938 49.7 467.666 42.9815 482.744 49.7719V49.7719Z" fill="#D9D9D9"/>
<path d="M445.519 77.5227L438.996 90.9979C431.791 105.882 413.884 112.107 399 104.902V104.902L405.523 91.4272C412.728 76.5429 430.635 70.3176 445.519 77.5227V77.5227Z" fill="#D9D9D9"/>
<path d="M403.3 104.718L388.679 107.937C372.53 111.493 356.555 101.283 353 85.1335V85.1335L367.621 81.9146C383.77 78.359 399.745 88.5686 403.3 104.718V104.718Z" fill="#D9D9D9"/>
<path d="M357.491 87.4973L342.554 86.4867C326.056 85.3703 313.586 71.0905 314.702 54.5917V54.5917L329.639 55.6024C346.138 56.7187 358.608 70.9986 357.491 87.4973V87.4973Z" fill="#D9D9D9"/>
<path d="M317.821 58.2267L302.881 57.2703C286.378 56.214 273.856 41.9795 274.913 25.4768V25.4768L289.853 26.4332C306.356 27.4895 318.878 41.724 317.821 58.2267V58.2267Z" fill="#D9D9D9"/>
<path d="M278.964 29.551L264.188 31.9621C247.868 34.6253 232.478 23.5538 229.815 7.2332V7.2332L244.59 4.82212C260.911 2.1589 276.301 13.2304 278.964 29.551V29.551Z" fill="#D9D9D9"/>
<path d="M233.511 7.39624L230.051 21.962C226.229 38.0508 210.089 47.9954 194 44.1739V44.1739L197.46 29.6081C201.281 13.5193 217.422 3.57469 233.511 7.39624V7.39624Z" fill="#D9D9D9"/>
<path d="M197.892 43.4768L198.754 58.423C199.706 74.932 187.094 89.0868 170.585 90.0385V90.0385L169.723 75.0923C168.772 58.5832 181.383 44.4285 197.892 43.4768V43.4768Z" fill="#D9D9D9"/>
<path d="M174.427 86.001L169.354 100.086C163.751 115.645 146.597 123.715 131.038 118.112V118.112L136.111 104.026C141.714 88.4681 158.869 80.3979 174.427 86.001V86.001Z" fill="#D9D9D9"/>
<path d="M135.919 117.58L123.867 126.462C110.555 136.273 91.8105 133.434 82 120.122V120.122L94.0517 111.24C107.364 101.43 126.108 104.268 135.919 117.58V117.58Z" fill="#D9D9D9"/>
<path d="M86.7948 122.058L72.5039 126.52C56.7187 131.447 39.9276 122.645 35 106.86V106.86L49.2909 102.399C65.0761 97.4713 81.8672 106.273 86.7948 122.058V122.058Z" fill="#D9D9D9"/>
<path d="M39.2354 111.417L24.2653 111.58C7.72975 111.759 -5.82045 98.4999 -5.99996 81.9644V81.9644L8.97013 81.8018C25.5056 81.6223 39.0558 94.8815 39.2354 111.417V111.417Z" fill="#D9D9D9"/>
</g>
<defs>
<filter id="filter0_b_72_71" x="-99" y="-88.5732" width="806.403" height="442.872" filterUnits="userSpaceOnUse" color-interpolation-filters="sRGB">
<feFlood flood-opacity="0" result="BackgroundImageFix"/>
<feGaussianBlur in="BackgroundImageFix" stdDeviation="46.5"/>
<feComposite in2="SourceAlpha" operator="in" result="effect1_backgroundBlur_72_71"/>
<feBlend mode="normal" in="SourceGraphic" in2="effect1_backgroundBlur_72_71" result="shape"/>
</filter>
</defs>
</svg>
